<svg width="28" height="28" viewBox="0 0 28 28" fill="none" xmlns="http://www.w3.org/2000/svg">
<path d="M27.022 1.7808L26.2195 0.978766C25.903 0.662201 25.5231 0.416207 25.1048 0.256957C24.6864 0.0977062 24.2391 0.0288058 23.7923 0.0547854C23.3454 0.0807649 22.9091 0.201036 22.512 0.407692C22.1149 0.614347 21.7661 0.902707 21.4884 1.25381C21.4834 1.2597 21.4787 1.2659 21.4744 1.27239L15.4514 9.75534C15.3369 9.91661 15.1886 10.0509 15.0169 10.149C14.8451 10.247 14.654 10.3064 14.4569 10.323C14.2598 10.3395 14.0615 10.3129 13.8758 10.2449C13.69 10.1769 13.5214 10.0692 13.3816 9.92934L12.2034 8.75122C11.9933 8.53989 11.7435 8.37219 11.4683 8.25775C11.1932 8.14331 10.8981 8.0844 10.6001 8.0844C10.3021 8.0844 10.007 8.14331 9.73181 8.25775C9.45664 8.37219 9.20681 8.53989 8.99668 8.75122L7.39625 10.3521L0.985435 16.7566C0.943305 16.7987 0.909883 16.8486 0.887079 16.9036C0.864276 16.9587 0.852539 17.0176 0.852539 17.0772C0.852539 17.1367 0.864276 17.1957 0.887079 17.2507C0.909883 17.3057 0.943305 17.3557 0.985435 17.3977L10.6003 27.0122C10.6853 27.0971 10.8005 27.1448 10.9207 27.1448C11.0408 27.1448 11.156 27.0971 11.241 27.0122L17.636 20.614C17.6396 20.6104 17.645 20.609 17.6491 20.6054L19.2491 19.005C19.4605 18.7949 19.6282 18.5451 19.7427 18.2699C19.8572 17.9947 19.9161 17.6996 19.9161 17.4016C19.9161 17.1036 19.8572 16.8085 19.7427 16.5333C19.6282 16.2581 19.4605 16.0083 19.2491 15.7982L18.071 14.6201C17.9311 14.4802 17.8234 14.3116 17.7555 14.1258C17.6875 13.9401 17.6609 13.7417 17.6776 13.5446C17.6942 13.3476 17.7536 13.1565 17.8517 12.9847C17.9497 12.813 18.0841 12.6647 18.2454 12.5502L26.747 6.51233C27.0981 6.23467 27.3866 5.88581 27.5933 5.4887C27.8 5.09158 27.9203 4.65521 27.9462 4.20828C27.9722 3.76135 27.9033 3.31398 27.744 2.89559C27.5847 2.47721 27.3386 2.09728 27.022 1.7808ZM10.9202 26.0515L10.5998 25.7312L14.1242 22.2068C14.1663 22.1647 14.1997 22.1147 14.2225 22.0598C14.2453 22.0048 14.2571 21.9459 14.2571 21.8863C14.2571 21.8268 14.2454 21.7679 14.2227 21.7129C14.1999 21.6579 14.1665 21.6079 14.1245 21.5658C14.0824 21.5237 14.0325 21.4903 13.9775 21.4675C13.9225 21.4447 13.8636 21.433 13.804 21.433C13.7445 21.4329 13.6856 21.4446 13.6306 21.4674C13.5756 21.4902 13.5256 21.5235 13.4835 21.5656L9.95912 25.09L9.63876 24.7696L14.4446 19.9629C14.5271 19.8774 14.5728 19.763 14.5718 19.6442C14.5708 19.5254 14.5231 19.4117 14.4391 19.3277C14.3551 19.2437 14.2414 19.196 14.1226 19.195C14.0038 19.194 13.8893 19.2396 13.8039 19.3222L8.99804 24.1285L8.35687 23.4877L10.5998 21.2448C10.6824 21.1593 10.7281 21.0449 10.727 20.9261C10.726 20.8072 10.6783 20.6936 10.5943 20.6096C10.5103 20.5256 10.3967 20.4779 10.2779 20.4769C10.159 20.4758 10.0446 20.5215 9.95912 20.6041L7.71615 22.8466L7.39579 22.5262L12.2021 17.7199C12.2464 17.6784 12.2818 17.6283 12.3064 17.5728C12.3309 17.5173 12.344 17.4574 12.345 17.3966C12.3459 17.3359 12.3347 17.2757 12.3118 17.2194C12.289 17.1631 12.2551 17.112 12.2122 17.0691C12.1693 17.0262 12.1181 16.9923 12.0618 16.9696C12.0055 16.9468 11.9453 16.9356 11.8845 16.9365C11.8238 16.9375 11.7639 16.9507 11.7084 16.9753C11.6529 16.9999 11.6029 17.0354 11.5614 17.0797L6.75508 21.8855L6.43426 21.5656L9.95867 18.0412C10.0437 17.9562 10.0915 17.841 10.0915 17.7208C10.0916 17.6006 10.0439 17.4853 9.9589 17.4002C9.87393 17.3152 9.75867 17.2674 9.63847 17.2674C9.51827 17.2673 9.40297 17.315 9.31795 17.4L5.79354 20.9249L5.47318 20.6045L9.63831 16.4389C9.72085 16.3535 9.76652 16.239 9.76549 16.1202C9.76446 16.0014 9.7168 15.8878 9.63279 15.8037C9.54878 15.7197 9.43513 15.6721 9.31632 15.671C9.19751 15.67 9.08305 15.7157 8.99759 15.7982L4.83247 19.9638L4.19175 19.3222L7.71615 15.7978C7.79869 15.7123 7.84437 15.5978 7.84333 15.479C7.8423 15.3602 7.79465 15.2466 7.71063 15.1626C7.62662 15.0786 7.51297 15.0309 7.39416 15.0299C7.27536 15.0288 7.16089 15.0745 7.07543 15.157L3.55103 18.6815L3.23067 18.3611L7.39579 14.196C7.47833 14.1105 7.52401 13.996 7.52297 13.8772C7.52194 13.7584 7.47429 13.6448 7.39027 13.5608C7.30626 13.4768 7.19261 13.4291 7.0738 13.4281C6.955 13.427 6.84054 13.4727 6.75508 13.5552L2.58995 17.7204L1.94833 17.0797L7.71615 11.3118L16.6858 20.2837L10.9202 26.0515ZM27.0419 4.15608C27.0242 4.47151 26.9404 4.77971 26.796 5.06071C26.6516 5.34171 26.4498 5.58926 26.2037 5.78733L17.7207 11.8094C17.452 12.0002 17.2281 12.2474 17.0647 12.5336C16.9013 12.8199 16.8024 13.1384 16.7748 13.4668C16.7471 13.7953 16.7915 14.1258 16.9048 14.4354C17.0181 14.7449 17.1976 15.026 17.4307 15.259L18.6088 16.4371C18.7357 16.5631 18.8364 16.7129 18.9051 16.8779C18.9738 17.0429 19.0092 17.2199 19.0092 17.3987C19.0092 17.5774 18.9738 17.7544 18.9051 17.9194C18.8364 18.0845 18.7357 18.2343 18.6088 18.3602L17.3283 19.6407L8.35642 10.6688L9.63876 9.38695C9.89716 9.1384 10.2418 8.99957 10.6003 8.99957C10.9588 8.99957 11.3034 9.1384 11.5618 9.38695L12.7399 10.5651C12.973 10.7981 13.254 10.9775 13.5635 11.0908C13.873 11.204 14.2035 11.2484 14.5319 11.2208C14.8603 11.1931 15.1787 11.0942 15.4649 10.9309C15.7511 10.7676 15.9983 10.5438 16.1891 10.2751L22.2062 1.80934C22.4052 1.56024 22.6545 1.35594 22.9378 1.2098C23.2212 1.06366 23.5322 0.978972 23.8505 0.961265C24.1689 0.943559 24.4873 0.993237 24.7852 1.10705C25.083 1.22087 25.3534 1.39625 25.5788 1.62175L26.3813 2.42378C26.6071 2.6498 26.7826 2.92092 26.8965 3.21943C27.0103 3.51793 27.0599 3.8371 27.0419 4.15608Z" fill="#BA5B80"/>
</svg>
