<svg width="53" height="68" viewBox="0 0 53 68" fill="none" xmlns="http://www.w3.org/2000/svg">
<path d="M49.2791 2.53662H49.9996C51.1041 2.53662 51.9996 3.43205 51.9996 4.53662V65.1958C51.9996 66.3004 51.1041 67.1958 49.9996 67.1958H4.53613C3.43156 67.1958 2.53613 66.3493 2.53613 65.2448C2.53613 65.0226 2.53613 64.7758 2.53613 64.5017" stroke="white"/>
<rect x="0.5" y="0.5" width="48.4634" height="63.6829" rx="1.5" stroke="white"/>
<rect x="5.57324" y="16.9878" width="38.3171" height="11.6829" rx="1.5" stroke="white"/>
<rect x="5.57324" y="33.4756" width="16.7561" height="2.80488" rx="1.40244" stroke="white"/>
<rect x="27.1348" y="9.37793" width="16.7561" height="4.07317" rx="1.5" stroke="white"/>
<rect x="5.57324" y="53.7681" width="38.3171" height="4.07317" rx="1.5" stroke="white"/>
<rect x="5.57324" y="39.8174" width="16.7561" height="4.07317" rx="1.5" stroke="white"/>
<path d="M5.07324 0V11.4146L8.24397 9.13171L11.4147 11.4146V0.253659" stroke="white"/>
</svg>
