<svg width="62" height="55" viewBox="0 0 62 55" fill="none" xmlns="http://www.w3.org/2000/svg">
<path d="M2.83299 24.5C2.36133 24.5 2.15196 23.9069 2.51911 23.6108L30.6861 0.895457C30.8693 0.747734 31.1307 0.747733 31.3139 0.895459L59.4809 23.6108C59.848 23.9069 59.6387 24.5 59.167 24.5H54C53.1716 24.5 52.5 25.1716 52.5 26V54C52.5 54.2761 52.2761 54.5 52 54.5H10C9.72386 54.5 9.5 54.2761 9.5 54V26C9.5 25.1716 8.82843 24.5 8 24.5H2.83299Z" stroke="white"/>
<path d="M37.7461 26.5464L25.083 42.0269" stroke="white"/>
<circle cx="25.2215" cy="29.2215" r="2.5" transform="rotate(39.2831 25.2215 29.2215)" stroke="white"/>
<circle cx="37.6062" cy="39.3519" r="2.5" transform="rotate(39.2831 37.6062 39.3519)" stroke="white"/>
</svg>
