<svg width="81" height="81" viewBox="0 0 81 81" fill="none" xmlns="http://www.w3.org/2000/svg">
<circle cx="14.5547" cy="48.1941" r="1.5" stroke="white"/>
<path d="M6.39114 54.9791V54.4791H5.89114H3.05782L3.06728 52.9652L5.92829 50.478L6.68618 49.8191L6.85813 49.6696V49.4418V44.5866H8.15492L8.13181 47.4611L8.12289 48.5701L8.95984 47.8425L14.6971 42.8547L26.4849 52.9623L26.4565 54.4791H23.4986H22.9986V54.9791V65.6941H17.9145V57.2221V56.7221H17.4145H14.6949H11.9752H11.4752V57.2221V65.6941H6.39114V54.9791Z" stroke="white"/>
<path d="M42.7706 35.9128L65.91 59.3052L65.8802 64.7795M65.8802 64.7795L45.0455 43.5052M65.8802 64.7795L56.6171 64.5185L56.4306 60.0958L52.0079 60.2823L49.2856 57.5303L49.6249 53.2157L42.4799 50.6502L35.2566 43.1361" stroke="white" stroke-linecap="round" stroke-linejoin="round"/>
<circle cx="23.2744" cy="23.4715" r="2.72086" transform="rotate(-78.3784 23.2744 23.4715)" stroke="white"/>
<circle cx="29.4457" cy="29.445" r="14.5307" transform="rotate(-78.3784 29.4457 29.445)" stroke="white"/>
<path d="M12.7881 43.3061C12.7588 43.5806 12.9577 43.827 13.2323 43.8562C13.5069 43.8854 13.7532 43.6865 13.7825 43.412L12.7881 43.3061ZM16.1177 34.1144C16.211 33.8545 16.076 33.5682 15.8161 33.4748C15.5562 33.3815 15.2699 33.5165 15.1765 33.7764L16.1177 34.1144ZM14.0173 46.8686C13.8713 46.6341 13.563 46.5624 13.3286 46.7083C13.0941 46.8542 13.0224 47.1626 13.1683 47.397L14.0173 46.8686ZM20.5608 23.3447C20.3797 23.5531 20.4019 23.8689 20.6103 24.0501C20.8188 24.2312 21.1346 24.209 21.3157 24.0006L20.5608 23.3447ZM20.9781 35.8599C19.7434 39.2978 18.3082 42.2796 16.9943 44.3199C16.3352 45.3436 15.7216 46.1064 15.1958 46.5728C14.9327 46.8061 14.7113 46.9474 14.5355 47.0175C14.3636 47.0861 14.2667 47.0753 14.2136 47.0562L13.8756 47.9974C14.2229 48.1221 14.5801 48.0763 14.9059 47.9464C15.2277 47.8181 15.5475 47.5975 15.8593 47.3209C16.4834 46.7674 17.1544 45.9184 17.8351 44.8613C19.2009 42.7403 20.6668 39.6854 21.9192 36.1979L20.9781 35.8599ZM22.8822 22.9181C22.9353 22.9372 23.0169 22.9904 23.1059 23.1527C23.1969 23.3186 23.2779 23.5685 23.3324 23.9159C23.4414 24.6103 23.4294 25.5892 23.2868 26.7983C23.0024 29.2084 22.2127 32.4219 20.9781 35.8599L21.9192 36.1979C23.1717 32.7104 23.9843 29.4209 24.2799 26.9155C24.4272 25.6669 24.4497 24.5849 24.3203 23.7609C24.2557 23.3491 24.1493 22.9755 23.9826 22.6717C23.814 22.3643 23.5675 22.1017 23.2201 21.9769L22.8822 22.9181ZM13.7825 43.412C14.0416 40.9787 14.8419 37.6668 16.1177 34.1144L15.1765 33.7764C13.8828 37.3789 13.058 40.771 12.7881 43.3061L13.7825 43.412ZM14.2136 47.0562C14.1651 47.0388 14.0956 46.9944 14.0173 46.8686L13.1683 47.397C13.334 47.6633 13.5651 47.8859 13.8756 47.9974L14.2136 47.0562ZM21.3157 24.0006C21.7161 23.5398 22.0682 23.2293 22.359 23.0574C22.655 22.8825 22.8118 22.8928 22.8822 22.9181L23.2201 21.9769C22.7491 21.8078 22.2667 21.9504 21.8502 22.1966C21.4286 22.4457 20.995 22.8451 20.5608 23.3447L21.3157 24.0006Z" fill="white"/>
</svg>
