<svg width="55" height="56" viewBox="0 0 55 56" fill="none" xmlns="http://www.w3.org/2000/svg">
<path d="M21.9005 6.23448V54.5H3.55078V0.673968L21.9005 6.23448Z" stroke="white"/>
<path d="M34.683 16.4803V54.5001H22.7832V12.8705L34.683 16.4803Z" stroke="white"/>
<path d="M42.6581 25.1923V54.4994H35.5664V22.5332L42.6581 25.1923Z" stroke="white"/>
<path d="M0 54.9412H54.1791" stroke="white"/>
<path d="M3.33984 12.0786H11.6661" stroke="white"/>
<path d="M3.33984 17.708H11.6661" stroke="white"/>
<path d="M22.4004 17.708H29.5539" stroke="white"/>
<path d="M3.33984 23.3362H11.6661" stroke="white"/>
<path d="M22.4004 23.3362H29.5539" stroke="white"/>
<path d="M3.33984 28.9656H11.6661" stroke="white"/>
<path d="M22.4004 28.9656H29.5539" stroke="white"/>
<path d="M35.1836 28.9656H39.0535" stroke="white"/>
<path d="M3.33984 34.595H11.6661" stroke="white"/>
<path d="M22.4004 34.595H29.5539" stroke="white"/>
<path d="M35.1836 34.595H39.0535" stroke="white"/>
<path d="M3.33984 40.2244H11.6661" stroke="white"/>
<path d="M22.4004 40.2244H29.5539" stroke="white"/>
<path d="M35.1836 40.2244H39.0535" stroke="white"/>
<path d="M3.33984 45.8525H11.6661" stroke="white"/>
<path d="M22.4004 45.8525H29.5539" stroke="white"/>
<path d="M35.1836 45.8525H39.0535" stroke="white"/>
<path d="M3.33984 51.4819H11.6661" stroke="white"/>
<path d="M22.4004 51.4819H29.5539" stroke="white"/>
<path d="M35.1836 51.4819H39.0535" stroke="white"/>
<path d="M49.4316 54.8828V48.7261" stroke="white"/>
<path d="M52.2724 45.0321C52.2724 46.1983 51.9203 47.2345 51.3751 47.9677C50.8299 48.7009 50.1162 49.1056 49.3716 49.1056C48.627 49.1056 47.9132 48.7009 47.368 47.9677C46.8229 47.2345 46.4707 46.1983 46.4707 45.0321C46.4707 43.8658 46.8229 42.8296 47.368 42.0964C47.9132 41.3633 48.627 40.9585 49.3716 40.9585C50.1162 40.9585 50.8299 41.3633 51.3751 42.0964C51.9203 42.8296 52.2724 43.8658 52.2724 45.0321Z" stroke="white"/>
</svg>
