<svg width="27" height="28" viewBox="0 0 27 28" fill="none" xmlns="http://www.w3.org/2000/svg">
<path d="M7.87612 1.16098L7.87544 1.16101C6.52035 1.21921 5.61059 1.43367 4.82327 1.73895L4.82262 1.73921C4.01428 2.05134 3.33391 2.47055 2.65418 3.15027C1.97445 3.83 1.55525 4.51037 1.24311 5.31871L1.24286 5.31937C0.937469 6.10696 0.723114 7.00812 0.664925 8.37141C0.60509 9.77324 0.587891 10.213 0.587891 13.8001C0.587891 17.3872 0.605089 17.827 0.664919 19.2287L7.87612 1.16098ZM7.87612 1.16098C9.22604 1.10118 9.69138 1.08398 12.9769 1.08398H13.6312C16.9166 1.08398 17.3734 1.10117 18.7321 1.16099L18.7328 1.16102C20.096 1.21921 20.9972 1.43356 21.7848 1.73896L21.7855 1.73921C22.5938 2.05134 23.2742 2.47055 23.9539 3.15027C24.6336 3.83 25.0528 4.51037 25.365 5.31871L25.3652 5.31937C25.6706 6.10696 25.885 7.00812 25.9431 8.37141L25.9432 8.37221C26.003 9.72214 26.0202 10.1875 26.0202 13.473V14.1273C26.0202 17.4127 26.003 17.8695 25.9432 19.2282L25.9431 19.2289C25.885 20.5921 25.6706 21.4933 25.3652 22.2809L25.365 22.2815C25.0528 23.0899 24.6336 23.7703 23.9539 24.45C23.2742 25.1297 22.5938 25.5489 21.7855 25.861L21.7848 25.8613C20.9972 26.1667 20.096 26.3811 18.7328 26.4392C17.3309 26.4991 16.8912 26.5163 13.304 26.5163C9.71688 26.5163 9.27715 26.4991 7.87531 26.4392C6.51203 26.3811 5.61087 26.1667 4.82327 25.8613L4.82262 25.861C4.01428 25.5489 3.33391 25.1297 2.65418 24.45C1.97445 23.7703 1.55525 23.0899 1.24311 22.2815L1.24286 22.2809M7.87612 1.16098L1.24286 22.2809M1.24286 22.2809C0.937584 21.4936 0.723127 20.5839 0.664925 19.2289L1.24286 22.2809ZM21.4483 6.74865C21.4483 7.34895 20.9594 7.83287 20.3641 7.83287C19.7638 7.83287 19.2799 7.34388 19.2799 6.74865C19.2799 6.14835 19.7689 5.66443 20.3641 5.66443C20.9662 5.66443 21.4483 6.14659 21.4483 6.74865ZM20.3641 8.83286C21.5081 8.83286 22.4483 7.90477 22.4483 6.74865C22.4483 5.5943 21.5185 4.66443 20.3641 4.66443C19.2202 4.66443 18.2799 5.59254 18.2799 6.74865C18.2799 7.89262 19.208 8.83286 20.3641 8.83286ZM13.304 17.717C11.1436 17.717 9.39579 15.9692 9.39579 13.8087C9.39579 11.6483 11.1436 9.90049 13.304 9.90049C15.4645 9.90049 17.2123 11.6483 17.2123 13.8087C17.2123 15.9692 15.4645 17.717 13.304 17.717ZM8.39579 13.8087C8.39579 16.5215 10.5913 18.717 13.304 18.717C16.0168 18.717 18.2123 16.5215 18.2123 13.8087C18.2123 11.096 16.0168 8.90049 13.304 8.90049C10.5913 8.90049 8.39579 11.096 8.39579 13.8087Z" stroke="white"/>
</svg>
