<svg width="64" height="64" viewBox="0 0 64 64" fill="none" xmlns="http://www.w3.org/2000/svg">
<path d="M14.741 32.3537C14.736 32.3614 14.7317 32.3681 14.728 32.3738C14.6663 32.4594 14.5793 32.5 14.499 32.5C14.4187 32.5 14.3317 32.4594 14.2701 32.3738C14.2667 32.3687 14.2629 32.3627 14.2585 32.356C14.0116 31.976 12.1128 29.0537 10.2522 25.4809C9.29538 23.6438 8.35326 21.6433 7.65142 19.7341C6.94618 17.8157 6.49902 16.0301 6.49902 14.6099C6.49902 10.1375 10.1007 6.5 14.499 6.5C18.9072 6.5 22.499 10.1273 22.499 14.6099C22.499 16.0327 22.0518 17.8196 21.3466 19.7384C20.6448 21.648 19.7027 23.6482 18.7459 25.4847C16.8889 29.0492 14.9939 31.9646 14.741 32.3537Z" stroke="white"/>
<circle cx="14.499" cy="14.5" r="3" stroke="white"/>
<rect x="0.499023" y="0.5" width="63" height="63" stroke="white"/>
<path d="M50.999 4V60" stroke="white"/>
<path d="M25.999 4V60" stroke="white"/>
<path d="M59.999 51L3.99902 51" stroke="white"/>
<path d="M59.999 26L21.999 26" stroke="white"/>
<path d="M7.99902 26H3.99902" stroke="white"/>
</svg>
