<svg width="26" height="28" viewBox="0 0 26 28" fill="none" xmlns="http://www.w3.org/2000/svg">
<path d="M23.8564 17.2571L21.7856 15.1863L12.467 5.86815C10.7496 4.16362 7.9774 4.16876 6.26644 5.87972C4.55548 7.59069 4.55033 10.3629 6.25487 12.0803L15.573 21.4012C15.9541 21.7825 16.5723 21.7825 16.9536 21.4012C17.3347 21.0199 17.3347 20.4019 16.9536 20.0206L7.63551 10.6997C6.6825 9.74664 6.6825 8.20181 7.63551 7.24879C8.58852 6.29578 10.1334 6.29578 11.0864 7.24879L20.4073 16.5669L22.4781 18.6376C24.1938 20.3539 24.1932 23.136 22.4771 24.8514C20.7607 26.5669 17.9789 26.5665 16.2632 24.8501L14.5379 23.1242L4.87444 13.4607L4.18401 12.7705C1.77083 10.2819 1.80148 6.31722 4.2526 3.86588C6.70394 1.41476 10.6686 1.38411 13.1572 3.79729L23.5109 14.1512C23.7576 14.3977 24.1171 14.4939 24.4538 14.4037C24.7908 14.3134 25.054 14.0504 25.1443 13.7135C25.2345 13.3765 25.138 13.0172 24.8915 12.7705L14.5379 2.41686C11.2954 -0.810863 6.05209 -0.804862 2.81708 2.43036C-0.418143 5.66537 -0.424145 10.9086 2.80358 14.1512L13.1572 24.5048L14.8851 26.2308C17.377 28.6242 21.326 28.5844 23.7688 26.1408C26.2117 23.6974 26.2505 19.7483 23.8564 17.2571Z" fill="white"/>
</svg>
