<?xml version="1.0" encoding="utf-8"?>
<!-- Generator: Adobe Illustrator 22.0.1, SVG Export Plug-In . SVG Version: 6.00 Build 0)  -->
<svg version="1.1" id="Слой_1" xmlns="http://www.w3.org/2000/svg" xmlns:xlink="http://www.w3.org/1999/xlink" x="0px" y="0px"
	 viewBox="0 0 60.2 66" style="enable-background:new 0 0 60.2 66;" xml:space="preserve">
<style type="text/css">
	.st0{fill:none;stroke:#FFFFFF;}
</style>
<circle class="st0" cx="30.1" cy="33" r="4"/>
<path class="st0" d="M37.8,60.8c4.8-5.5,8-15.9,8-27.8c0-17.7-7.2-32-16-32s-16,14.3-16,32c0,17.7,7.2,32,16,32
	c1.1,0,2.2-0.2,3.2-0.6"/>
<path class="st0" d="M52.3,12.9c-7.1-2.6-19-0.4-30.5,6.3C6.5,28-2.3,41.3,2.1,49c4.4,7.7,20.4,6.7,35.7-2.1
	C53.2,38,62,24.7,57.6,17c-0.3-0.5-0.6-0.9-1-1.3"/>
<path class="st0" d="M2.9,16c-0.3,0.3-0.5,0.7-0.7,1c-4.4,7.7,4.4,21,19.7,29.9c15.3,8.8,31.3,9.8,35.7,2.1s-4.4-21-19.7-29.9
	c-11.3-6.5-22.9-8.7-30-6.4"/>
<circle class="st0" cx="5.4" cy="14.5" r="3"/>
<circle class="st0" cx="54.4" cy="14.5" r="3"/>
<circle class="st0" cx="35.4" cy="62.5" r="3"/>
</svg>
