<svg width="25" height="24" viewBox="0 0 25 24" fill="none" xmlns="http://www.w3.org/2000/svg">
<path d="M18.3808 15.5468L18.3807 15.5468L18.3851 15.5482C19.8594 16.0159 21.4133 16.2533 22.9939 16.2533C23.8433 16.2533 24.4999 16.9124 24.5 17.679C24.5 17.679 24.5 17.679 24.5 17.679V22.0742C24.5 22.8409 23.8434 23.5 22.9939 23.5C10.5717 23.5 0.5 13.8025 0.5 1.92581C0.5 1.15912 1.15664 0.5 2.00605 0.5H6.59718C7.44659 0.5 8.10321 1.15911 8.10317 1.92584V1.92587C8.10317 3.44929 8.35183 4.94501 8.84177 6.37104C9.0095 6.88806 8.87026 7.43586 8.47283 7.81689L8.4472 7.84146L8.4253 7.86941L6.36573 10.4977L6.16158 10.7582L6.32166 11.0479C8.0878 14.244 10.1703 16.2404 13.5157 17.9548L13.7887 18.0947L14.0371 17.9147L16.8481 15.8776L16.8788 15.8553L16.9058 15.8287C17.0352 15.7011 17.2623 15.5794 17.5487 15.5178C17.8313 15.457 18.1288 15.4643 18.3808 15.5468Z" stroke="white"/>
</svg>
