<svg width="22" height="19" viewBox="0 0 22 19" fill="none" xmlns="http://www.w3.org/2000/svg">
<path d="M9.96439 8.57226C11.1762 8.57226 12.1623 7.57945 12.1623 6.35914C12.1623 5.13866 11.1762 4.14584 9.96439 4.14584C8.75253 4.14584 7.7666 5.13866 7.7666 6.35914C7.7666 7.57945 8.75253 8.57226 9.96439 8.57226ZM9.96439 5.4439C10.4656 5.4439 10.8733 5.85445 10.8733 6.35914C10.8733 6.86366 10.4656 7.2742 9.96439 7.2742C9.46336 7.2742 9.05566 6.86366 9.05566 6.35914C9.05566 5.85445 9.46336 5.4439 9.96439 5.4439Z" fill="white"/>
<path d="M21.1967 0H0.803314C0.360367 0 0 0.362882 0 0.808921V18.1911C0 18.6371 0.360367 19 0.803314 19H21.1967C21.6396 19 22 18.6371 22 18.1911V0.808921C22 0.362882 21.6396 0 21.1967 0ZM20.7109 1.29806V11.5703L16.6568 7.48767C16.3924 7.22197 15.9626 7.22214 15.6984 7.48818L9.96455 13.262L6.30197 9.57403C6.1739 9.4449 6.00354 9.37374 5.82227 9.37374C5.64116 9.37374 5.47096 9.44473 5.3429 9.57369L1.28906 13.6558V1.29806H20.7109ZM1.28906 17.7019V15.4915L5.82227 10.9267L9.48468 14.6147C9.61292 14.7438 9.78328 14.8151 9.96455 14.8151C10.1455 14.8151 10.3159 14.744 10.4438 14.615L16.1777 8.841L20.7111 13.406V17.7019H1.28906Z" fill="white"/>
</svg>
