<svg width="64" height="63" viewBox="0 0 64 63" fill="none" xmlns="http://www.w3.org/2000/svg">
<rect x="0.500488" y="0.5" width="57" height="22" rx="2.5" stroke="white"/>
<path d="M34.3207 34.5C35.6391 34.5 36.7309 35.5238 36.8156 36.8394L38.296 59.8394C38.3888 61.2803 37.2451 62.5 35.8012 62.5L28.1998 62.5C26.7559 62.5 25.6122 61.2803 25.705 59.8394L27.1854 36.8394C27.2701 35.5238 28.3619 34.5 29.6803 34.5L34.3207 34.5Z" stroke="white"/>
<path d="M58.0005 10.5H60.5005C61.3338 10.5 63.0005 11 63.0005 13C63.0005 15 63.0005 20.5 63.0005 23C63.0005 25 62.3005 25.7 59.5005 26.5C56.7005 27.3 40.0005 30.5 32.0005 32V34.5" stroke="white"/>
<path d="M21.9441 5.61914L18.687 17.3809" stroke="white" stroke-linecap="round"/>
<path d="M30.6291 5.61914L27.3721 17.3809" stroke="white" stroke-linecap="round"/>
<path d="M39.3147 5.61914L36.0576 17.3809" stroke="white" stroke-linecap="round"/>
<path d="M48.0007 5.61914L44.7437 17.3809" stroke="white" stroke-linecap="round"/>
<path d="M13.258 5.61914L10.001 17.3809" stroke="white" stroke-linecap="round"/>
</svg>
