<svg width="18" height="23" viewBox="0 0 18 23" fill="none" xmlns="http://www.w3.org/2000/svg">
<path d="M11.2063 13.3634H5.22937V16.7054H13.7771V18.1193H5.22937V22.5859H3.49412V18.1193H0.602051V16.7054H3.49412V13.3634H0.602051V11.7567H3.49412V0.092041H11.2063C13.0273 0.092041 14.5911 0.745435 15.8979 2.05222C17.2047 3.35901 17.8581 4.92288 17.8581 6.74381C17.8581 8.56474 17.2047 10.1286 15.8979 11.4354C14.5911 12.7208 13.0273 13.3634 11.2063 13.3634ZM5.22937 1.69875V11.7567H11.2063C12.5774 11.7567 13.7449 11.2747 14.7089 10.3107C15.673 9.32525 16.155 8.13629 16.155 6.74381C16.155 5.35133 15.673 4.16237 14.7089 3.17692C13.7449 2.19147 12.5774 1.69875 11.2063 1.69875H5.22937Z" fill="#BA5B80"/>
</svg>
