<svg width="56" height="63" viewBox="0 0 56 63" fill="none" xmlns="http://www.w3.org/2000/svg">
<path d="M12.9693 51.855L13.0626 51.5083L12.7639 51.3092C5.36953 46.3788 0.5 37.964 0.5 28.4121C0.5 13.2243 12.8122 0.912109 28 0.912109C43.1878 0.912109 55.5 13.2243 55.5 28.4121C55.5 43.5999 43.1878 55.9121 28 55.9121C26.507 55.9121 25.0421 55.7932 23.6143 55.5644L23.4203 55.5333L23.257 55.6426C18.5712 58.7794 14.9755 60.1651 12.1287 60.8184C10.107 61.2823 8.4841 61.3779 7.05291 61.4622C6.91482 61.4704 6.77852 61.4784 6.64382 61.4866C8.21852 59.7828 9.57803 57.9731 10.6311 56.36C11.8733 54.4573 12.7206 52.7799 12.9693 51.855Z" stroke="white"/>
<path d="M43.9861 33.7556C43.6552 40.4291 36.7302 45.9232 28.0012 45.9232C19.2722 45.9232 12.3472 40.4291 12.0163 33.7556H43.9861Z" stroke="white"/>
<path d="M32.6906 21.9033C32.6906 18.9777 35.0622 16.606 37.9879 16.606C40.9135 16.606 43.2852 18.9777 43.2852 21.9033" stroke="white"/>
<path d="M12.714 21.9033C12.714 18.9777 15.0857 16.606 18.0113 16.606C20.9369 16.606 23.3086 18.9777 23.3086 21.9033" stroke="white"/>
</svg>
