<svg width="33" height="19" viewBox="0 0 33 19" fill="none" xmlns="http://www.w3.org/2000/svg">
<path fill-rule="evenodd" clip-rule="evenodd" d="M19.3386 16.8004C19.4186 15.5704 19.9786 13.6504 21.3586 14.7004C22.1986 15.3304 22.8586 16.2504 23.6186 17.0504C24.3486 17.8304 25.2286 18.5204 26.8686 18.4804C27.8386 18.4604 30.6186 18.5504 31.3486 18.2804C33.5386 17.4804 29.6586 13.8504 28.7086 13.0404C28.3086 12.7004 27.8586 12.2104 27.5186 11.8504C27.0986 11.4004 26.8886 10.9504 27.2286 10.2504L28.6986 8.18044C29.1286 7.70044 30.7386 5.40044 31.1286 4.77044C31.6886 3.86044 32.8386 2.08044 31.3586 1.79044C30.5286 1.63044 27.8186 1.78044 26.7886 1.79044C24.7586 1.80044 25.1786 1.58044 24.1686 3.89044C23.4986 5.43044 21.4486 9.05044 20.3586 9.46044C18.3386 10.2304 19.9186 2.90044 19.0686 1.63044C18.5486 0.860442 16.1586 0.960442 15.0386 0.970442C13.7386 0.990442 11.9386 1.05044 11.5586 2.13044C11.6786 2.23044 11.5486 2.16044 11.7686 2.25044C11.9286 2.32044 12.1786 2.33044 12.4586 2.48044C12.6986 2.61044 12.9286 2.84044 13.0486 3.04044C13.6586 4.02044 13.5886 8.16044 13.0786 9.16044C12.1286 11.0304 9.34862 5.77044 8.86862 4.83044C8.18862 3.49044 7.91862 2.19044 7.14862 1.86044C6.58862 1.62044 3.42862 1.75044 2.57862 1.77044C1.79862 1.78044 1.12862 1.91044 1.42862 2.83044C1.57862 3.29044 1.92862 3.95044 2.14862 4.42044C3.46862 7.31044 5.52862 10.8704 7.34862 13.2804C9.39862 16.0004 12.4286 18.4004 16.2686 18.4304C19.0186 18.4504 19.2186 18.5704 19.3386 16.8004Z" stroke="white"/>
</svg>
