<svg width="28" height="28" viewBox="0 0 28 28" fill="none" xmlns="http://www.w3.org/2000/svg">
<path fill-rule="evenodd" clip-rule="evenodd" d="M8.09277 10.5805C8.09277 11.5877 8.12663 11.9601 8.60059 12.8911C8.97298 13.6359 9.06608 13.6612 9.47233 14.2791L9.94629 14.9392C10.835 16.0141 10.5641 15.7263 11.5544 16.7166C12.8324 18.003 14.1357 18.6124 15.82 19.2218C17.2249 19.7296 18.4945 19.9497 19.7809 19.0017C20.3903 18.5532 20.7035 18.1131 20.7881 17.2921C20.8135 17.0551 20.8304 16.9028 20.8135 16.7674C20.7458 16.3611 20.1787 16.2596 19.5863 15.9633C18.9092 15.6248 17.7581 14.88 17.3688 15.2862L16.3701 16.5473C16.2008 16.7504 16.0231 16.8351 15.7269 16.7081C14.5335 16.2172 13.264 15.4301 12.4515 14.4568C12.1468 14.1013 11.9183 13.7797 11.6559 13.3904C11.3005 12.8572 11.1481 12.7303 11.6559 12.2309C11.8929 11.9939 12.3753 11.4269 12.3753 11.0291C12.3753 10.8429 12.2738 10.7159 12.2061 10.5805C12.1383 10.4366 12.096 10.2928 12.0283 10.1404L11.4613 8.78624C11.055 7.77908 11.0381 7.97374 10.4033 7.93143C9.63314 7.87218 9.3623 7.93989 8.76986 8.73546C8.44824 9.15018 8.09277 9.84419 8.09277 10.5805ZM1.54199 13.1704C1.54199 15.1 1.58431 15.9125 2.19368 17.7576C2.38835 18.35 2.83691 19.3657 3.17546 19.9327C3.40397 20.3136 3.35319 20.229 3.19238 20.6944C3.03158 21.1599 1.11035 26.6782 1.08496 26.9913C1.36426 26.9829 5.93457 25.5017 6.72168 25.2309C9.03223 24.4607 7.51725 24.8754 10.5557 25.8064C19.5101 28.5486 28.0921 21.0076 26.9919 12.2478C26.9326 11.7569 26.8649 11.3084 26.7633 10.8937C26.2979 8.93013 25.1891 6.57726 23.7757 5.1977C23.598 5.02843 23.5641 4.96072 23.4033 4.77453L21.6852 3.33573C20.8812 2.80252 20.5511 2.61632 19.6794 2.18468C18.5876 1.63455 17.2334 1.28755 16.0062 1.11828C14.6097 0.923615 13.137 0.974396 11.7406 1.26216C11.3089 1.34679 10.8942 1.44835 10.4795 1.58377C8.90527 2.10851 8.16048 2.48937 6.78939 3.42036L5.91764 4.12283C5.73991 4.27518 5.66374 4.31749 5.49447 4.49523C4.26725 5.73091 3.64095 6.46724 2.81152 8.12609C2.21061 9.36177 1.54199 11.3592 1.54199 13.1704Z" stroke="white"/>
</svg>
