<?xml version="1.0" encoding="utf-8"?><svg xmlns="http://www.w3.org/2000/svg" xmlns:xlink="http://www.w3.org/1999/xlink"><symbol viewBox="0 0 37 38" id="area" xmlns="http://www.w3.org/2000/svg"><path d="M24.86 5.293h7.143m0 0v7.144m0-7.144L4.572 32.724m0 0V25.58m0 7.144h7.144m13.144 0h7.143m0 0V25.58m0 7.144L4.572 5.293m0 0v7.144m0-7.144h7.144"/></symbol><symbol viewBox="0 0 72 26" id="arrow" xmlns="http://www.w3.org/2000/svg"><path d="M0 13.35h70.5m0 0l-11.922-12m11.922 12l-11.922 12"/></symbol><symbol viewBox="0 0 15 12" id="check" xmlns="http://www.w3.org/2000/svg"><path d="M1 5.95L5.034 10 14 1"/></symbol><symbol viewBox="0 0 9 6" id="checkbox" xmlns="http://www.w3.org/2000/svg"><path d="M1 2.714L3.545 5 8 1"/></symbol><symbol viewBox="0 0 14 14" id="close" xmlns="http://www.w3.org/2000/svg"><path d="M13 .999l-12 12m-.001-12l12 12"/></symbol><symbol viewBox="0 0 20 35" id="cube" xmlns="http://www.w3.org/2000/svg"><path d="M1.194 11L10 6.793 18.806 11 10 15.207 1.194 11zm0 12.711L10 19.504l8.806 4.207L10 27.918l-8.806-4.207zM19.5 11v12.5M.5 11v13M10 7v21"/></symbol><symbol viewBox="0 0 28 28" id="decoration" xmlns="http://www.w3.org/2000/svg"><path d="M27.022 1.78l-.802-.8a3.172 3.172 0 00-4.746.293l-6.023 8.483a1.36 1.36 0 01-2.07.174l-1.178-1.178a2.26 2.26 0 00-3.206 0l-1.6 1.601-6.412 6.405a.453.453 0 000 .64l9.615 9.615a.453.453 0 00.641 0l6.395-6.398c.004-.004.009-.005.013-.009l1.6-1.6a2.26 2.26 0 000-3.207l-1.178-1.178a1.358 1.358 0 01.174-2.07l8.502-6.038a3.173 3.173 0 00.275-4.731zM10.92 26.053l-.32-.32 3.524-3.525a.454.454 0 00-.32-.774.45.45 0 00-.32.133L9.958 25.09l-.32-.32 4.806-4.807a.453.453 0 00-.641-.64l-4.806 4.805-.641-.64 2.243-2.243a.453.453 0 00-.64-.64l-2.244 2.242-.32-.32 4.806-4.807a.453.453 0 10-.64-.64l-4.807 4.806-.32-.32 3.524-3.525a.453.453 0 10-.641-.641l-3.524 3.525-.32-.32 4.164-4.166a.453.453 0 00-.64-.64l-4.166 4.165-.64-.642 3.524-3.524a.453.453 0 00-.64-.641L3.55 18.681l-.32-.32 4.165-4.165a.453.453 0 00-.64-.64L2.59 17.72l-.642-.64 5.768-5.768 8.97 8.972-5.766 5.768zM27.042 4.155a2.256 2.256 0 01-.838 1.631L17.72 11.81a2.267 2.267 0 00-.29 3.45l1.178 1.178a1.355 1.355 0 010 1.923l-1.28 1.28-8.973-8.971L9.64 9.387a1.387 1.387 0 011.923 0l1.178 1.178a2.268 2.268 0 003.45-.29l6.016-8.466a2.266 2.266 0 013.373-.187l.802.802a2.271 2.271 0 01.66 1.732z"/></symbol><symbol viewBox="0 0 55 56" id="doc" xmlns="http://www.w3.org/2000/svg"><path d="M44.915 54.694v.5h.5v-.5h-.5zm-34.707 0h-.5v.5h.5v-.5zM1 24.944H.5v.5H1v-.5zm44.415 18.417a.5.5 0 00-1 0h1zm-1-11.33a.5.5 0 101-.005l-1 .004zm.382-26.8l-.498-.04-.002.021v.02l.5-.002zM53.061 25.3l-.429-.257-.028.047-.017.052.474.158zM42.436 46.904l.413.281-.413-.281zm-2.833-1.417l-.476-.154-.004.012-.003.012.483.13zM53.06 21.05l-.158.474.158-.474zm-3.446 3.262a.5.5 0 00.515-.858l-.515.858zm-9.777 8.617a.5.5 0 10.945.324l-.945-.324zm-8.025 13.175l.47-.172-.969.13.499.042zm.708 2.67h-.5l.984.126-.484-.125zm.945-3.642l.498.044-.982-.17.484.126zm1.181 3.157l.498.054.002-.027v-.027h-.5zm2.127-.971l.207-.455-.207.455zm-1.182.971v-.5h-.5v.5h.5zm9.323 5.905H10.208v1h34.707v-1zM10.708 5.82c0-.847-.25-2.107-1.015-3.17C8.91 1.564 7.609.717 5.604.717v1c1.679 0 2.68.689 3.277 1.519.617.856.827 1.898.827 2.585h1zM5.604.716c-2.005 0-3.306.847-4.089 1.935C.75 3.713.5 4.973.5 5.82h1c0-.688.21-1.73.827-2.586.597-.83 1.598-1.519 3.277-1.519v-1zM.5 5.82v19.125h1V5.82h-1zm10.208 48.874v-29.75h-1v29.75h1zm0-29.75V5.82h-1v19.125h1zm-9.708.5h9.208v-1H1v1zm44.415 29.25V43.36h-1v11.333h1zm0-22.668l-.118-26.798-1 .004.118 26.798 1-.004zm-.12-26.758c.069-.884-.2-2.008-.879-2.92-.694-.93-1.813-1.632-3.396-1.632v1c1.25 0 2.078.538 2.594 1.23.531.712.735 1.595.685 2.246l.997.076zM41.02.716H5.604v1H41.02v-1zm11.566 24.426c-1.523 4.57-6.344 15.293-10.563 21.48l.826.563c4.281-6.278 9.14-17.089 10.686-21.727l-.948-.316zm-10.563 21.48c-1.062 1.557-1.782 2.377-2.24 2.722-.24.182-.313.159-.272.163.104.012.11.099.073.002-.039-.104-.069-.293-.068-.58 0-.28.028-.612.079-.98a19.91 19.91 0 01.49-2.332l-.965-.26c-.21.78-.407 1.664-.516 2.455a8.43 8.43 0 00-.088 1.115c0 .33.03.66.132.932.104.278.328.594.75.642.357.04.698-.14.987-.358.602-.453 1.4-1.398 2.464-2.958l-.826-.563zm-1.945-.98a117.243 117.243 0 013.994-10.4c1.805-4.094 3.968-8.266 6.193-11.046l-.781-.625c-2.309 2.886-4.514 7.155-6.327 11.267a118.204 118.204 0 00-4.03 10.495l.951.309zm10.26-21.573c.091-.227.176-.454.257-.669.082-.217.16-.422.24-.616.161-.393.318-.709.497-.942.174-.226.354-.357.566-.415.218-.06.534-.06 1.005.097l.316-.948c-.592-.198-1.118-.242-1.585-.113-.474.13-.825.42-1.094.77-.263.341-.46.756-.63 1.17-.087.21-.17.429-.25.645-.083.218-.164.434-.25.65l.928.37zm2.565-2.545c.289.097.433.256.512.451.088.218.11.521.054.897-.11.754-.5 1.61-.837 2.17l.858.515c.371-.62.832-1.605.969-2.54.069-.467.064-.97-.118-1.418-.19-.47-.56-.836-1.122-1.023l-.316.948zm-14.1 28.343l-.71 1.416.895.448.709-1.417-.895-.447zm14.462-25.024l-3.188-1.417-.406.914 3.188 1.416.406-.913zm-5.387 2.32l3.541 1.771.448-.894-3.542-1.77-.447.893zM39.76 45.947l2.48 1.062.393-.919-2.479-1.062-.394.919zm10.37-22.492c-1.07-.641-2.82-.791-4.71.503-1.87 1.282-3.866 3.966-5.582 8.972l.945.324c1.684-4.91 3.585-7.362 5.202-8.47 1.6-1.096 2.929-.892 3.63-.471l.515-.858zm-11.944 3.47H16.23v1h21.957v-1zm0-7.083H16.23v1h21.957v-1zM30 30.5H16v1h14v-1zm-4.563-7.117h-9.209v1h9.209v-1zm0-15.583h-9.209v1h9.209v-1zm12.75 0h-2.834v1h2.834v-1zm-10.75 43.402a3.46 3.46 0 002.878-.593c1.009-.747 1.8-2.136 1.996-4.463l-.997-.084c-.18 2.14-.886 3.22-1.594 3.744a2.462 2.462 0 01-2.035.427l-.249.969zm3.906-4.927c.278.762.45 1.35.55 1.773.105.434.128.666.128.727h1c0-.183-.047-.509-.155-.96a17.502 17.502 0 00-.584-1.883l-.939.343zm1.662 2.625l.945-3.642-.968-.251-.945 3.642.968.251zm-.037-3.812c-.08.9-.163 2.252-.155 3.387.004.563.03 1.096.098 1.498.033.197.082.399.163.564.067.139.253.438.629.438v-1c.234 0 .3.187.27.124a1.23 1.23 0 01-.076-.292c-.054-.321-.08-.79-.084-1.34-.008-1.09.073-2.409.151-3.29l-.996-.089zm.735 5.887c.376 0 .631-.244.778-.443.153-.207.265-.467.35-.715a7.353 7.353 0 00.314-1.474l-.995-.108c-.037.343-.125.85-.265 1.258-.07.208-.144.357-.21.446-.07.097-.066.036.028.036v1zm1.444-2.686c0-.25.088-.507.24-.632.11-.088.414-.234 1.179.116l.415-.91c-.936-.428-1.695-.411-2.224.018-.484.394-.61 1.01-.61 1.408h1zm1.419-.516c.197.09.324.163.4.217.088.062.064.068.037.006a.34.34 0 01-.022-.184.34.34 0 01.07-.163c.041-.05.066-.045 0-.02-.119.047-.335.09-.62.12-.275.028-.576.04-.839.04v1c.289 0 .624-.013.94-.045.305-.031.634-.085.885-.184a.988.988 0 00.407-.276.662.662 0 00.146-.322.662.662 0 00-.05-.363c-.082-.19-.238-.327-.374-.424a3.483 3.483 0 00-.565-.312l-.415.91zm-1.474.516v1.943h1v-1.943h-1z"/></symbol><symbol viewBox="0 0 41 53" id="docSecond" xmlns="http://www.w3.org/2000/svg"><path d="M33.039 45.581v6.012H1.016V.5h39v44.581h-6.977v.5zM5.632 32.093h27.442m-27.907-20h7.442M5.167 26.047h17.674m7.442-13.954h2.79M5.167 36.28h22.326M5.167 40.93h27.907m6.977 4.186l-6.977 6.512"/></symbol><symbol viewBox="0 0 51 61" id="docThird" xmlns="http://www.w3.org/2000/svg"><path d="M42.038 53.58v6.012H10.015V8.5h39v44.582h-6.977v.5z"/><path d="M10.118 58.983L1.516 7.605 40.966 1l.941 5.62.236 1.404M14.63 40.092h27.443M14.63 27h27.443M14.63 14h27.443M14.166 44.278h22.326M14.166 31.185h22.326m-22.326-13h22.326M14.166 35.836h27.907m-27.907-13h27.907m6.976 30.28l-6.977 6.511"/><path d="M14.516 51.5l2.333 2.5 4.667-5"/></symbol><symbol viewBox="0 0 53 68" id="docsFirst" xmlns="http://www.w3.org/2000/svg"><path d="M49.28 2.537H50a2 2 0 012 2v60.659a2 2 0 01-2 2H4.536c-1.104 0-2-.847-2-1.951v-.743"/><rect x=".5" y=".5" width="48.463" height="63.683" rx="1.5"/><rect x="5.573" y="16.988" width="38.317" height="11.683" rx="1.5"/><rect x="5.573" y="33.476" width="16.756" height="2.805" rx="1.402"/><rect x="27.135" y="9.378" width="16.756" height="4.073" rx="1.5"/><rect x="5.573" y="53.768" width="38.317" height="4.073" rx="1.5"/><rect x="5.573" y="39.817" width="16.756" height="4.073" rx="1.5"/><path d="M5.073 0v11.415l3.171-2.283 3.17 2.283V.254"/></symbol><symbol viewBox="0 0 53 68" id="docsSecond" xmlns="http://www.w3.org/2000/svg"><path d="M49.28 2.755H50a2 2 0 012 2v60.66a2 2 0 01-2 2H4.536c-1.104 0-2-.847-2-1.952v-.743"/><rect x=".5" y=".719" width="48.463" height="63.683" rx="1.5"/><rect x="4.305" y="17.206" width="39.585" height="11.683" rx="1.5"/><rect x="4.305" y="53.987" width="39.585" height="4.073" rx="1.5"/><rect x="4.305" y="47.646" width="18.024" height="2.805" rx="1.402"/><path d="M38.049.219v11.414l3.17-2.283 3.171 2.283V.473"/></symbol><symbol viewBox="0 0 53 69" id="docsThird" xmlns="http://www.w3.org/2000/svg"><path d="M49.28 2.975H50a2 2 0 012 2v60.66a2 2 0 01-2 2H4.536c-1.104 0-2-.847-2-1.952v-.743"/><rect x=".5" y=".938" width="48.463" height="63.683" rx="1.5"/><rect x="5.573" y="17.426" width="38.317" height="11.683" rx="1.5"/><rect x="5.573" y="33.914" width="16.756" height="2.805" rx="1.402"/><rect x="5.573" y="54.206" width="16.756" height="4.073" rx="1.5"/><rect x="5.573" y="9.816" width="16.756" height="4.073" rx="1.5"/></symbol><symbol viewBox="0 0 16 9" id="down" xmlns="http://www.w3.org/2000/svg"><path d="M1 1l7 7 7-7"/></symbol><symbol viewBox="0 0 14 11" id="download" xmlns="http://www.w3.org/2000/svg"><path d="M1 4l6 6m0 0l6-6m-6 6V0"/></symbol><symbol viewBox="0 0 512 512" id="email" xmlns="http://www.w3.org/2000/svg"><path d="M0 64v384h512V64H0zm256 202.938L56.578 96h398.859L256 266.938zm0 42.124l62.406-53.469L458.75 416H53.266L193.61 255.594 256 309.062zm224 82.657L342.688 234.781 480 117.063v274.656zM169.313 234.75L32 391.688V117.063L169.313 234.75z"/></symbol><symbol viewBox="0 0 17 31" id="fb" xmlns="http://www.w3.org/2000/svg"><path clip-rule="evenodd" d="M15.557 11.038h-4.405v-2.86c.319-2.708 4.897-2.19 4.897-2.19V1.337c-.154-.038-9.108-2.115-10.875 4.54v.009c0 .019-.01.028-.01.047-.28.83-.26 4.644-.26 5.116H1.087v5.097h4.057V30h5.91V16.135h4.521l.512-5.097h-.531z"/></symbol><symbol viewBox="0 0 62 55" id="home" xmlns="http://www.w3.org/2000/svg"><path d="M2.833 24.5a.5.5 0 01-.314-.89L30.686.896a.5.5 0 01.628 0L59.48 23.611a.5.5 0 01-.314.889H54a1.5 1.5 0 00-1.5 1.5v28a.5.5 0 01-.5.5H10a.5.5 0 01-.5-.5V26A1.5 1.5 0 008 24.5H2.833zm34.913 2.046l-12.663 15.48"/><circle cx="25.221" cy="29.221" r="2.5" transform="rotate(39.283 25.221 29.221)"/><circle cx="37.606" cy="39.352" r="2.5" transform="rotate(39.283 37.606 39.352)"/></symbol><symbol viewBox="0 0 81 81" id="homekey" xmlns="http://www.w3.org/2000/svg"><circle cx="14.555" cy="48.194" r="1.5"/><path d="M6.391 54.98v-.5H3.058l.01-1.515 2.86-2.487.758-.659.172-.15v-5.081h1.297l-.023 2.874-.01 1.11.838-.728 5.737-4.988 11.788 10.107-.029 1.517H23v11.215h-5.084v-8.972h-6.44v8.972H6.391V54.98zM42.77 35.913l23.14 23.392-.03 5.474m0 0L45.046 43.505M65.88 64.78l-9.263-.26-.186-4.423-4.423.186-2.722-2.752.339-4.314-7.145-2.566-7.223-7.514"/><circle cx="23.274" cy="23.471" r="2.721" transform="rotate(-78.378 23.274 23.471)"/><circle cx="29.446" cy="29.445" r="14.531" transform="rotate(-78.378 29.446 29.445)"/><path d="M12.788 43.306a.5.5 0 10.995.106l-.995-.106zm3.33-9.192a.5.5 0 00-.941-.338l.94.338zm-2.1 12.755a.5.5 0 10-.85.528l.85-.528zm6.543-23.524a.5.5 0 00.755.656l-.755-.656zm.417 12.515c-1.235 3.438-2.67 6.42-3.984 8.46-.659 1.024-1.272 1.786-1.798 2.253-.263.233-.485.374-.66.444-.172.07-.27.058-.322.04l-.338.94c.347.125.704.08 1.03-.05.322-.129.641-.35.953-.626.624-.554 1.295-1.403 1.976-2.46 1.366-2.12 2.832-5.176 4.084-8.663l-.94-.338zm1.904-12.942c.053.02.135.072.224.235.09.166.172.416.226.763.11.694.097 1.673-.045 2.882-.285 2.41-1.074 5.624-2.309 9.062l.941.338c1.253-3.488 2.065-6.777 2.36-9.282.148-1.25.17-2.331.041-3.155-.064-.412-.17-.785-.337-1.09-.169-.307-.416-.57-.763-.694l-.338.941zm-9.1 20.494c.26-2.433 1.06-5.745 2.336-9.298l-.941-.338c-1.294 3.603-2.119 6.995-2.389 9.53l.995.106zm.432 3.644c-.049-.017-.118-.062-.197-.187l-.849.528c.166.266.397.489.708.6l.338-.94zm7.102-23.055c.4-.461.752-.772 1.043-.944.296-.174.453-.164.523-.139l.338-.941c-.47-.17-.953-.027-1.37.22-.421.249-.855.648-1.29 1.148l.756.656z"/></symbol><symbol viewBox="0 0 55 56" id="houses" xmlns="http://www.w3.org/2000/svg"><path d="M21.9 6.234V54.5H3.55V.674l18.35 5.56zM34.683 16.48V54.5h-11.9V12.87l11.9 3.61zm7.975 8.712V54.5h-7.092V22.533l7.092 2.66zM0 54.941h54.18M3.34 12.079h8.326M3.34 17.708h8.326m10.734 0h7.154M3.34 23.336h8.326m10.734 0h7.154M3.34 28.966h8.326m10.734 0h7.154m5.63 0h3.87M3.34 34.595h8.326m10.734 0h7.154m5.63 0h3.87M3.34 40.224h8.326m10.734 0h7.154m5.63 0h3.87M3.34 45.852h8.326m10.734 0h7.154m5.63 0h3.87M3.34 51.482h8.326m10.734 0h7.154m5.63 0h3.87m10.378 3.401v-6.157m2.84-3.694c0 1.166-.352 2.203-.897 2.936-.545.733-1.259 1.138-2.003 1.138-.745 0-1.459-.405-2.004-1.138-.545-.734-.897-1.77-.897-2.936s.352-2.202.897-2.936c.545-.733 1.259-1.137 2.004-1.137.744 0 1.458.404 2.003 1.137.545.734.897 1.77.897 2.936z"/></symbol><symbol viewBox="0 0 27 28" id="inst" xmlns="http://www.w3.org/2000/svg"><path d="M7.876 1.161c-1.356.058-2.265.273-3.053.578A5.965 5.965 0 002.654 3.15a5.965 5.965 0 00-1.41 2.169h-.001c-.306.788-.52 1.69-.578 3.052-.06 1.402-.077 1.842-.077 5.43 0 3.586.017 4.026.077 5.428L7.876 1.16zm0 0c1.35-.06 1.815-.077 5.1-.077h.655c3.286 0 3.742.017 5.101.077 1.364.058 2.265.273 3.053.578a5.965 5.965 0 012.169 1.411c.68.68 1.099 1.36 1.411 2.169.306.788.52 1.69.578 3.052v.001c.06 1.35.077 1.816.077 5.101v.654c0 3.286-.017 3.742-.077 5.101-.058 1.364-.272 2.265-.578 3.053a5.966 5.966 0 01-1.411 2.169 5.965 5.965 0 01-2.169 1.411c-.788.306-1.689.52-3.052.578-1.402.06-1.842.077-5.429.077s-4.027-.017-5.429-.077c-1.363-.058-2.264-.272-3.052-.578a5.965 5.965 0 01-2.169-1.411 5.965 5.965 0 01-1.41-2.168l-.001-.001M7.876 1.16L1.243 22.28m0 0c-.305-.787-.52-1.697-.578-3.052l.578 3.052zM21.448 6.749c0 .6-.489 1.084-1.084 1.084-.6 0-1.084-.49-1.084-1.084 0-.6.489-1.085 1.084-1.085a1.08 1.08 0 011.084 1.085zm-1.084 2.084a2.085 2.085 0 002.084-2.084 2.08 2.08 0 00-2.084-2.085A2.086 2.086 0 0018.28 6.75c0 1.144.928 2.084 2.084 2.084zm-7.06 8.884a3.906 3.906 0 01-3.908-3.908A3.906 3.906 0 0113.304 9.9a3.906 3.906 0 013.908 3.909 3.906 3.906 0 01-3.908 3.908zm-4.908-3.908a4.906 4.906 0 004.908 4.908 4.906 4.906 0 004.908-4.908A4.906 4.906 0 0013.304 8.9a4.906 4.906 0 00-4.908 4.909z"/></symbol><symbol viewBox="0 0 59.876 42.377" id="key" xmlns="http://www.w3.org/2000/svg"><path d="M30.3 17.83L1.895 34.436.507 39.732m0 0l25.63-15.157M.508 39.732l9.015 2.145 1.325-4.224 4.223 1.325 3.342-1.954.79-4.255 7.565-.629 8.922-5.388"/><circle r="2.721" transform="scale(1 -1) rotate(86.622)" cx="-7.754" cy="-52.901"/><circle r="14.531" transform="scale(1 -1) rotate(86.622)" cx="-12.362" cy="-45.653"/></symbol><symbol viewBox="0 0 77 88" id="lock" xmlns="http://www.w3.org/2000/svg"><rect x="1" y="44.857" width="75" height="42" rx="5.286"/><path d="M60 44V22.5C60 10.626 50.374 1 38.5 1S17 10.626 17 22.5V44"/><circle cx="37.714" cy="61.143" r="5.286"/><path d="M37.858 77V67m-1.856 5.143h1.571"/></symbol><symbol viewBox="0 0 89 89" id="louope" xmlns="http://www.w3.org/2000/svg"><circle cx="44.539" cy="44.13" r="21.512"/><path d="M61 43.5C61 52.613 53.613 60 44.5 60m.04 6.143v16.384"/></symbol><symbol viewBox="0 0 64 64" id="map" xmlns="http://www.w3.org/2000/svg"><path d="M14.741 32.354l-.013.02a.286.286 0 01-.229.126.286.286 0 01-.229-.126l-.011-.018a87.754 87.754 0 01-4.007-6.875c-.957-1.837-1.899-3.838-2.6-5.747-.706-1.918-1.153-3.704-1.153-5.124 0-4.473 3.602-8.11 8-8.11 4.408 0 8 3.627 8 8.11 0 1.423-.447 3.21-1.152 5.128-.702 1.91-1.644 3.91-2.601 5.747a87.666 87.666 0 01-4.005 6.869z"/><circle cx="14.499" cy="14.5" r="3"/><path d="M.499.5h63v63h-63zm50.5 3.5v56m-25-56v56m34-9h-56m56-25h-38m-14 0h-4"/></symbol><symbol viewBox="0 0 16 16" id="next" xmlns="http://www.w3.org/2000/svg"><path d="M14.594 7.822L1.804 1.804l4.264 6.018m8.526 0l-12.79 6.771 4.264-6.77"/></symbol><symbol viewBox="0 0 26 28" id="paperclip" xmlns="http://www.w3.org/2000/svg"><path d="M23.856 17.257l-2.07-2.07-9.319-9.319a4.393 4.393 0 00-6.212 6.212l9.318 9.321a.976.976 0 101.38-1.38L7.637 10.7a2.44 2.44 0 113.45-3.451l9.321 9.318 2.071 2.07a4.394 4.394 0 11-6.215 6.213l-1.725-1.726-9.664-9.663-.69-.69a6.346 6.346 0 018.973-8.974l10.354 10.354a.977.977 0 001.38-1.38L14.539 2.417a8.297 8.297 0 00-11.72.013 8.297 8.297 0 00-.014 11.721l10.353 10.354 1.728 1.726a6.346 6.346 0 008.971-8.974z"/></symbol><symbol id="partner" viewBox="0 0 60.2 66" xml:space="preserve" xmlns="http://www.w3.org/2000/svg"><style>.bbst0{fill:none;stroke:#fff}</style><circle class="bbst0" cx="30.1" cy="33" r="4"/><path class="bbst0" d="M37.8 60.8c4.8-5.5 8-15.9 8-27.8 0-17.7-7.2-32-16-32s-16 14.3-16 32 7.2 32 16 32c1.1 0 2.2-.2 3.2-.6"/><path class="bbst0" d="M52.3 12.9c-7.1-2.6-19-.4-30.5 6.3C6.5 28-2.3 41.3 2.1 49c4.4 7.7 20.4 6.7 35.7-2.1C53.2 38 62 24.7 57.6 17c-.3-.5-.6-.9-1-1.3"/><path class="bbst0" d="M2.9 16c-.3.3-.5.7-.7 1-4.4 7.7 4.4 21 19.7 29.9 15.3 8.8 31.3 9.8 35.7 2.1s-4.4-21-19.7-29.9c-11.3-6.5-22.9-8.7-30-6.4"/><circle class="bbst0" cx="5.4" cy="14.5" r="3"/><circle class="bbst0" cx="54.4" cy="14.5" r="3"/><circle class="bbst0" cx="35.4" cy="62.5" r="3"/></symbol><symbol viewBox="0 0 25 24" id="phone" xmlns="http://www.w3.org/2000/svg"><path d="M18.38 15.547l.005.001c1.474.468 3.028.705 4.609.705.85 0 1.506.66 1.506 1.426v4.395c0 .767-.657 1.426-1.506 1.426C10.572 23.5.5 13.803.5 1.926.5 1.159 1.157.5 2.006.5h4.591c.85 0 1.506.66 1.506 1.426 0 1.523.249 3.019.739 4.445a1.386 1.386 0 01-.37 1.446l-.025.024-.022.028-2.06 2.629-.203.26.16.29c1.766 3.196 3.848 5.192 7.194 6.907l.273.14.248-.18 2.811-2.037.03-.023.028-.026c.13-.128.356-.25.643-.311a1.62 1.62 0 01.832.029z"/></symbol><symbol viewBox="0 0 22 19" id="picture" xmlns="http://www.w3.org/2000/svg"><path d="M9.964 8.572a2.208 2.208 0 002.198-2.213c0-1.22-.986-2.213-2.198-2.213a2.208 2.208 0 00-2.197 2.213c0 1.22.986 2.213 2.197 2.213zm0-3.128c.502 0 .91.41.91.915a.913.913 0 01-.91.915.913.913 0 01-.908-.915c0-.505.407-.915.908-.915z"/><path d="M21.197 0H.803A.807.807 0 000 .809V18.19c0 .446.36.809.803.809h20.394A.807.807 0 0022 18.19V.81a.807.807 0 00-.803-.81zm-.486 1.298V11.57l-4.054-4.082a.676.676 0 00-.959 0l-5.733 5.774-3.663-3.688a.671.671 0 00-.96 0L1.29 13.656V1.298h19.422zM1.289 17.702v-2.21l4.533-4.565 3.663 3.688a.672.672 0 00.959 0l5.734-5.774 4.533 4.565v4.296H1.29z"/></symbol><symbol viewBox="0 0 14 16" id="play" xmlns="http://www.w3.org/2000/svg"><path d="M1 1l12 7-12 7V1z"/></symbol><symbol viewBox="0 0 15 16" id="prev" xmlns="http://www.w3.org/2000/svg"><path d="M.59 8.36l12.79 6.018L9.115 8.36m-8.525 0l12.79-6.771-4.264 6.77"/></symbol><symbol viewBox="0 0 64 63" id="roller" xmlns="http://www.w3.org/2000/svg"><rect x=".5" y=".5" width="57" height="22" rx="2.5"/><path d="M34.32 34.5a2.5 2.5 0 012.496 2.34l1.48 23a2.5 2.5 0 01-2.495 2.66H28.2a2.5 2.5 0 01-2.495-2.66l1.48-23a2.5 2.5 0 012.495-2.34h4.64z"/><path d="M58 10.5h2.5c.834 0 2.5.5 2.5 2.5v10c0 2-.7 2.7-3.5 3.5-2.8.8-19.5 4-27.5 5.5v2.5M21.944 5.62l-3.257 11.76M30.63 5.62l-3.258 11.76M39.315 5.62l-3.257 11.76M48 5.62l-3.256 11.76M13.258 5.62l-3.257 11.76"/></symbol><symbol viewBox="0 0 18 23" id="rub" xmlns="http://www.w3.org/2000/svg"><path d="M11.206 13.363H5.23v3.342h8.548v1.414H5.23v4.467H3.494v-4.467H.602v-1.414h2.892v-3.342H.602v-1.606h2.892V.092h7.712c1.821 0 3.385.653 4.692 1.96 1.307 1.307 1.96 2.87 1.96 4.692 0 1.82-.653 3.385-1.96 4.691-1.307 1.286-2.87 1.928-4.692 1.928zM5.23 1.7v10.058h5.977c1.371 0 2.539-.482 3.503-1.446.964-.986 1.446-2.175 1.446-3.567 0-1.393-.482-2.582-1.446-3.567-.964-.986-2.132-1.478-3.503-1.478H5.23z"/></symbol><symbol viewBox="0 0 56 63" id="smile" xmlns="http://www.w3.org/2000/svg"><path d="M12.97 51.855l.093-.347-.3-.199C5.37 46.38.5 37.964.5 28.412.5 13.224 12.812.912 28 .912s27.5 12.312 27.5 27.5-12.312 27.5-27.5 27.5c-1.493 0-2.958-.119-4.386-.348l-.194-.03-.163.109c-4.686 3.136-8.282 4.522-11.128 5.175-2.022.464-3.645.56-5.076.644l-.41.025a39.473 39.473 0 003.988-5.127c1.242-1.903 2.09-3.58 2.338-4.505z"/><path d="M43.986 33.756c-.33 6.673-7.256 12.167-15.985 12.167S12.347 40.43 12.016 33.756h31.97zM32.69 21.903a5.297 5.297 0 1110.595 0m-30.571 0a5.297 5.297 0 0110.595 0"/></symbol><symbol viewBox="0 0 31 28" id="sucsess" xmlns="http://www.w3.org/2000/svg"><circle cx="13.5" cy="14.5" r="13"/><path d="M7 12.4l5.714 5.6L30 1"/></symbol><symbol viewBox="0 0 30 25" id="tg" xmlns="http://www.w3.org/2000/svg"><path d="M11.806 15.985l-.476 6.476c.68 0 .975-.283 1.329-.623l3.191-2.951 6.613 4.686c1.212.654 2.067.31 2.394-1.08l4.34-19.682h.002c.384-1.736-.649-2.414-1.83-1.988L1.856 10.275c-1.742.654-1.715 1.593-.296 2.019l6.522 1.963 15.151-9.174c.713-.457 1.361-.204.828.253l-12.255 10.65z"/></symbol><symbol viewBox="0 0 33 19" id="vk" xmlns="http://www.w3.org/2000/svg"><path fill-rule="evenodd" clip-rule="evenodd" d="M19.339 16.8c.08-1.23.64-3.15 2.02-2.1.84.63 1.5 1.55 2.26 2.35.73.78 1.61 1.47 3.25 1.43.97-.02 3.75.07 4.48-.2 2.19-.8-1.69-4.43-2.64-5.24-.4-.34-.85-.83-1.19-1.19-.42-.45-.63-.9-.29-1.6l1.47-2.07c.43-.48 2.04-2.78 2.43-3.41.56-.91 1.71-2.69.23-2.98-.83-.16-3.54-.01-4.57 0-2.03.01-1.61-.21-2.62 2.1-.67 1.54-2.72 5.16-3.81 5.57-2.02.77-.44-6.56-1.29-7.83-.52-.77-2.91-.67-4.03-.66-1.3.02-3.1.08-3.48 1.16.12.1-.01.03.21.12.16.07.41.08.69.23.24.13.47.36.59.56.61.98.54 5.12.03 6.12-.95 1.87-3.73-3.39-4.21-4.33-.68-1.34-.95-2.64-1.72-2.97-.56-.24-3.72-.11-4.57-.09-.78.01-1.45.14-1.15 1.06.15.46.5 1.12.72 1.59 1.32 2.89 3.38 6.45 5.2 8.86 2.05 2.72 5.08 5.12 8.92 5.15 2.75.02 2.95.14 3.07-1.63z"/></symbol><symbol viewBox="0 0 28 28" id="wa" xmlns="http://www.w3.org/2000/svg"><path fill-rule="evenodd" clip-rule="evenodd" d="M8.093 10.58c0 1.008.034 1.38.508 2.311.372.745.465.77.871 1.388l.474.66c.889 1.075.618.787 1.608 1.778 1.278 1.286 2.582 1.895 4.266 2.505 1.405.508 2.674.728 3.96-.22.61-.449.923-.889 1.008-1.71.026-.237.042-.39.026-.525-.068-.406-.635-.507-1.228-.804-.677-.338-1.828-1.083-2.217-.677l-.999 1.261c-.17.203-.347.288-.643.161-1.194-.49-2.463-1.278-3.276-2.251a10.914 10.914 0 01-.795-1.067c-.356-.533-.508-.66 0-1.16.237-.236.72-.803.72-1.2 0-.187-.102-.314-.17-.45-.068-.143-.11-.287-.178-.44l-.567-1.354c-.406-1.007-.423-.812-1.058-.855-.77-.059-1.04.009-1.633.804-.322.415-.677 1.11-.677 1.846zm-6.551 2.59c0 1.93.042 2.742.652 4.588.194.592.643 1.608.981 2.175.229.38.178.296.017.761-.16.466-2.082 5.984-2.107 6.297.28-.008 4.85-1.49 5.637-1.76 2.31-.77.795-.356 3.834.575 8.954 2.743 17.536-4.798 16.436-13.558a11.58 11.58 0 00-.229-1.354c-.465-1.964-1.574-4.317-2.987-5.696-.178-.17-.212-.237-.373-.423l-1.718-1.44a14.698 14.698 0 00-2.006-1.15c-1.091-.55-2.446-.897-3.673-1.067a12.684 12.684 0 00-4.265.144 10.58 10.58 0 00-1.261.322c-1.575.525-2.32.905-3.69 1.836l-.872.703c-.178.152-.254.194-.424.372-1.227 1.236-1.853 1.972-2.682 3.631-.601 1.236-1.27 3.233-1.27 5.044z"/></symbol><symbol viewBox="0 0 53 55" id="window" xmlns="http://www.w3.org/2000/svg"><path d="M7.5 4.5h38v46h-38z"/><path d="M2.5.5h48v50h-48zm-2 50h52v4H.5z"/><path d="M8 5l11 5.968v35.107L10.594 50M45 5l-11 5.968v35.107L42.406 50"/></symbol></svg>