<svg width="172" height="64" viewBox="0 0 172 64" fill="none" xmlns="http://www.w3.org/2000/svg">
<path d="M29.8829 45.32C29.8829 49.0328 29.5588 51.8911 28.9105 53.8948C28.3212 55.8985 27.2899 57.6665 25.8165 59.1988C23.3413 61.7329 19.4812 63 14.2361 63H0.710922V0.0591978H14.2361C19.4223 0.0591978 23.2529 1.32626 25.7281 3.8604C27.0836 5.2748 28.0265 6.92493 28.5569 8.8108C29.1463 10.6377 29.4409 13.2308 29.4409 16.59C29.4409 21.6583 28.2033 25.4005 25.7281 27.8168C24.7263 28.8187 23.5476 29.6143 22.1921 30.2036C23.6065 30.6161 24.9031 31.3823 26.0817 32.502C27.614 33.9753 28.6159 35.7139 29.0873 37.7176C29.6177 39.7213 29.8829 42.2555 29.8829 45.32ZM22.2805 44.878C22.2805 40.8705 21.5733 37.9828 20.1589 36.2148C18.8035 34.4468 16.6819 33.5628 13.7941 33.5628H8.31332V56.1932H13.7941C16.7408 56.1932 18.8919 55.3681 20.2473 53.718C21.6028 52.0089 22.2805 49.0623 22.2805 44.878ZM21.8385 16.9436C21.8385 13.2308 21.2197 10.6377 19.9821 9.1644C18.7445 7.63213 16.7113 6.86599 13.8825 6.86599H8.31332V27.0212H13.8825C16.5935 27.0212 18.5972 26.2256 19.8937 24.6344C21.1903 23.0432 21.8385 20.4796 21.8385 16.9436ZM68.5434 48.6792C68.5434 53.2171 67.188 56.8415 64.477 59.5524C61.7072 62.3223 58.2006 63.7072 53.9574 63.7072C49.7732 63.7072 46.2961 62.3223 43.5262 59.5524C40.8153 56.8415 39.4598 53.2171 39.4598 48.6792V0.0591978H47.0622V49.1212C47.0622 51.5375 47.7105 53.4528 49.007 54.8672C50.3625 56.2227 52.0126 56.9004 53.9574 56.9004C55.9612 56.9004 57.6113 56.2227 58.9078 54.8672C60.2633 53.4528 60.941 51.5375 60.941 49.1212V0.0591978H68.5434V48.6792ZM110.119 63H103.224L86.9583 19.9492V63H79.3559V0.0591978H86.4279L102.517 43.11V0.0591978H110.119V63ZM129.086 63H121.484V0.0591978H129.086V63ZM171.239 63H164.344L148.079 19.9492V63H140.476V0.0591978H147.548L163.637 43.11V0.0591978H171.239V63Z" fill="white"/>
</svg>
