<svg width="55" height="56" viewBox="0 0 55 56" fill="none" xmlns="http://www.w3.org/2000/svg">
<path d="M44.9154 54.6939V55.1939H45.4154V54.6939H44.9154ZM10.2081 54.6939H9.70807V55.1939H10.2081V54.6939ZM1 24.9448H0.5V25.4448H1V24.9448ZM45.4154 43.3609C45.4154 43.0848 45.1915 42.8609 44.9154 42.8609C44.6393 42.8609 44.4154 43.0848 44.4154 43.3609H45.4154ZM44.4154 32.0301C44.4166 32.3063 44.6415 32.5291 44.9176 32.5279C45.1937 32.5267 45.4166 32.3019 45.4154 32.0257L44.4154 32.0301ZM44.7973 5.23008L44.2988 5.19173L44.2973 5.21198L44.2974 5.23228L44.7973 5.23008ZM53.0608 25.2999L52.6321 25.0426L52.6039 25.0897L52.5865 25.1418L53.0608 25.2999ZM42.4361 46.9038L42.8493 47.1855L42.4361 46.9038ZM39.6029 45.4872L39.1274 45.3326L39.1234 45.3448L39.1201 45.3572L39.6029 45.4872ZM53.0608 21.0501L52.9028 21.5244H52.9028L53.0608 21.0501ZM49.6155 24.3116C49.8523 24.4537 50.1594 24.3769 50.3015 24.1402C50.4436 23.9034 50.3668 23.5962 50.13 23.4542L49.6155 24.3116ZM39.8376 32.9288C39.748 33.19 39.8872 33.4744 40.1484 33.5639C40.4096 33.6535 40.694 33.5143 40.7835 33.2531L39.8376 32.9288ZM31.8127 46.1036L32.2824 45.9323L31.3145 46.0615L31.8127 46.1036ZM32.5214 48.7748H32.0214L33.0054 48.9003L32.5214 48.7748ZM33.4663 45.1323L33.9644 45.1764L32.9823 45.0068L33.4663 45.1323ZM34.6475 48.2891L35.1446 48.3428L35.1475 48.316V48.2891H34.6475ZM36.7736 47.3178L36.9813 46.863L36.7736 47.3178ZM35.5924 48.2891V47.7891H35.0924V48.2891H35.5924ZM44.9154 54.1939H10.2081V55.1939H44.9154V54.1939ZM10.7081 5.82034C10.7081 4.97299 10.458 3.7131 9.69303 2.65067C8.90972 1.56275 7.60861 0.716309 5.60403 0.716309V1.71631C7.28269 1.71631 8.28359 2.40455 8.88149 3.23497C9.49776 4.09089 9.70807 5.13301 9.70807 5.82034H10.7081ZM5.60403 0.716309C3.59946 0.716309 2.29834 1.56275 1.51504 2.65067C0.750092 3.7131 0.5 4.97299 0.5 5.82034H1.5C1.5 5.13301 1.71031 4.09089 2.32657 3.23497C2.92448 2.40455 3.92538 1.71631 5.60403 1.71631V0.716309ZM0.5 5.82034V24.9448H1.5V5.82034H0.5ZM10.7081 54.6939V24.9448H9.70807V54.6939H10.7081ZM10.7081 24.9448V5.82034H9.70807V24.9448H10.7081ZM1 25.4448H10.2081V24.4448H1V25.4448ZM45.4154 54.6939V43.3609H44.4154V54.6939H45.4154ZM45.4154 32.0257L45.2973 5.22788L44.2974 5.23228L44.4154 32.0301L45.4154 32.0257ZM45.2959 5.26843C45.3639 4.38433 45.0956 3.26033 44.4161 2.34886C43.7221 1.41782 42.6029 0.716309 41.0197 0.716309V1.71631C42.2697 1.71631 43.0984 2.25434 43.6144 2.94652C44.145 3.65827 44.3489 4.54115 44.2988 5.19173L45.2959 5.26843ZM41.0197 0.716309H5.60403V1.71631H41.0197V0.716309ZM52.5865 25.1418C51.0632 29.7117 46.2417 40.4348 42.023 46.6222L42.8493 47.1855C47.1303 40.9066 51.9891 30.0962 53.5352 25.458L52.5865 25.1418ZM42.023 46.6222C40.9615 48.179 40.241 48.9994 39.7833 49.3445C39.5431 49.5256 39.47 49.5027 39.5106 49.5073C39.6151 49.5191 39.6204 49.6056 39.5842 49.5088C39.5455 49.4052 39.5154 49.216 39.5156 48.9281C39.5158 48.6498 39.5439 48.3166 39.5947 47.9482C39.696 47.2118 39.8826 46.3716 40.0857 45.6172L39.1201 45.3572C38.91 46.1375 38.7129 47.0209 38.604 47.8118C38.5496 48.207 38.5159 48.5884 38.5156 48.9274C38.5154 49.2569 38.5462 49.5879 38.6476 49.8591C38.7516 50.1372 38.9764 50.453 39.3978 50.5009C39.7551 50.5415 40.0961 50.361 40.3853 50.1429C40.9865 49.6897 41.7858 48.7452 42.8493 47.1855L42.023 46.6222ZM40.0784 45.6418C40.8415 43.2941 42.2702 39.3258 44.0716 35.2411C45.877 31.1476 48.04 26.9762 50.2646 24.1955L49.4837 23.5708C47.175 26.4567 44.9699 30.7262 43.1567 34.8376C41.3395 38.9578 39.8992 42.9582 39.1274 45.3326L40.0784 45.6418ZM50.3384 24.0689C50.4292 23.8418 50.5141 23.6153 50.5951 23.4003C50.6769 23.1832 50.7547 22.9781 50.8345 22.7838C50.996 22.3905 51.1528 22.0753 51.3324 21.8417C51.5057 21.6162 51.6859 21.4852 51.898 21.4271C52.1165 21.3672 52.4317 21.3675 52.9028 21.5244L53.2189 20.5757C52.6271 20.3785 52.1012 20.3345 51.6336 20.4627C51.1595 20.5927 50.8087 20.8822 50.5396 21.2322C50.2768 21.5741 50.0797 21.9893 49.9094 22.4039C49.8233 22.6136 49.7407 22.8317 49.6593 23.0477C49.5772 23.2657 49.4962 23.4818 49.4099 23.6975L50.3384 24.0689ZM52.9028 21.5244C53.1918 21.6207 53.3355 21.7805 53.4146 21.9752C53.5031 22.1932 53.5248 22.496 53.4695 22.8721C53.3589 23.6256 52.9687 24.4819 52.6321 25.0426L53.4895 25.5572C53.8615 24.9375 54.3216 23.9521 54.4589 23.0175C54.5277 22.5496 54.5228 22.0466 54.3412 21.5991C54.1501 21.1283 53.7801 20.7627 53.2189 20.5757L52.9028 21.5244ZM38.8021 49.8667L38.0938 51.2834L38.9882 51.7306L39.6965 50.3139L38.8021 49.8667ZM53.2654 24.8425L50.0771 23.4262L49.6711 24.3401L52.8594 25.7564L53.2654 24.8425ZM47.878 27.1635L51.4195 28.9343L51.8667 28.0399L48.3252 26.2691L47.878 27.1635ZM39.7601 45.9459L42.2392 47.0084L42.6331 46.0892L40.154 45.0268L39.7601 45.9459ZM50.13 23.4542C49.0609 22.8127 47.3095 22.6626 45.4199 23.9574C43.5491 25.2394 41.5538 27.9232 39.8376 32.9288L40.7835 33.2531C42.4672 28.3424 44.3676 25.8908 45.9852 24.7823C47.5841 23.6866 48.9138 23.8906 49.6155 24.3116L50.13 23.4542ZM38.1862 26.9243H16.2285V27.9243H38.1862V26.9243ZM38.1862 19.8408H16.2285V20.8408H38.1862V19.8408ZM30 30.5H16V31.5H30V30.5ZM25.4366 23.3828H16.2285V24.3828H25.4366V23.3828ZM25.4366 7.7998H16.2285V8.7998H25.4366V7.7998ZM38.1868 7.79981L35.3535 7.7998V8.7998L38.1868 8.79981V7.79981ZM27.4361 51.2016C28.1862 51.3944 29.3157 51.349 30.3148 50.6093C31.3238 49.8624 32.1141 48.4728 32.3109 46.1458L31.3145 46.0615C31.1334 48.2025 30.4276 49.2817 29.7199 49.8056C29.0024 50.3367 28.1948 50.3641 27.685 50.2331L27.4361 51.2016ZM31.343 46.275C31.6209 47.0368 31.7922 47.6255 31.8935 48.0476C31.9977 48.482 32.0214 48.7144 32.0214 48.7748H33.0214C33.0214 48.5923 32.9743 48.2662 32.8659 47.8143C32.7545 47.3501 32.5715 46.7246 32.2824 45.9323L31.343 46.275ZM33.0054 48.9003L33.9503 45.2579L32.9823 45.0068L32.0374 48.6492L33.0054 48.9003ZM32.9683 45.0883C32.8888 45.9872 32.8048 47.34 32.8128 48.4748C32.8168 49.038 32.8434 49.5712 32.9113 49.9734C32.9444 50.1696 32.993 50.3717 33.0738 50.5373C33.1413 50.6757 33.3267 50.9746 33.7026 50.9746V49.9746C33.9367 49.9746 34.0034 50.1621 33.9725 50.0988C33.9549 50.0626 33.9253 49.9726 33.8973 49.8071C33.8432 49.4859 33.8167 49.0174 33.8128 48.4677C33.805 47.3765 33.8864 46.0582 33.9644 45.1764L32.9683 45.0883ZM33.7026 50.9746C34.0791 50.9746 34.3342 50.7312 34.4809 50.5321C34.6338 50.3246 34.7465 50.0647 34.8313 49.8166C35.0027 49.3146 35.1028 48.729 35.1446 48.3428L34.1504 48.2354C34.1134 48.5776 34.0245 49.0848 33.8849 49.4934C33.8141 49.7006 33.7409 49.8505 33.6758 49.939C33.6044 50.0358 33.6095 49.9746 33.7026 49.9746V50.9746ZM35.1475 48.2891C35.1475 48.0393 35.2346 47.7818 35.3879 47.6573C35.4973 47.5685 35.801 47.4232 36.5658 47.7726L36.9813 46.863C36.0453 46.4354 35.2859 46.4519 34.7575 46.8811C34.2729 47.2746 34.1475 47.8913 34.1475 48.2891H35.1475ZM36.5658 47.7726C36.7633 47.8628 36.8902 47.9357 36.9665 47.99C37.0541 48.0524 37.0297 48.0584 37.0026 47.9958C36.985 47.9549 36.9692 47.8902 36.981 47.8124C36.9926 47.7357 37.0259 47.6805 37.0519 47.6488C37.0924 47.5996 37.117 47.6036 37.0511 47.6296C36.9323 47.6764 36.7159 47.7198 36.4301 47.7492C36.1555 47.7774 35.8552 47.7891 35.5924 47.7891V48.7891C35.8809 48.7891 36.2163 48.7765 36.5324 48.744C36.8371 48.7127 37.1661 48.659 37.4174 48.5601C37.5365 48.5132 37.7023 48.4322 37.824 48.2844C37.8907 48.2034 37.9495 48.0955 37.9697 47.9624C37.99 47.8283 37.9658 47.7036 37.9205 47.5989C37.8383 47.4088 37.6825 47.2722 37.5463 47.1752C37.3986 47.0701 37.2091 46.967 36.9813 46.863L36.5658 47.7726ZM35.0924 48.2891V50.2317H36.0924V48.2891H35.0924Z" fill="white"/>
</svg>
