<svg width="66" height="90" viewBox="0 0 66 90" fill="none" xmlns="http://www.w3.org/2000/svg">
<path d="M49.1673 71.9231C49.3247 72.0805 46.5154 76.5895 42.1166 81.5863C37.7178 86.5832 33.4292 89.9747 33.2404 89.9983C32.5007 90.1085 35.8922 85.332 40.291 80.3351C44.6898 75.354 48.7424 71.4982 49.1673 71.9231Z" fill="#EB5E8C"/>
<path d="M20.965 81.0774C24.0976 78.7502 26.5069 76.6883 26.3462 76.4721C26.1856 76.2558 23.5158 77.967 20.3831 80.2941C17.2505 82.6213 14.8412 84.6831 15.0019 84.8994C15.1625 85.1157 17.8323 83.4045 20.965 81.0774Z" fill="#7F3955"/>
<path d="M49.1673 71.9231C49.3247 72.0805 46.5154 76.5895 42.1166 81.5863C37.7178 86.5832 33.4292 89.9747 33.2404 89.9983C32.5007 90.1085 35.8922 85.332 40.291 80.3351C44.6898 75.354 48.7424 71.4982 49.1673 71.9231Z" fill="#EB5E8C"/>
<path d="M20.965 81.0774C24.0976 78.7502 26.5069 76.6883 26.3462 76.4721C26.1856 76.2558 23.5158 77.967 20.3831 80.2941C17.2505 82.6213 14.8412 84.6831 15.0019 84.8994C15.1625 85.1157 17.8323 83.4045 20.965 81.0774Z" fill="#7F3955"/>
<path d="M63.4173 42.0609C65.3373 42.3442 49.6858 46.7194 32.2166 48.4663C14.7473 50.2132 -1.75403 48.6866 0.150276 48.3876C3.92741 47.8053 13.8817 43.7291 31.351 41.9822C48.8202 40.2353 60.852 41.6753 63.4173 42.0609Z" fill="#D24B7A"/>
<path d="M64.2655 43.9024C64.2576 44.6342 58.3952 45.9483 50.8882 46.8533C43.3811 47.7582 37.2039 47.8998 37.0938 47.1759C37.0938 47.1759 42.964 45.1299 50.4711 44.225C57.9703 43.3201 64.2655 43.6427 64.2655 43.9024Z" fill="#9EBB4D"/>
<path d="M53.686 47.8681C53.568 48.2852 45.8327 52.6525 35.0915 55.8788C24.3503 59.1051 13.2785 59.5615 14.7894 59.5536C15.0805 59.5536 23.5397 55.6663 34.281 52.44C45.0143 49.2137 53.8277 47.3724 53.686 47.8681Z" fill="#CF7C34"/>
<path d="M53.4532 37.4181C53.4532 37.0876 45.2143 34.0501 34.5911 32.6888C23.9679 31.3274 13.5572 32.736 14.9736 32.492C15.249 32.4448 23.8735 34.837 34.4967 36.1984C45.1198 37.5597 53.4532 37.843 53.4532 37.4181Z" fill="#CF7C34"/>
<path d="M58.4576 46.0969C58.4497 46.514 49.4082 56.3817 35.4957 66.0292C21.5833 75.6766 7.89901 81.2007 8.08787 81.0354C9.49643 79.8315 17.1373 70.7506 31.0497 61.1032C44.9622 51.4557 58.4654 45.4831 58.4576 46.0969Z" fill="#33799C"/>
<path d="M62.7239 47.1441C62.7161 47.4982 58.4983 57.1535 49.4567 66.6987C40.4152 76.2438 29.4222 82.4289 29.973 81.7128C31.2242 80.0997 34.1987 71.7034 43.2402 62.1583C52.2817 52.6131 62.7475 45.1848 62.7239 47.1441Z" fill="#9F5483"/>
<path d="M57.9423 38.1493C57.3285 37.6142 46.8234 30.0441 31.2112 23.4027C15.599 16.7612 3.07154 14.5107 1.41117 14.1015C-0.430182 13.6451 12.5301 22.2066 28.1423 28.8481C43.7544 35.4895 59.2958 39.3296 57.9423 38.1493Z" fill="#33799C"/>
<path d="M61.8097 36.3321C62.3369 36.1039 54.6488 27.9201 43.3489 20.413C32.049 12.906 20.8828 8.9085 20.8828 9.1367C20.8828 9.73474 28.0436 17.5487 39.3436 25.0558C50.6435 32.5628 60.165 37.0403 61.8097 36.3321Z" fill="#9F5483"/>
<path d="M64.9409 33.9002C64.9409 33.3572 61.51 27.4633 55.1597 21.0658C48.8094 14.6683 40.5391 10.4033 40.5391 10.7023C40.5391 11.3161 44.8277 17.6428 51.1701 24.0482C57.5126 30.4536 64.9409 34.514 64.9409 33.9002Z" fill="#D25171"/>
<path d="M65.2525 48.2852C65.4492 48.7967 64.3869 55.446 60.7829 63.5275C57.171 71.609 50.9702 78.3134 50.86 78.038C50.6318 77.4636 52.3394 70.1218 55.9513 62.0403C59.5553 53.9509 65.0243 47.7029 65.2525 48.2852Z" fill="#D25171"/>
<path d="M37.5736 13.2598C37.6995 13.1654 33.9223 9.72659 28.7839 6.06749C23.6454 2.40839 19.0105 -0.0388776 18.9476 0.000467546C18.5935 0.268015 22.5988 3.53366 27.7373 7.19276C32.8758 10.8519 37.4083 13.3857 37.5736 13.2598Z" fill="#EB5E8C"/>
<path d="M21.6505 62.0084C21.6191 62.1343 17.6531 64.8964 12.4595 67.4695C7.26595 70.0427 2.71764 71.5064 2.59961 71.4198C2.59961 71.4198 6.7702 68.9253 11.9638 66.3521C17.1573 63.779 21.7686 61.5048 21.6505 62.0084Z" fill="#CF7C34"/>
<path d="M63.4173 42.0609C65.3373 42.3442 49.6858 46.7194 32.2166 48.4663C14.7473 50.2132 -1.75403 48.6866 0.150276 48.3876C3.92741 47.8053 13.8817 43.7291 31.351 41.9822C48.8202 40.2353 60.852 41.6753 63.4173 42.0609Z" fill="#D24B7A"/>
<path d="M64.2655 43.9024C64.2576 44.6342 58.3952 45.9483 50.8882 46.8533C43.3811 47.7582 37.2039 47.8998 37.0938 47.1759C37.0938 47.1759 42.964 45.1299 50.4711 44.225C57.9703 43.3201 64.2655 43.6427 64.2655 43.9024Z" fill="#9EBB4D"/>
<path d="M53.686 47.8681C53.568 48.2852 45.8327 52.6525 35.0915 55.8788C24.3503 59.1051 13.2785 59.5615 14.7894 59.5536C15.0805 59.5536 23.5397 55.6663 34.281 52.44C45.0143 49.2137 53.8277 47.3724 53.686 47.8681Z" fill="#CF7C34"/>
<path d="M53.4532 37.4181C53.4532 37.0876 45.2143 34.0501 34.5911 32.6888C23.9679 31.3274 13.5572 32.736 14.9736 32.492C15.249 32.4448 23.8735 34.837 34.4967 36.1984C45.1198 37.5597 53.4532 37.843 53.4532 37.4181Z" fill="#CF7C34"/>
<path d="M58.4576 46.0969C58.4497 46.514 49.4082 56.3817 35.4957 66.0292C21.5833 75.6766 7.89901 81.2007 8.08787 81.0354C9.49643 79.8315 17.1373 70.7506 31.0497 61.1032C44.9622 51.4557 58.4654 45.4831 58.4576 46.0969Z" fill="#33799C"/>
<path d="M62.7239 47.1441C62.7161 47.4982 58.4983 57.1535 49.4567 66.6987C40.4152 76.2438 29.4222 82.4289 29.973 81.7128C31.2242 80.0997 34.1987 71.7034 43.2402 62.1583C52.2817 52.6131 62.7475 45.1848 62.7239 47.1441Z" fill="#9F5483"/>
<path d="M57.9423 38.1493C57.3285 37.6142 46.8234 30.0441 31.2112 23.4027C15.599 16.7612 3.07154 14.5107 1.41117 14.1015C-0.430182 13.6451 12.5301 22.2066 28.1423 28.8481C43.7544 35.4895 59.2958 39.3296 57.9423 38.1493Z" fill="#33799C"/>
<path d="M61.8097 36.3321C62.3369 36.1039 54.6488 27.9201 43.3489 20.413C32.049 12.906 20.8828 8.9085 20.8828 9.1367C20.8828 9.73474 28.0436 17.5487 39.3436 25.0558C50.6435 32.5628 60.165 37.0403 61.8097 36.3321Z" fill="#9F5483"/>
<path d="M64.9409 33.9002C64.9409 33.3572 61.51 27.4633 55.1597 21.0658C48.8094 14.6683 40.5391 10.4033 40.5391 10.7023C40.5391 11.3161 44.8277 17.6428 51.1701 24.0482C57.5126 30.4536 64.9409 34.514 64.9409 33.9002Z" fill="#D25171"/>
<path d="M65.2525 48.2852C65.4492 48.7967 64.3869 55.446 60.7829 63.5275C57.171 71.609 50.9702 78.3134 50.86 78.038C50.6318 77.4636 52.3394 70.1218 55.9513 62.0403C59.5553 53.9509 65.0243 47.7029 65.2525 48.2852Z" fill="#D25171"/>
<path d="M37.5736 13.2598C37.6995 13.1654 33.9223 9.72659 28.7839 6.06749C23.6454 2.40839 19.0105 -0.0388776 18.9476 0.000467546C18.5935 0.268015 22.5988 3.53366 27.7373 7.19276C32.8758 10.8519 37.4083 13.3857 37.5736 13.2598Z" fill="#EB5E8C"/>
<path d="M21.6505 62.0084C21.6191 62.1343 17.6531 64.8964 12.4595 67.4695C7.26595 70.0427 2.71764 71.5064 2.59961 71.4198C2.59961 71.4198 6.7702 68.9253 11.9638 66.3521C17.1573 63.779 21.7686 61.5048 21.6505 62.0084Z" fill="#CF7C34"/>
</svg>
