<svg width="146" height="29" viewBox="0 0 146 29" fill="none" xmlns="http://www.w3.org/2000/svg">
<path d="M10.4351 15.294C9.50026 15.294 9.03152 14.5114 8.75131 13.8247C8.4711 13.1381 8.56539 12.5527 7.91072 12.5527C7.25605 12.5527 5.66647 14.6074 5.38626 17.35C5.38626 17.6447 5.29204 19.5034 5.29204 20.4834V23.4207C5.29204 24.4967 5.2003 25.8674 5.38626 26.65C5.57222 27.7287 5.85371 27.826 6.60136 28.218C6.88157 28.3154 6.97582 28.4127 7.16178 28.4127V28.5114H0.0546875V28.4127C0.240644 28.4127 0.336134 28.3154 0.615069 28.218C1.45697 27.826 1.64421 27.7287 1.83017 26.65C2.0174 25.8674 1.92443 24.4967 1.92443 23.4207V16.4687V13.2381C1.83018 12.4541 1.64294 12.2594 1.26975 11.9647C0.894014 11.6714 0.520839 11.6714 0.239357 11.5741V11.4754H5.00927C5.1965 11.4754 5.1965 11.5741 5.1965 11.6714V16.1754C5.66267 14.2167 6.5988 12.9434 7.15922 12.3567C7.72091 11.77 8.65707 11.0847 9.87215 11.0847C10.4326 11.0847 11.0873 11.2794 11.5547 11.7701C11.8362 12.0647 12.1164 12.6501 12.1164 13.4341C12.2106 14.4114 11.6515 15.294 10.4351 15.294ZM25.4925 18.622H15.4853C15.4853 23.3207 16.0457 25.6714 17.169 27.0421C18.0097 28.1181 18.8516 28.3141 19.9737 28.3141C23.0598 28.3141 24.6493 25.6714 25.3053 22.93H25.4925C24.8366 26.3554 22.6866 28.706 19.4133 28.706C17.5422 28.706 15.4852 28.2167 14.0816 26.6487C12.5851 24.8874 12.0247 22.8314 12.0247 19.9927C12.0247 14.6074 14.9236 11.0834 19.0388 11.0834C23.7145 11.0834 25.7727 14.4114 25.7727 17.5447C25.5842 17.8394 25.5842 18.23 25.4925 18.622ZM21.0028 12.0634C20.3482 11.3767 19.7877 11.182 18.8528 11.182C18.0109 11.182 17.4493 11.3767 16.8888 12.0634C16.0469 13.0421 15.5808 15.1967 15.4853 18.3287H21.0028C22.1249 18.3287 22.2192 18.3287 22.2192 16.5661C22.1236 14.2167 21.5645 12.6487 21.0028 12.0634ZM36.9008 28.706C35.966 28.706 35.2183 28.7061 34.8439 28.4114C34.3764 28.1167 34.0032 27.3341 34.0949 25.8661C33.7217 27.2367 32.4137 28.706 29.9809 28.706C27.7367 28.706 25.7727 27.3354 25.7727 24.4954C25.7727 23.4194 26.053 22.5381 26.7076 21.9514C27.9227 20.7767 29.5122 20.6781 31.1018 19.9927C33.253 19.1114 34.2822 18.0341 34.2822 16.8594V13.8247C34.2822 11.6714 33.7218 11.2794 32.1322 11.2794C31.2903 11.2794 30.8228 11.474 30.4484 11.866C30.0752 12.258 29.888 13.138 29.888 14.314C29.888 15.586 29.2333 16.0754 28.2055 16.0754C27.3636 16.0754 26.7089 15.5861 26.7089 14.6061C26.7089 13.9207 26.8948 13.4314 27.3635 12.9421C28.2054 11.8647 30.5439 11.1807 32.1335 11.1807C34.9394 11.1807 37.651 12.2581 37.651 15.0967C37.651 16.3701 37.5568 22.7341 37.5568 25.0834C37.5568 26.8447 37.5568 27.4327 37.9325 27.8247C38.0405 27.9456 38.1705 28.0426 38.3149 28.1099C38.4593 28.1772 38.6151 28.2136 38.7731 28.2167C39.1476 28.2167 39.4278 28.1181 39.8022 27.9221V28.0207C39.3323 28.3141 38.1172 28.706 36.9008 28.706ZM31.6648 19.9927C30.6344 20.5794 30.1669 20.9714 29.7937 21.5594C29.4193 22.2447 29.1391 23.3207 29.1391 24.3994C29.1391 26.6501 29.9797 27.9234 31.4775 27.9234C31.7577 27.9234 32.1322 27.9234 32.4111 27.7287C33.253 27.3367 34.0019 25.9661 34.0019 24.6941V18.0367C33.5345 18.9154 32.6926 19.4047 31.6648 19.9927ZM39.3323 28.3141C39.5195 28.2167 39.7997 28.1181 39.9882 28.0207C40.6429 27.7261 40.9231 27.5314 41.1103 26.4527C41.2963 25.6701 41.2963 24.3981 41.2963 23.2221V5.89272C41.2963 5.20739 41.2963 3.34872 41.2033 2.66339C41.1103 1.87939 40.9231 1.58472 40.5474 1.39006C40.1742 1.09539 39.7997 1.09538 39.5195 0.998047H44.2881C44.4741 0.998047 44.4741 0.998058 44.4741 1.29272V23.4194C44.4741 24.4954 44.4741 25.7687 44.5684 26.6487C44.7543 27.7274 45.0358 27.9221 45.8764 28.2167C46.0637 28.3141 46.1579 28.3141 46.3439 28.4114V28.5101H39.3298V28.3141H39.3323Z" fill="white"/>
<path d="M56.6325 26.1599C56.0721 27.4332 54.387 28.7065 52.7045 28.7065C51.2079 28.7065 50.273 28.5105 49.4324 27.6278C48.7777 26.9425 48.402 26.1585 48.402 24.6918C48.402 23.9092 48.4963 13.5318 48.5892 11.5732C48.0288 11.5732 46.9067 11.5732 46.3438 11.4745V11.3772C48.6822 10.7905 50.1788 9.51584 51.7696 4.13184H51.8613V11.2785H55.6034V11.4732H51.8613L51.6754 25.7678C51.6754 27.2372 52.0498 28.1172 53.6394 28.1172C54.9487 28.1172 55.9778 27.0411 56.4453 26.0625L56.6325 26.1599ZM63.0862 28.7065C59.3454 28.7065 55.3232 25.2798 55.3232 19.8945C55.3232 14.5118 59.3454 11.0852 63.0862 11.0852C66.8283 11.0852 70.9422 14.4132 70.9422 19.8945C70.9422 25.2798 66.92 28.7065 63.0862 28.7065ZM65.6119 12.3558C64.863 11.3772 63.9281 11.1812 63.0862 11.1812C62.2443 11.1812 61.3082 11.4745 60.6548 12.2585C59.5327 13.5318 58.878 16.7612 58.878 19.7972C58.878 22.9305 59.5327 25.9638 60.6548 27.3345C61.4037 28.3132 62.3386 28.5105 63.1792 28.5105C64.0211 28.5105 64.863 28.3145 65.7036 27.3345C66.734 26.0625 67.4817 22.9292 67.4817 19.7972C67.3887 16.7612 66.734 13.7278 65.6119 12.3558ZM80.6668 15.2945C79.7332 15.2945 79.2645 14.5118 78.9855 13.8252C78.704 13.1385 78.7983 12.5532 78.1424 12.5532C77.4877 12.5532 75.8981 14.6078 75.6179 17.3505C75.6179 17.6452 75.5262 19.5038 75.5262 20.4838V23.4212C75.5262 24.4972 75.4319 25.8678 75.6179 26.6505C75.8051 27.7292 76.0854 27.8265 76.8343 28.2185C77.1158 28.3158 77.2075 28.4132 77.3947 28.4132V28.5118H70.3805V28.4132C70.5665 28.4132 70.662 28.3158 70.941 28.2185C71.7829 27.8265 71.9701 27.7292 72.1561 26.6505C72.3433 25.8678 72.2503 24.4972 72.2503 23.4212V16.4692V13.2385C72.1561 12.4545 71.9688 12.2598 71.5956 11.9652C71.2199 11.6718 70.8467 11.6718 70.5653 11.5745V11.4758H75.3352C75.5224 11.4758 75.5224 11.5745 75.5224 11.6718V16.1758C75.9886 14.2172 76.9247 12.9438 77.4851 12.3572C78.0468 11.7705 78.983 11.0852 80.198 11.0852C80.7585 11.0852 81.4132 11.2798 81.8806 11.7705C82.1621 12.0652 82.4423 12.6505 82.4423 13.4345C82.4461 14.4118 81.8831 15.2945 80.6668 15.2945ZM82.4461 28.9998C81.3227 28.9998 80.3878 28.1185 80.3878 26.8465C80.3878 25.5745 81.3227 24.6932 82.4461 24.6932C83.5682 24.6932 84.5018 25.4758 84.5018 26.8465C84.4088 28.1185 83.5682 28.9998 82.4461 28.9998ZM93.1997 28.7065C91.1428 28.7065 89.2717 27.8252 88.0566 26.5532C86.4658 24.8878 85.9054 22.5372 85.9054 19.6985C85.9054 14.3145 89.8334 11.0838 93.294 11.0838C95.6325 11.0838 97.408 11.9638 98.0639 12.8452C98.6243 13.5318 98.9045 14.1172 98.9045 14.7065C98.9045 15.9785 98.0639 16.4678 97.315 16.4678C96.0069 16.4678 95.5382 15.5865 95.444 14.3145C95.1637 12.0638 94.7893 11.2798 93.1997 11.2798C92.5451 11.2798 91.5172 11.5745 90.9543 12.2585C90.1136 13.3358 89.6462 15.8812 89.6462 19.0132C89.6462 22.9305 90.1136 25.4745 91.0498 26.9425C91.7974 28.0212 92.7323 28.3132 93.5742 28.3132C97.0348 28.3132 98.5314 25.1798 99.0918 22.8305H99.2777C98.3429 26.1598 96.3788 28.7065 93.1997 28.7065ZM106.855 28.7065C103.113 28.7065 99.0918 25.2798 99.0918 19.8945C99.0918 14.5118 103.113 11.0852 106.855 11.0852C110.596 11.0852 114.71 14.4132 114.71 19.8945C114.71 25.2798 110.594 28.7065 106.855 28.7065ZM109.379 12.3558C108.63 11.3772 107.695 11.1812 106.855 11.1812C106.013 11.1812 105.077 11.4745 104.423 12.2585C103.3 13.5318 102.645 16.7612 102.645 19.7972C102.645 22.9305 103.3 25.9638 104.423 27.3345C105.171 28.3132 106.106 28.5105 106.948 28.5105C107.788 28.5105 108.63 28.3145 109.472 27.3345C110.501 26.0625 111.249 22.9292 111.249 19.7972C111.063 16.7612 110.408 13.7278 109.379 12.3558ZM133.414 28.3145C133.601 28.2172 133.695 28.1185 133.974 28.0212C134.723 27.7265 135.003 27.5319 135.19 26.4532C135.376 25.6705 135.376 24.3985 135.376 23.2225V16.2705C135.376 14.4105 135.19 13.5305 134.816 12.9425C134.348 12.2572 133.694 11.8652 132.759 11.8652C131.075 11.8652 129.111 13.4318 128.831 16.4665C128.831 17.0532 128.738 17.7385 128.738 18.5225V23.1238C128.738 24.2012 128.644 25.4732 128.831 26.3545C129.017 27.4318 129.298 27.6265 130.046 27.9212C130.327 28.0198 130.42 28.1158 130.608 28.1158V28.2145H123.499V28.1158C123.686 28.1158 123.781 28.0198 124.06 27.9212C124.809 27.6265 125.089 27.4318 125.276 26.3545C125.462 25.5718 125.462 24.2985 125.462 23.1238V16.1732C125.462 14.3118 125.276 13.4305 124.807 12.8438C124.34 12.1585 123.685 11.7665 122.75 11.7665C120.879 11.7665 119.103 13.4305 118.822 16.4652C118.728 17.4438 118.728 18.6185 118.728 19.7945V23.0238C118.728 24.1025 118.635 25.4718 118.822 26.2558C119.008 27.3332 119.29 27.4305 120.13 27.8225L120.691 28.0185V28.1145H113.584V28.0185C113.77 28.0185 113.865 27.9198 114.144 27.8225C114.986 27.5292 115.173 27.3332 115.36 26.2558C115.546 25.4718 115.546 24.1025 115.546 23.0238V16.1718C115.546 15.4852 115.546 13.5292 115.453 12.9398C115.36 12.1572 115.172 11.9612 114.799 11.6678C114.424 11.3732 114.05 11.3732 113.768 11.2758V11.1785H118.538C118.724 11.1785 118.724 11.1785 118.724 11.3732L118.631 15.2905C119.099 13.5292 119.941 12.5492 120.782 11.8638C121.437 11.3745 122.652 10.7865 123.962 10.7865C125.644 10.7865 126.86 11.2758 127.515 12.1558C127.89 12.6452 128.544 13.7238 128.544 15.3878C129.012 13.5278 129.948 12.4505 130.79 11.8625C131.63 11.1772 132.94 10.7852 133.876 10.7852C135.933 10.7852 136.962 11.4705 137.522 12.2545C137.99 12.8412 138.457 13.9185 138.457 15.9745V23.0225C138.457 24.1012 138.457 25.3732 138.645 26.2545C138.83 27.3318 139.112 27.5278 139.86 27.8211L140.42 28.0172V28.1132H133.406V28.3145H133.414ZM143.141 14.6078C142.766 14.6078 142.392 14.5118 142.018 14.4132C141.644 14.2185 141.363 14.0225 141.177 13.8265C140.895 13.5332 140.709 13.2398 140.616 12.9452C140.429 12.5545 140.429 12.2598 140.429 11.7705C140.429 11.3785 140.523 10.9865 140.616 10.5958C140.802 10.2038 140.989 9.9105 141.177 9.61717C141.457 9.3225 141.737 9.12784 142.111 9.02918C142.485 8.83451 142.859 8.83449 143.234 8.83449C143.608 8.83449 143.982 8.93318 144.356 9.02918C144.73 9.22518 145.012 9.4225 145.198 9.61717C145.479 9.91183 145.665 10.2038 145.758 10.4972C145.944 10.8905 145.944 11.1838 145.944 11.6732C145.944 12.0652 145.851 12.4558 145.758 12.8478C145.572 13.2398 145.384 13.5345 145.198 13.8265C145.012 14.1185 144.637 14.3158 144.263 14.4132C143.888 14.6078 143.515 14.6078 143.141 14.6078ZM143.141 14.3145C143.515 14.3145 143.795 14.2172 144.17 14.1185C144.45 14.0225 144.73 13.8252 144.917 13.5332C145.105 13.3372 145.292 13.0438 145.479 12.7492C145.572 12.4545 145.665 12.0638 145.665 11.7705C145.665 11.3785 145.572 11.0852 145.479 10.7918C145.379 10.4732 145.181 10.1978 144.917 10.0078C144.731 9.81317 144.45 9.61717 144.17 9.42251C143.888 9.32384 143.515 9.2265 143.235 9.2265C142.86 9.2265 142.58 9.32384 142.206 9.42251C141.901 9.52588 141.638 9.73165 141.457 10.0078C141.271 10.2038 141.084 10.4972 140.896 10.7918C140.803 11.0865 140.71 11.4772 140.71 11.7705C140.71 12.1612 140.803 12.4558 140.896 12.7492C140.989 13.0425 141.178 13.3358 141.457 13.5332C141.644 13.7278 141.924 13.9238 142.206 14.1185C142.485 14.2172 142.859 14.3145 143.141 14.3145ZM142.018 10.0065H143.327C143.701 10.0065 144.075 10.1052 144.261 10.3012C144.447 10.4972 144.543 10.6932 144.543 10.9865C144.543 11.2812 144.449 11.4758 144.356 11.5745C144.263 11.7692 144.075 11.8678 143.888 11.9652L144.637 13.0438H143.888L143.234 12.0652H142.766V13.0438H142.111V10.0078H142.018V10.0065ZM143.328 11.4745C143.515 11.4745 143.609 11.4745 143.702 11.3772C143.795 11.2798 143.795 11.1825 143.795 11.0838C143.795 10.8892 143.795 10.7892 143.702 10.7892C143.609 10.6918 143.516 10.6918 143.328 10.6918H142.673V11.5732H143.328V11.4745Z" fill="white"/>
</svg>
