<svg width="94" height="56" viewBox="0 0 94 56" fill="none" xmlns="http://www.w3.org/2000/svg">
<path fill-rule="evenodd" clip-rule="evenodd" d="M17.9207 51.0285H18.1341C18.6366 52.0548 19.1589 53.0714 19.7007 54.0776C20.2418 53.0757 20.7549 52.0589 21.2395 51.0285H21.4513C21.5636 52.3667 21.7144 53.677 21.9096 54.9585C21.8057 54.9301 21.6986 54.915 21.5908 54.9136C21.4903 54.9136 21.3849 54.9313 21.2726 54.9585C21.2322 53.9969 21.1442 53.0378 21.0089 52.0848L20.2104 53.6712C19.9745 54.1349 19.7788 54.5579 19.6386 54.9585C19.6162 54.9478 19.5937 54.9478 19.5723 54.9478C19.5499 54.9478 19.5274 54.9478 19.4991 54.9585C19.0595 53.9961 18.5837 53.0507 18.0726 52.1244L17.9105 53.6888C17.8684 54.1109 17.8423 54.5344 17.8325 54.9585C17.755 54.9412 17.6759 54.9321 17.5966 54.9313C17.5185 54.9313 17.4458 54.942 17.3677 54.9585C17.6236 53.6596 17.8082 52.3476 17.9207 51.0285ZM24.9128 51.0285C24.9991 51.0507 25.0897 51.0507 25.176 51.0285C25.6751 52.3499 26.2031 53.6602 26.7596 54.9585C26.637 54.9416 26.5134 54.9325 26.3895 54.9313C26.2724 54.9313 26.1553 54.942 26.0424 54.9585C25.8978 54.4644 25.7317 53.9769 25.5445 53.4973C25.3341 53.4853 25.1235 53.4794 24.9128 53.4797C24.6887 53.4797 24.4539 53.4856 24.2073 53.4973L23.9891 54.1001C23.8914 54.382 23.8075 54.6685 23.7377 54.9585C23.6586 54.9413 23.578 54.9321 23.4971 54.9313C23.4126 54.9313 23.3345 54.942 23.2505 54.9585C23.8252 53.6573 24.3793 52.3471 24.9128 51.0285ZM24.9064 53.2192C25.0856 53.2192 25.2594 53.2133 25.4225 53.2032L24.8839 51.8018L24.3304 53.2032C24.532 53.2133 24.7224 53.2192 24.9064 53.2192ZM28.8755 53.6604C28.8755 53.9819 28.8926 54.4167 28.9204 54.9585C28.8134 54.9388 28.7046 54.9297 28.5958 54.9313C28.4888 54.9313 28.3835 54.9371 28.2711 54.9585C28.3225 54.3889 28.3433 53.7508 28.3433 53.0331C28.3433 52.3158 28.3268 51.6719 28.2711 51.1023C28.3776 51.1183 28.4845 51.1295 28.5958 51.1295C28.7022 51.1295 28.814 51.1183 28.9204 51.1023C28.8998 51.4652 28.8848 51.8284 28.8755 52.1918V52.8924C29.4184 52.4854 30.0233 51.8869 30.6432 51.1023C30.7331 51.1071 30.8283 51.113 30.9288 51.113C31.0294 51.113 31.1411 51.1071 31.2583 51.1023C30.6268 51.6489 30.0132 52.2157 29.4184 52.802C29.972 53.5021 30.6159 54.2199 31.338 54.9585H30.8839C30.7443 54.9585 30.6042 54.9703 30.464 54.9986C30.3078 54.7168 30.0672 54.4344 29.7869 54.1124L28.875 53.0678V53.6604H28.8755ZM32.8318 53.0331C32.8318 52.3158 32.8152 51.6719 32.7591 51.1023C33.1276 51.113 33.4817 51.1183 33.8213 51.1183C34.1689 51.1183 34.4995 51.1124 34.8124 51.1023C34.8007 51.1651 34.7952 51.2288 34.7958 51.2927C34.7958 51.3558 34.8006 51.4232 34.8124 51.4965C34.5332 51.4291 34.2246 51.4007 33.8887 51.4007H33.38C33.3741 51.819 33.3741 52.0843 33.3741 52.1918V52.7737H33.94C34.1743 52.7737 34.4321 52.756 34.7177 52.7229C34.7104 52.7789 34.7065 52.8354 34.7059 52.8919C34.7059 52.9534 34.7118 53.0208 34.7177 53.0946C34.4531 53.0712 34.1879 53.0563 33.9224 53.0497H33.3747V53.6482C33.3747 53.8626 33.3806 54.2017 33.3971 54.6596H33.9058C34.2181 54.6596 34.5268 54.6264 34.8295 54.5633C34.8182 54.6303 34.8125 54.6981 34.8124 54.766C34.8124 54.835 34.8182 54.8965 34.8295 54.958C34.4996 54.9469 34.1695 54.9413 33.8395 54.9414C33.4918 54.9414 33.134 54.9478 32.7591 54.958C32.8093 54.3884 32.8318 53.7508 32.8318 53.0331ZM36.7619 53.0331C36.7619 52.3158 36.7458 51.6719 36.6897 51.1023C36.7961 51.1183 36.9079 51.1247 37.0143 51.1247C37.1256 51.1247 37.2384 51.1183 37.3438 51.1023C37.3153 51.6118 37.3022 52.1221 37.3048 52.6325C37.3048 53.5925 37.3106 54.2638 37.3272 54.6596H37.8926C38.2055 54.6596 38.5141 54.6264 38.8152 54.5633C38.8041 54.6303 38.7986 54.6981 38.7986 54.766C38.7986 54.835 38.8045 54.8965 38.8152 54.958C38.4701 54.947 38.1249 54.9415 37.7797 54.9414C37.4278 54.9414 37.0641 54.9478 36.6892 54.958C36.7394 54.3884 36.7619 53.7508 36.7619 53.0331ZM41.5279 51.0285C41.6143 51.0506 41.7048 51.0506 41.7911 51.0285C42.2907 52.3497 42.8187 53.66 43.3748 54.9585C43.2453 54.942 43.1218 54.9313 43.0047 54.9313C42.8875 54.9313 42.7704 54.942 42.6576 54.9585C42.5132 54.4644 42.347 53.9768 42.1596 53.4973C41.9491 53.4853 41.7383 53.4794 41.5274 53.4797C41.3033 53.4797 41.0685 53.4856 40.8219 53.4973L40.6037 54.1001C40.5062 54.382 40.4225 54.6685 40.3529 54.9585C40.2736 54.9412 40.1928 54.9321 40.1117 54.9313C40.0277 54.9313 39.9496 54.942 39.8656 54.9585C40.4403 53.6573 40.9945 52.3471 41.5279 51.0285ZM41.5221 53.2192C41.7012 53.2192 41.8756 53.2133 42.0382 53.2032L41.4996 51.8018L40.9455 53.2032C41.1471 53.2133 41.3381 53.2192 41.5221 53.2192ZM46.0282 51.0285C46.0779 51.0392 46.1228 51.0445 46.1624 51.0445C46.2059 51.0445 46.2492 51.0392 46.2913 51.0285C46.7908 52.3495 47.3183 53.6598 47.8734 54.9585C47.7515 54.9416 47.6286 54.9325 47.5054 54.9313C47.3872 54.9313 47.2701 54.942 47.1572 54.9585C47.0129 54.4644 46.8467 53.9768 46.6593 53.4973C46.4488 53.4853 46.238 53.4794 46.0271 53.4797C45.803 53.4797 45.5687 53.4856 45.3216 53.4973L45.1034 54.1001C45.0057 54.382 44.9218 54.6685 44.852 54.9585C44.773 54.9412 44.6923 54.9321 44.6114 54.9313C44.5269 54.9313 44.4493 54.942 44.3648 54.9585C44.9403 53.6575 45.4948 52.3473 46.0282 51.0285ZM46.0223 53.2192C46.2015 53.2192 46.3758 53.2133 46.5368 53.2032L45.9998 51.8018L45.4463 53.2032C45.6479 53.2133 45.8378 53.2192 46.0223 53.2192ZM50.008 54.9585C49.9075 54.9371 49.7999 54.9313 49.6999 54.9313C49.5999 54.9313 49.4994 54.9371 49.3929 54.9585C49.4379 54.214 49.4608 53.446 49.4608 52.6432C49.4608 52.0789 49.4432 51.5703 49.4036 51.1023C49.5395 51.113 49.6668 51.1183 49.7903 51.1183C50.1102 51.1183 50.3952 51.09 50.6365 51.09C51.4302 51.09 51.8506 51.4125 51.8506 51.9885C51.8506 52.502 51.4692 52.8641 50.7536 52.994C51.2469 53.654 51.747 54.3089 52.2538 54.9585C52.118 54.942 51.9779 54.9313 51.8441 54.9313C51.7104 54.9313 51.581 54.942 51.4473 54.9585C51.0489 54.2961 50.5997 53.6656 50.1037 53.0727H49.97V53.6888C49.9695 54.0835 49.9861 54.5066 50.008 54.9585ZM50.1583 52.8742C50.8969 52.8742 51.2783 52.5875 51.2783 52.0607C51.2783 51.5858 50.9483 51.3157 50.3327 51.3157C50.2321 51.3157 50.1209 51.3205 50.0016 51.3381C49.969 51.6147 49.969 51.8575 49.969 52.0554V52.8689C50.0364 52.8742 50.0968 52.8742 50.1583 52.8742ZM53.6348 54.0996C53.7969 54.5349 54.1344 54.7724 54.5762 54.7724C55.0848 54.7724 55.3982 54.4675 55.3982 54.0097C55.3982 53.5353 55.0902 53.3829 54.5521 53.1679C53.8878 52.909 53.5567 52.6833 53.5567 52.1072C53.5567 51.4403 54.0049 51.0226 54.7714 51.0226C55.28 51.0226 55.5934 51.198 55.717 51.2654C55.6328 51.4413 55.5724 51.6277 55.5373 51.8195H55.4817C55.4084 51.4462 55.1399 51.2429 54.7158 51.2429C54.2841 51.2429 54.0108 51.5088 54.0108 51.9035C54.0108 52.31 54.3012 52.4683 54.8217 52.6598C55.5218 52.9202 55.8849 53.1454 55.8849 53.7669C55.8849 54.4793 55.325 55.0377 54.4965 55.0377C54.0766 55.0377 53.7306 54.9254 53.4781 54.7109C53.5337 54.5355 53.5744 54.3376 53.5845 54.1124L53.6348 54.0996ZM60.121 53.0331C60.121 51.8013 60.9045 51.0285 62.2021 51.0285C63.5285 51.0285 64.2842 51.7746 64.2842 53.0331C64.2842 54.2878 63.5173 55.0329 62.2074 55.0329C60.9045 55.0329 60.121 54.259 60.121 53.0331ZM60.7467 53.0047C60.7467 54.1627 61.2618 54.7836 62.2021 54.7836C63.137 54.7836 63.6574 54.1627 63.6574 53.0331C63.6574 51.9035 63.137 51.2761 62.2021 51.2761C61.273 51.2761 60.7467 51.9088 60.7467 53.0047ZM66.3867 54.3146C66.582 54.3146 66.744 54.467 66.744 54.6713C66.7444 54.7186 66.7355 54.7654 66.7178 54.8092C66.7 54.853 66.6738 54.8928 66.6406 54.9264C66.6074 54.96 66.5678 54.9867 66.5243 55.005C66.4807 55.0233 66.434 55.0327 66.3867 55.0329C66.2956 55.0268 66.2102 54.9863 66.1479 54.9196C66.0855 54.8529 66.0508 54.765 66.0508 54.6737C66.0508 54.5824 66.0855 54.4945 66.1479 54.4278C66.2102 54.3612 66.2956 54.3207 66.3867 54.3146ZM70.603 55.0377C69.2594 55.0377 68.4876 54.2916 68.4876 53.0208C68.4876 51.8125 69.3263 51.0279 70.6586 51.0279C71.2239 51.0279 71.7042 51.1467 72.0909 51.367C72.0006 51.5316 71.9509 51.7153 71.946 51.9029H71.8561C71.5764 51.4858 71.179 51.2649 70.6195 51.2649C69.7306 51.2649 69.1145 51.9377 69.1145 52.9935C69.1145 54.1178 69.6921 54.7778 70.6532 54.7778C70.956 54.7778 71.2475 54.7104 71.532 54.575C71.5443 54.3878 71.5496 54.2071 71.5496 54.0215C71.5496 53.7557 71.5384 53.4845 71.5111 53.2128C71.7202 53.2517 71.9348 53.25 72.1433 53.208C72.1267 53.4845 72.1139 53.7551 72.1139 54.0215C72.1139 54.2878 72.1262 54.5515 72.1433 54.8125C71.5919 54.9644 71.0779 55.0377 70.603 55.0377ZM74.2672 54.3146C74.4624 54.3146 74.6245 54.467 74.6245 54.6713C74.6249 54.7186 74.616 54.7654 74.5983 54.8092C74.5805 54.853 74.5543 54.8928 74.5211 54.9264C74.4879 54.96 74.4483 54.9867 74.4048 55.005C74.3612 55.0233 74.3145 55.0327 74.2672 55.0329C74.2199 55.0328 74.1731 55.0234 74.1294 55.0051C74.0858 54.9869 74.0462 54.9602 74.0128 54.9266C73.9795 54.893 73.9532 54.8532 73.9354 54.8094C73.9175 54.7655 73.9085 54.7186 73.9089 54.6713C73.9089 54.4734 74.0656 54.3146 74.2672 54.3146ZM0.290959 39.3944V37.8358V36.8859C0.290959 34.6262 0.268495 32.3895 0.000534557 30.1056C2.1271 30.1746 3.5819 30.2196 4.36545 30.2196C5.57475 30.2196 7.16486 30.1746 9.08979 30.1056C9.04486 30.5351 8.9994 30.8748 8.9994 31.1229C8.9994 31.3711 9.04432 31.6883 9.08979 32.1172C7.91349 32.0103 6.73289 31.9577 5.55175 31.9594C5.05969 31.9594 4.56655 31.9594 4.09589 31.9819C4.0523 33.0889 4.03019 34.1966 4.02956 35.3044V36.5014C5.26133 36.4565 6.89476 36.3885 8.93254 36.2987C8.86515 36.7731 8.84269 37.1341 8.84269 37.3609C8.84269 37.5636 8.88761 37.9027 8.93254 38.399C7.30029 38.2882 5.66539 38.2206 4.02956 38.1963V40.6593C4.02956 41.7889 4.05203 42.7843 4.14081 43.6646C5.686 43.6646 7.27557 43.5972 8.99886 43.4159C8.95904 43.7685 8.93691 44.1228 8.93254 44.4776C8.93254 44.6819 8.9764 45.0435 9.02186 45.5398C6.44709 45.4724 4.56656 45.4275 3.40218 45.4275C2.52984 45.4275 1.38687 45.4494 0 45.5398C0.268495 43.3956 0.290959 41.3616 0.290959 39.3944ZM17.0131 41.384H17.3939C17.7742 43.3271 18.8497 44.2765 20.7522 44.2765C22.476 44.2765 23.5061 43.4175 23.5061 42.0392C23.5061 40.7053 22.476 40.2084 20.5955 39.327C17.8865 38.0621 16.3643 37.0897 16.3643 34.6037C16.3643 31.7113 18.4684 29.812 22.1626 29.812C23.6623 29.812 24.9829 30.1056 26.1697 30.7608C25.7996 31.7245 25.5003 32.714 25.2744 33.7212H25.0053C24.3785 32.0723 23.4158 31.3037 21.8711 31.3037C20.281 31.3037 19.3637 32.1846 19.3637 33.2918C19.3637 34.6257 20.573 35.0102 22.7221 36.027C25.207 37.224 26.7292 38.084 26.7292 40.7048C26.7292 43.8695 24.378 45.8351 20.3035 45.8351C18.7813 45.8351 17.4158 45.565 16.3188 45.0889C16.5873 43.7556 16.8114 42.5136 17.0131 41.384ZM40.1395 32.0049C40.0507 33.2698 40.0507 34.355 40.0507 35.1921V36.1174C40.0507 39.4174 40.0507 42.5361 40.3186 45.5414C39.3345 45.474 38.6173 45.4291 38.1926 45.4291C37.6316 45.4291 36.9384 45.474 36.0644 45.5414C36.3105 42.7404 36.3784 40.1849 36.3784 37.8358C36.3784 36.5934 36.311 34.6262 36.2431 32.0049C34.8879 32.0038 33.5341 32.0943 32.1911 32.2755C32.236 31.846 32.2809 31.4401 32.2809 31.1005C32.2809 30.8978 32.236 30.5811 32.1911 30.1062C34.6321 30.1976 36.6464 30.265 38.1926 30.265C39.6699 30.265 41.6627 30.1976 44.1701 30.1062C44.1252 30.5817 44.1027 30.8978 44.1027 31.1005C44.1027 31.4401 44.1252 31.8466 44.1701 32.2755C42.8343 32.0939 41.4876 32.0035 40.1395 32.0049ZM53.2273 29.812C53.6316 29.858 54.0119 29.9029 54.3692 29.9029C54.7067 29.9029 55.065 29.858 55.5132 29.812C57.237 34.8979 59.162 40.118 61.4019 45.5414C60.4387 45.4965 59.7209 45.474 59.2283 45.474C58.4819 45.477 57.7357 45.4995 56.9905 45.5414C56.5203 44.0503 56.0951 42.6035 55.6469 41.2252C54.8404 41.2027 54.0338 41.1578 53.2278 41.1578C52.8475 41.1578 52.042 41.2027 50.8103 41.2252C50.3631 42.626 49.8711 44.0503 49.3549 45.5414C48.818 45.4965 48.4596 45.474 48.258 45.474C47.8996 45.474 47.4744 45.4965 46.9813 45.5414C49.2881 40.3438 51.3703 35.1231 53.2273 29.812ZM53.2733 39.4174C53.8322 39.4174 54.4371 39.3944 55.0869 39.3719C54.5938 37.7454 53.9889 36.1628 53.2952 34.5813C52.5566 36.3441 51.9517 37.9482 51.4826 39.3719C52.1538 39.3944 52.7368 39.4174 53.2733 39.4174ZM73.1863 32.0049C73.0964 33.2698 73.0964 34.355 73.0964 35.1921V36.1174C73.0964 39.4174 73.0964 42.5361 73.366 45.5414C72.3808 45.474 71.6641 45.4291 71.2389 45.4291C70.6789 45.4291 69.9841 45.474 69.1118 45.5414C69.3573 42.7404 69.4252 40.1849 69.4252 37.8358C69.4252 36.5934 69.3573 34.6262 69.2904 32.0049C67.9352 32.0038 66.5815 32.0942 65.2384 32.2755C65.2833 31.846 65.3283 31.4401 65.3283 31.1005C65.3283 30.8978 65.2833 30.5811 65.2384 30.1062C67.6784 30.1976 69.6937 30.265 71.2389 30.265C72.7162 30.265 74.709 30.1976 77.2164 30.1062C77.1725 30.5817 77.1506 30.8978 77.1506 31.1005C77.1506 31.4401 77.1725 31.8466 77.2164 32.2755C75.8807 32.0939 74.5342 32.0035 73.1863 32.0049ZM85.8275 29.812C86.2308 29.858 86.611 29.9029 86.9705 29.9029C87.3058 29.9029 87.6642 29.858 88.1113 29.812C89.8362 34.8979 91.7611 40.118 94 45.5414C93.0367 45.4965 92.3211 45.474 91.829 45.474C91.1792 45.474 90.4395 45.4965 89.5891 45.5414C89.1189 44.0503 88.6937 42.6035 88.2455 41.2252C87.439 41.2027 86.6335 41.1578 85.8275 41.1578C85.4472 41.1578 84.6406 41.2027 83.4094 41.2252C82.9623 42.626 82.4692 44.0503 81.9541 45.5414C81.4171 45.4965 81.0587 45.474 80.8571 45.474C80.4988 45.474 80.0725 45.4965 79.5804 45.5414C81.8867 40.3438 83.9699 35.1231 85.8275 29.812ZM85.8724 39.4174C86.4324 39.4174 87.0373 39.3944 87.6872 39.3719C87.194 37.7454 86.588 36.1628 85.8954 34.5813C85.1568 36.3441 84.5519 37.9482 84.0807 39.3719C84.7535 39.3944 85.3354 39.4174 85.8724 39.4174Z" fill="white"/>
<path fill-rule="evenodd" clip-rule="evenodd" d="M56.7404 21.0907V0H35.4336V21.0907C35.4336 21.0907 38.1993 18.8027 46.0868 18.8027C53.9742 18.8027 56.7404 21.0907 56.7404 21.0907Z" fill="white"/>
</svg>
