<svg width="132" height="50" viewBox="0 0 132 50" fill="none" xmlns="http://www.w3.org/2000/svg">
<path fill-rule="evenodd" clip-rule="evenodd" d="M21.1987 49.3174H128.494H21.1987Z" fill="white" stroke="white" stroke-width="0.800847" stroke-miterlimit="2.613"/>
<path fill-rule="evenodd" clip-rule="evenodd" d="M21.986 41.8786C21.986 40.1245 21.986 39.8107 21.9643 39.4507C21.9419 39.0682 21.853 38.8889 21.4854 38.8112C21.3603 38.788 21.2332 38.7768 21.1059 38.7776C21.0611 38.7776 21.017 38.7544 21.017 38.7096C21.017 38.6423 21.0723 38.6199 21.1948 38.6199C21.6968 38.6199 22.3655 38.6536 22.4544 38.6536C22.7001 38.6536 23.3471 38.6199 23.8596 38.6199C25.2536 38.6199 25.7556 39.0921 25.9334 39.2594C26.1784 39.4962 26.4907 40.0012 26.4907 40.5974C26.4907 42.1931 25.3313 43.2726 23.7483 43.2726C23.6922 43.2726 23.5697 43.2726 23.5137 43.2607C23.4584 43.2607 23.3912 43.239 23.3912 43.183C23.3912 43.0926 23.4577 43.0814 23.6915 43.0814C24.7725 43.0814 25.6204 42.2835 25.6204 41.2488C25.6204 40.8783 25.5868 40.1245 24.9958 39.5186C24.4049 38.912 23.7244 38.9569 23.4689 38.9569C23.2791 38.9569 23.0894 38.9785 22.9893 39.0241C22.922 39.0465 22.8996 39.1257 22.8996 39.2378V43.8576C22.8996 44.9356 22.8996 45.8246 22.9556 46.2967C22.9893 46.6232 23.0565 46.8697 23.3912 46.9145C23.5466 46.9369 23.7923 46.9601 23.8932 46.9601C23.9597 46.9601 23.9821 46.9937 23.9821 47.0281C23.9821 47.0841 23.9261 47.1177 23.8035 47.1177C23.191 47.1177 22.488 47.0841 22.4319 47.0841C22.3983 47.0841 21.6968 47.1177 21.3622 47.1177C21.2389 47.1177 21.1829 47.0953 21.1829 47.0281C21.1829 46.9937 21.206 46.9601 21.2725 46.9601C21.3726 46.9601 21.5071 46.9377 21.6079 46.9145C21.8298 46.869 21.8866 46.6224 21.9307 46.2967C21.9867 45.8246 21.9867 44.9363 21.9867 43.8576V41.8786H21.986ZM29.8891 39.181C29.8891 39.113 29.9227 39.0682 29.9787 39.0458C30.0908 39.0114 30.3911 38.9778 30.7258 38.9778C31.9196 38.9778 32.6547 39.8205 32.6547 41.2257C32.6547 42.0811 32.3641 42.6869 31.9749 42.9574C31.7179 43.1367 31.4056 43.1703 31.1389 43.1703C30.6481 43.1703 30.1349 43.0918 29.9683 42.991C29.9437 42.9782 29.9233 42.9587 29.9094 42.9348C29.8955 42.9108 29.8887 42.8834 29.8898 42.8558V39.181H29.8891ZM28.9971 43.8568C28.9971 44.9348 28.9971 45.8238 28.9411 46.296C28.8962 46.6224 28.841 46.869 28.6176 46.9138C28.5167 46.9362 28.3838 46.9593 28.2829 46.9593C28.2164 46.9593 28.1933 46.993 28.1933 47.0273C28.1933 47.0946 28.2485 47.117 28.3711 47.117C28.7057 47.117 29.4087 47.0834 29.4192 47.0834C29.4745 47.0834 30.1774 47.117 30.7908 47.117C30.9133 47.117 30.9686 47.0834 30.9686 47.0273C30.9686 46.993 30.9469 46.9593 30.8797 46.9593C30.7788 46.9593 30.5338 46.9369 30.3777 46.9138C30.0437 46.8682 29.9765 46.6217 29.9429 46.296C29.8868 45.8238 29.8868 44.9356 29.8868 43.8568V43.5871C29.8868 43.5303 29.9093 43.4967 29.9653 43.4967L31.3354 43.5199C31.4026 43.5199 31.4362 43.5416 31.4811 43.5871C31.7037 43.8792 32.2281 44.6323 32.6958 45.2508C33.3315 46.0935 33.7222 46.6448 34.2019 46.9033C34.491 47.0602 34.7696 47.117 35.3942 47.117H36.186C36.3863 47.117 36.4535 47.0946 36.4535 47.0273C36.4535 46.993 36.4087 46.9593 36.3526 46.9593C36.2854 46.9593 36.1293 46.9593 35.9178 46.9257C35.6392 46.8802 35.1603 46.7561 34.5575 46.1167C33.9112 45.4197 33.153 44.4193 32.2386 43.239C33.2426 42.3059 33.5885 41.4744 33.5885 40.6422C33.5885 39.8668 33.097 39.3154 32.8183 39.113C32.2274 38.6872 31.4803 38.6192 30.7781 38.6192C30.4322 38.6192 29.5858 38.6528 29.4633 38.6528C29.408 38.6528 28.7042 38.6192 28.203 38.6192C28.0797 38.6192 28.0244 38.6416 28.0244 38.7088C28.0244 38.7537 28.0692 38.7768 28.1141 38.7768C28.2149 38.7768 28.4039 38.7873 28.4936 38.8104C28.8611 38.8881 28.95 39.0682 28.9732 39.4499C28.9956 39.81 28.9956 40.1238 28.9956 41.8779V43.8568H28.9971ZM36.9899 42.5412C36.9899 40.0804 38.3831 38.8441 40.2456 38.8441C42.0071 38.8441 43.6357 40.2933 43.6357 42.9917C43.6357 46.2623 41.5619 46.8465 40.5578 46.8465C38.5512 46.8465 36.9899 45.1604 36.9899 42.5412ZM35.9313 42.8565C35.9313 44.8795 37.202 47.2731 40.2575 47.2731C42.9439 47.2731 44.7055 45.194 44.7055 42.6765C44.7055 40.058 42.8326 38.4616 40.324 38.4616C37.2469 38.4623 35.9313 41.0359 35.9313 42.8565ZM46.9243 41.8786C46.9243 40.1245 46.9243 39.8107 46.9011 39.4507C46.8794 39.0682 46.7905 38.8889 46.4222 38.8112C46.2973 38.788 46.1705 38.7768 46.0435 38.7776C45.9987 38.7776 45.9538 38.7544 45.9538 38.7096C45.9538 38.6423 46.0091 38.6199 46.1316 38.6199C46.6337 38.6199 47.303 38.6536 47.3919 38.6536C47.6377 38.6536 48.2839 38.6199 48.7964 38.6199C50.1897 38.6199 50.6917 39.0921 50.8702 39.2594C51.1153 39.4962 51.4275 40.0012 51.4275 40.5974C51.4275 42.1931 50.2681 43.2726 48.6851 43.2726C48.629 43.2726 48.5065 43.2726 48.4505 43.2607C48.3945 43.2607 48.328 43.239 48.328 43.183C48.328 43.0926 48.3945 43.0814 48.629 43.0814C49.7108 43.0814 50.5579 42.2835 50.5579 41.2488C50.5579 40.8783 50.5243 40.1245 49.9342 39.5186C49.3432 38.912 48.6634 38.9569 48.4064 38.9569C48.2167 38.9569 48.0269 38.9785 47.9261 39.0241C47.8603 39.0465 47.8372 39.1257 47.8372 39.2378V43.8576C47.8372 44.9356 47.8372 45.8246 47.8932 46.2967C47.9261 46.6232 47.9933 46.8697 48.328 46.9145C48.4834 46.9369 48.7291 46.9601 48.83 46.9601C48.8965 46.9601 48.9189 46.9937 48.9189 47.0281C48.9189 47.0841 48.8629 47.1177 48.7404 47.1177C48.1278 47.1177 47.4255 47.0841 47.3688 47.0841C47.3351 47.0841 46.6329 47.1177 46.299 47.1177C46.1757 47.1177 46.1212 47.0953 46.1212 47.0281C46.1212 46.9937 46.1428 46.9601 46.2101 46.9601C46.3109 46.9601 46.4439 46.9377 46.5448 46.9145C46.7681 46.869 46.8234 46.6224 46.8682 46.2967C46.9243 45.8246 46.9243 44.9363 46.9243 43.8576V41.8786ZM53.9578 41.8786C53.9578 40.1245 53.9578 39.8107 53.9354 39.4507C53.913 39.0682 53.8241 38.8889 53.4558 38.8112C53.3306 38.788 53.2036 38.7767 53.0763 38.7776C53.0315 38.7776 52.9874 38.7544 52.9874 38.7096C52.9874 38.6423 53.0427 38.6199 53.1652 38.6199C53.6672 38.6199 54.3694 38.6536 54.4247 38.6536C54.5032 38.6536 56.7219 38.6536 56.9782 38.6423C57.1896 38.6304 57.3681 38.608 57.457 38.5856C57.5138 38.5736 57.5579 38.5303 57.6132 38.5303C57.6468 38.5303 57.6587 38.5744 57.6587 38.6311C57.6587 38.7096 57.6035 38.8448 57.5698 39.1586C57.5579 39.2714 57.5362 39.7659 57.5146 39.9011C57.5026 39.9572 57.4809 40.0252 57.4361 40.0252C57.3696 40.0252 57.3465 39.9684 57.3465 39.878C57.3465 39.8003 57.3353 39.609 57.28 39.4738C57.2023 39.2945 57.0902 39.1586 56.4888 39.0921C56.2991 39.0689 55.0836 39.0585 54.9611 39.0585C54.917 39.0585 54.8946 39.0921 54.8946 39.1698V42.2723C54.8946 42.35 54.9058 42.3844 54.9611 42.3844C55.106 42.3844 56.4776 42.3844 56.7339 42.3619C57.0013 42.3395 57.1575 42.3164 57.2583 42.2051C57.336 42.1147 57.3808 42.0586 57.4257 42.0586C57.4578 42.0586 57.4809 42.0811 57.4809 42.1483C57.4809 42.2155 57.4257 42.4068 57.392 42.7788C57.3689 43.0029 57.3465 43.4183 57.3465 43.4967C57.3465 43.5871 57.3465 43.7111 57.2688 43.7111C57.212 43.7111 57.1903 43.6656 57.1903 43.6095C57.1903 43.4967 57.1903 43.3839 57.1463 43.239C57.1014 43.0814 57.0006 42.8901 56.5658 42.8453C56.2647 42.8109 55.1613 42.7893 54.9716 42.7893C54.9163 42.7893 54.8939 42.8229 54.8939 42.8685V43.8568C54.8939 44.2393 54.8827 45.5429 54.8939 45.7783C54.9268 46.5544 55.0948 46.7001 56.1863 46.7001C56.4769 46.7001 56.967 46.7001 57.2576 46.5761C57.5474 46.4528 57.6804 46.2272 57.7588 45.767C57.7813 45.6438 57.8029 45.5982 57.8597 45.5982C57.9262 45.5982 57.9262 45.6879 57.9262 45.767C57.9262 45.8567 57.8365 46.6217 57.7813 46.8577C57.7036 47.1498 57.6132 47.1498 57.1799 47.1498C55.496 47.1498 54.749 47.0826 54.4247 47.0826C54.3694 47.0826 53.6672 47.1162 53.3333 47.1162C53.2108 47.1162 53.154 47.0938 53.154 47.0266C53.154 46.9922 53.1764 46.9586 53.2436 46.9586C53.343 46.9586 53.4775 46.9362 53.5776 46.913C53.8009 46.8675 53.8562 46.6209 53.9003 46.2952C53.9571 45.8231 53.9571 44.9348 53.9571 43.8561V41.8786H53.9578ZM61.5046 39.181C61.5046 39.113 61.5375 39.0682 61.5935 39.0458C61.7048 39.0114 62.0066 38.9778 62.3406 38.9778C63.5329 38.9778 64.2695 39.8205 64.2695 41.2257C64.2695 42.0811 63.9789 42.6869 63.5889 42.9574C63.3319 43.1367 63.0204 43.1703 62.7522 43.1703C62.2614 43.1703 61.7489 43.0918 61.5815 42.991C61.5571 42.9781 61.5368 42.9586 61.5231 42.9346C61.5093 42.9107 61.5027 42.8833 61.5039 42.8558V39.181H61.5046ZM60.6126 43.8568C60.6126 44.9348 60.6126 45.8238 60.5566 46.296C60.5118 46.6224 60.4565 46.869 60.2331 46.9138C60.133 46.9362 59.9985 46.9593 59.8992 46.9593C59.8319 46.9593 59.8103 46.993 59.8103 47.0273C59.8103 47.0946 59.8656 47.117 59.9881 47.117C60.3228 47.117 61.025 47.0834 61.0362 47.0834C61.0915 47.0834 61.7945 47.117 62.4078 47.117C62.5303 47.117 62.5856 47.0834 62.5856 47.0273C62.5856 46.993 62.5639 46.9593 62.4967 46.9593C62.3966 46.9593 62.1508 46.9369 61.9947 46.9138C61.6607 46.8682 61.5935 46.6217 61.5599 46.296C61.5038 45.8238 61.5039 44.9356 61.5039 43.8568V43.5871C61.5039 43.5303 61.5255 43.4967 61.5815 43.4967L62.9531 43.5199C63.0204 43.5199 63.0533 43.5416 63.0973 43.5871C63.3207 43.8792 63.8444 44.6323 64.3128 45.2508C64.9485 46.0935 65.3385 46.6448 65.8181 46.9033C66.108 47.0602 66.3866 47.117 67.0112 47.117H67.8023C68.004 47.117 68.0705 47.0946 68.0705 47.0273C68.0705 46.993 68.0249 46.9593 67.9696 46.9593C67.9024 46.9593 67.7463 46.9593 67.5349 46.9257C67.2562 46.8802 66.7758 46.7561 66.1752 46.1167C65.5283 45.4197 64.7692 44.4193 63.8556 43.239C64.8596 42.3059 65.2048 41.4744 65.2048 40.6422C65.2048 39.8668 64.714 39.3154 64.4353 39.113C63.8444 38.6872 63.0973 38.6192 62.3958 38.6192C62.05 38.6192 61.2028 38.6528 61.0803 38.6528C61.0242 38.6528 60.322 38.6192 59.82 38.6192C59.6967 38.6192 59.6414 38.6416 59.6414 38.7088C59.6414 38.7537 59.687 38.7768 59.7303 38.7768C59.8312 38.7768 60.0209 38.7873 60.1098 38.8104C60.4774 38.8881 60.567 39.0682 60.5887 39.4499C60.6119 39.81 60.6119 40.1238 60.6119 41.8779V43.8568H60.6126ZM70.7465 43.8568C70.7465 44.9348 70.7465 45.8238 70.8017 46.296C70.8354 46.6224 70.9026 46.869 71.2365 46.9138C71.3927 46.9362 71.6377 46.9593 71.7385 46.9593C71.8058 46.9593 71.8275 46.993 71.8275 47.0273C71.8275 47.0834 71.7722 47.117 71.6497 47.117C71.0356 47.117 70.3333 47.0834 70.2781 47.0834C70.2228 47.0834 69.519 47.117 69.1851 47.117C69.0626 47.117 69.0073 47.0946 69.0073 47.0273C69.0073 46.993 69.029 46.9593 69.0962 46.9593C69.1971 46.9593 69.3293 46.9369 69.4301 46.9138C69.6535 46.8682 69.7088 46.6217 69.7544 46.296C69.8096 45.8238 69.8096 44.9356 69.8096 43.8568V39.1025L68.1594 39.1249C67.4676 39.1362 67.2009 39.2153 67.0231 39.4843C66.8991 39.6755 66.867 39.7532 66.8334 39.8332C66.7998 39.9228 66.7661 39.9445 66.7213 39.9445C66.6877 39.9445 66.666 39.9109 66.666 39.8429C66.666 39.7316 66.8894 38.7649 66.9111 38.6752C66.9327 38.6072 66.9783 38.4616 67.0231 38.4616C67.1008 38.4616 67.2114 38.5729 67.5132 38.596C67.8359 38.6304 68.2602 38.6528 68.3932 38.6528H72.5753C73.2887 38.6528 73.589 38.54 73.6802 38.54C73.7354 38.54 73.7354 38.608 73.7354 38.676C73.7354 39.0121 73.7018 39.7883 73.7018 39.9116C73.7018 40.0132 73.6682 40.058 73.6234 40.058C73.5681 40.058 73.5457 40.0244 73.5345 39.8668L73.524 39.7428C73.4784 39.4058 73.2222 39.1474 72.1524 39.1249L70.7472 39.1025V43.8568H70.7465ZM77.5574 44.2057C77.5574 43.5983 77.4468 43.3503 77.3004 43.0253C77.2227 42.8453 75.7286 40.3725 75.3379 39.7883C75.0592 39.3722 74.7806 39.0913 74.5804 38.9569C74.4123 38.8448 74.2009 38.7776 74.1 38.7776C74.0447 38.7776 73.9894 38.7544 73.9894 38.6984C73.9894 38.6535 74.0335 38.6207 74.1336 38.6207C74.3465 38.6207 75.181 38.6543 75.2385 38.6543C75.3162 38.6543 75.7405 38.6207 76.1753 38.6207C76.2964 38.6207 76.3195 38.6543 76.3195 38.6984C76.3195 38.7439 76.2523 38.7544 76.1514 38.8C76.0625 38.8455 76.0072 38.912 76.0072 39.0024C76.0072 39.1376 76.0625 39.2721 76.1514 39.4402C76.3307 39.7674 78.0034 42.6667 78.2029 42.9932C78.4143 42.5203 79.8314 40.0595 80.0533 39.6882C80.199 39.4522 80.2431 39.2609 80.2431 39.1145C80.2431 38.9576 80.199 38.8336 80.0653 38.8C79.9644 38.7664 79.8987 38.7439 79.8987 38.6887C79.8987 38.6431 79.9644 38.6207 80.0765 38.6207C80.3656 38.6207 80.7227 38.6543 80.8116 38.6543C80.8788 38.6543 81.6812 38.6207 81.8926 38.6207C81.971 38.6207 82.0382 38.6431 82.0382 38.6887C82.0382 38.7439 81.9815 38.7783 81.8926 38.7783C81.7701 38.7783 81.5586 38.8231 81.3801 38.9352C81.1567 39.0697 81.0342 39.2049 80.7892 39.5089C80.4216 39.9587 78.8603 42.5995 78.6586 43.0829C78.492 43.4878 78.492 43.8366 78.492 44.2072V45.1731C78.492 45.3532 78.492 45.8253 78.5256 46.2975C78.5472 46.6239 78.6481 46.8704 78.982 46.9153C79.1382 46.9377 79.3832 46.9608 79.4841 46.9608C79.5513 46.9608 79.573 46.9945 79.573 47.0288C79.573 47.0849 79.5177 47.1185 79.3952 47.1185C78.7826 47.1185 78.0788 47.0849 78.0236 47.0849C77.9683 47.0849 77.2645 47.1185 76.9306 47.1185C76.8081 47.1185 76.7528 47.0961 76.7528 47.0288C76.7528 46.9945 76.7745 46.9608 76.8417 46.9608C76.9426 46.9608 77.0763 46.9384 77.1756 46.9153C77.399 46.8697 77.4999 46.6232 77.5215 46.2975C77.5552 45.8253 77.5552 45.3532 77.5552 45.1731V44.2057H77.5574ZM92.2393 44.2505C92.2393 43.3406 92.184 43.2158 91.7373 43.0926C91.6121 43.07 91.485 43.059 91.3578 43.0597C91.3137 43.0597 91.2689 43.0365 91.2689 42.9917C91.2689 42.9237 91.3242 42.9021 91.4467 42.9021C91.9487 42.9021 92.6502 42.9349 92.7077 42.9349C92.763 42.9349 93.4653 42.9021 93.7992 42.9021C93.9217 42.9021 93.9785 42.9237 93.9785 42.9917C93.9785 43.0365 93.9329 43.0597 93.8881 43.0597C93.8104 43.0597 93.7439 43.0702 93.6094 43.0926C93.3091 43.1493 93.2202 43.3406 93.1978 43.7336C93.1761 44.0921 93.1761 44.4306 93.1761 44.9012V46.1607C93.1761 46.6672 93.1642 46.6889 93.0305 46.7681C92.317 47.1498 91.3145 47.2731 90.6683 47.2731C89.8204 47.2731 88.2373 47.1611 86.9987 46.0711C86.3189 45.4749 85.6727 44.2729 85.6727 42.8685C85.6727 41.0695 86.5423 39.7995 87.5344 39.1698C88.5384 38.54 89.6426 38.4623 90.5009 38.4623C91.2024 38.4623 91.995 38.608 92.2065 38.6536C92.4395 38.7096 92.831 38.7544 93.1097 38.7656C93.2202 38.7776 93.2426 38.8216 93.2426 38.8672C93.2426 39.0241 93.1649 39.3393 93.1649 40.4637C93.1649 40.643 93.1433 40.6982 93.0641 40.6982C93.0088 40.6982 92.9969 40.631 92.9864 40.5294C92.9648 40.2679 92.8846 40.0146 92.7518 39.7883C92.4732 39.361 91.57 38.8769 90.1326 38.8769C89.4296 38.8769 88.5929 38.9449 87.7458 39.6195C87.0996 40.1357 86.6424 41.1592 86.6424 42.4733C86.6424 44.0578 87.4335 45.2053 87.8242 45.5877C88.7043 46.4528 89.7195 46.7898 90.7452 46.7898C91.1464 46.7898 91.7254 46.7218 92.016 46.5544C92.1601 46.4753 92.2393 46.352 92.2393 46.1607V44.2505ZM97.2977 39.181C97.2959 39.1517 97.3038 39.1226 97.3201 39.0981C97.3364 39.0737 97.3603 39.0553 97.3881 39.0458C97.4986 39.0114 97.7997 38.9778 98.1351 38.9778C99.3274 38.9778 100.064 39.8205 100.064 41.2257C100.064 42.0811 99.7734 42.6869 99.3842 42.9574C99.1272 43.1367 98.8149 43.1703 98.5482 43.1703C98.0567 43.1703 97.5427 43.0918 97.3769 42.991C97.3523 42.9782 97.3318 42.9587 97.318 42.9348C97.3041 42.9108 97.2973 42.8834 97.2984 42.8558V39.181H97.2977ZM96.4064 43.8568C96.4064 44.9348 96.4064 45.8238 96.3511 46.296C96.3056 46.6224 96.2503 46.869 96.0269 46.9138C95.9276 46.9362 95.7938 46.9593 95.693 46.9593C95.6258 46.9593 95.6041 46.993 95.6041 47.0273C95.6041 47.0946 95.6594 47.117 95.7819 47.117C96.1158 47.117 96.8195 47.0834 96.8308 47.0834C96.886 47.0834 97.5883 47.117 98.2024 47.117C98.3249 47.117 98.3802 47.0834 98.3802 47.0273C98.3802 46.993 98.3585 46.9593 98.2913 46.9593C98.1904 46.9593 97.9454 46.9369 97.7892 46.9138C97.4553 46.8682 97.3881 46.6217 97.3544 46.296C97.2977 45.8238 97.2977 44.9356 97.2977 43.8568V43.5871C97.2977 43.5303 97.3193 43.4967 97.3761 43.4967L98.7477 43.5199C98.8149 43.5199 98.8486 43.5416 98.8919 43.5871C99.1153 43.8792 99.639 44.6323 100.107 45.2508C100.744 46.0935 101.133 46.6448 101.612 46.9033C101.903 47.0602 102.181 47.117 102.806 47.117H103.597C103.799 47.117 103.865 47.0946 103.865 47.0273C103.865 46.993 103.819 46.9593 103.764 46.9593C103.697 46.9593 103.541 46.9593 103.329 46.9257C103.051 46.8802 102.572 46.7561 101.97 46.1167C101.324 45.4197 100.565 44.4193 99.6509 43.239C100.653 42.3059 100.999 41.4744 100.999 40.6422C100.999 39.8668 100.509 39.3154 100.231 39.113C99.6397 38.6872 98.8926 38.6192 98.1911 38.6192C97.8453 38.6192 96.9973 38.6528 96.8748 38.6528C96.8195 38.6528 96.1158 38.6192 95.6138 38.6192C95.4913 38.6192 95.436 38.6416 95.436 38.7088C95.436 38.7537 95.4816 38.7768 95.5249 38.7768C95.6257 38.7768 95.8155 38.7873 95.9044 38.8104C96.2734 38.8881 96.3609 39.0682 96.3848 39.4499C96.4064 39.81 96.4064 40.1238 96.4064 41.8779V43.8568ZM104.399 42.5412C104.399 40.0804 105.792 38.8441 107.654 38.8441C109.416 38.8441 111.045 40.2933 111.045 42.9917C111.045 46.2623 108.97 46.8465 107.966 46.8465C105.961 46.8465 104.399 45.1604 104.399 42.5412ZM103.34 42.8565C103.34 44.8795 104.611 47.2731 107.666 47.2731C110.354 47.2731 112.115 45.194 112.115 42.6765C112.115 40.058 110.241 38.4616 107.733 38.4616C104.656 38.4623 103.34 41.0359 103.34 42.8565ZM114.242 41.8786C114.242 40.1245 114.242 39.8107 114.219 39.4507C114.198 39.0682 114.109 38.8889 113.74 38.8112C113.615 38.788 113.488 38.7767 113.361 38.7776C113.315 38.7776 113.272 38.7544 113.272 38.7096C113.272 38.6423 113.327 38.6199 113.45 38.6199C113.952 38.6199 114.632 38.6536 114.733 38.6536C114.833 38.6536 115.501 38.6199 115.837 38.6199C115.96 38.6199 116.015 38.6423 116.015 38.7096C116.015 38.7544 115.97 38.7776 115.926 38.7776C115.833 38.7804 115.739 38.7916 115.648 38.8112C115.346 38.856 115.257 39.0585 115.235 39.4507C115.211 39.8107 115.211 40.1245 115.211 41.8786V43.4527C115.211 45.0708 115.569 45.7678 116.049 46.228C116.594 46.7449 117.096 46.8465 117.733 46.8465C118.413 46.8465 119.081 46.5208 119.482 46.0367C119.996 45.3972 120.13 44.441 120.13 43.2831V41.8779C120.13 40.1238 120.13 39.81 120.107 39.4499C120.085 39.0674 119.996 38.8881 119.628 38.8104C119.503 38.7872 119.376 38.776 119.248 38.7768C119.203 38.7768 119.16 38.7537 119.16 38.7088C119.16 38.6416 119.215 38.6192 119.337 38.6192C119.839 38.6192 120.452 38.6528 120.519 38.6528C120.597 38.6528 121.121 38.6192 121.456 38.6192C121.579 38.6192 121.634 38.6416 121.634 38.7088C121.634 38.7537 121.588 38.7768 121.545 38.7768C121.467 38.7768 121.399 38.7768 121.266 38.8104C120.966 38.8665 120.876 39.0577 120.853 39.4499C120.831 39.81 120.832 40.1238 120.832 41.8779V43.0806C120.832 44.2946 120.697 45.6438 119.806 46.4416C119.003 47.1603 118.167 47.2724 117.509 47.2724C117.13 47.2724 116.003 47.2275 115.211 46.4745C114.666 45.9471 114.242 45.1597 114.242 43.5191V41.8786ZM123.995 41.8786C123.995 40.1245 123.995 39.8107 123.973 39.4507C123.951 39.0682 123.862 38.8889 123.494 38.8112C123.369 38.788 123.242 38.7768 123.115 38.7776C123.069 38.7776 123.026 38.7544 123.026 38.7096C123.026 38.6423 123.081 38.6199 123.203 38.6199C123.705 38.6199 124.375 38.6536 124.463 38.6536C124.709 38.6536 125.356 38.6199 125.87 38.6199C127.263 38.6199 127.765 39.0921 127.943 39.2594C128.188 39.4962 128.5 40.0012 128.5 40.5974C128.5 42.1931 127.34 43.2726 125.757 43.2726C125.702 43.2726 125.579 43.2726 125.522 43.2607C125.467 43.2607 125.4 43.239 125.4 43.183C125.4 43.0926 125.467 43.0814 125.702 43.0814C126.783 43.0814 127.63 42.2835 127.63 41.2488C127.63 40.8783 127.597 40.1245 127.006 39.5186C126.415 38.912 125.735 38.9569 125.478 38.9569C125.288 38.9569 125.099 38.9785 124.998 39.0241C124.932 39.0465 124.909 39.1257 124.909 39.2378V43.8576C124.909 44.9356 124.909 45.8246 124.964 46.2967C124.998 46.6232 125.065 46.8697 125.399 46.9145C125.557 46.9369 125.8 46.9601 125.901 46.9601C125.968 46.9601 125.991 46.9937 125.991 47.0281C125.991 47.0841 125.935 47.1177 125.812 47.1177C125.2 47.1177 124.496 47.0841 124.441 47.0841C124.407 47.0841 123.705 47.1177 123.371 47.1177C123.248 47.1177 123.191 47.0953 123.191 47.0281C123.191 46.9937 123.215 46.9601 123.28 46.9601C123.381 46.9601 123.515 46.9377 123.616 46.9145C123.838 46.869 123.894 46.6224 123.939 46.2967C123.994 45.8246 123.994 44.9363 123.994 43.8576V41.8786H123.995ZM82.4514 34.2414C92.7234 34.2414 99.1197 26.416 99.1197 16.634C99.1197 6.39333 91.5356 0.00224279 82.7061 0.00224279C70.9429 0.00224279 66.1072 9.65648 66.1072 16.7311C66.108 24.5924 70.7726 34.2414 82.4514 34.2414ZM82.4327 1.51205C89.1667 1.51205 95.3897 7.14487 95.3897 17.6268C95.3897 30.79 87.9056 32.6061 83.6265 32.6061C75.9542 32.6061 69.9867 26.0544 69.9867 15.8795C69.9867 4.75577 76.0752 1.51205 82.4327 1.51205ZM100.08 33.6535H106.539C107.009 33.6535 107.222 33.5668 107.222 33.3046C107.222 33.1298 107.051 33.0416 106.88 33.0416C106.583 33.0416 106.326 32.9976 105.815 32.9102C104.664 32.6928 104.238 31.9524 104.238 30.421L104.241 6.32236C104.241 6.32236 127.346 33.5026 127.837 33.6684C128.024 33.7312 128.472 34.0091 128.472 32.9371C128.472 32.0339 128.477 30.8341 128.477 30.8341L128.48 3.85109C128.48 2.36369 128.44 1.55612 129.633 1.40522C130.115 1.34396 130.655 1.23115 130.955 1.23115C131.126 1.23115 131.295 1.14375 131.295 0.968935C131.295 0.705971 131.082 0.5969 130.613 0.5969H123.715C123.247 0.5969 123.034 0.705971 123.034 0.968935C123.034 1.143 123.203 1.23115 123.375 1.23115C123.673 1.23115 123.925 1.2954 124.439 1.36189C125.936 1.55612 125.976 2.46604 125.976 3.85109L125.985 27.1376C125.985 27.1376 104.694 2.14107 104.055 1.39849C103.375 0.702233 102.889 0.0366072 102.51 0.158378C102.211 0.254001 102.095 0.481853 102.095 2.1844C102.095 2.1844 102.104 29.0374 102.103 30.4202C102.101 31.9076 101.878 32.6479 100.941 32.8661C100.551 32.9764 100.148 33.035 99.742 33.0402C99.571 33.0402 99.4021 33.1276 99.4021 33.3031C99.3991 33.5668 99.612 33.6535 100.08 33.6535ZM31.4295 33.6692H38.5938C39.1055 33.6692 39.361 33.5818 39.361 33.2762C39.361 33.1447 39.19 33.0581 39.0204 33.0581C38.4735 33.053 37.9294 32.9794 37.4008 32.8392C36.2137 32.521 36.1427 30.988 36.1517 29.2182L36.1196 8.95425H36.2891C36.7583 10.1339 46.0099 29.393 47.1177 31.5326C47.9268 33.1044 48.1405 33.5414 48.4393 33.5414C48.8225 33.5414 48.9241 33.2747 49.8191 31.3525L59.5368 8.54187H59.6638L59.6646 8.94827L59.6653 28.1357C59.6653 28.1357 59.6078 30.2058 59.5891 30.4456C59.4741 31.9278 59.0774 32.6726 58.1406 32.8915C57.7088 33.0031 57.265 33.0616 56.819 33.0656C56.648 33.0656 56.4776 33.153 56.4776 33.3285C56.4776 33.59 56.6913 33.6774 57.1605 33.6774C58.5664 33.6774 60.9585 33.6684 61.1722 33.6684C61.3843 33.6684 64.0693 33.6774 65.349 33.6774C65.8174 33.6774 66.0303 33.59 66.0303 33.3285C66.0303 33.1537 65.8592 33.0656 65.6896 33.0656C65.3915 33.0656 65.1353 33.0215 64.6236 32.9341C63.4724 32.7159 63.2953 31.9547 63.0473 30.4449C63.0338 30.3649 63.0144 28.5981 63.0144 28.5981L63.0062 1.86316L63.0077 1.17886C63.0189 0.303305 62.7948 0 62.4967 0C62.1986 0 62.0283 0.305548 61.858 0.698501L48.8666 28.687L35.0378 0.657412C34.8249 0.177054 34.6546 0.00298944 34.3983 0.00298944C34.1436 0.00298944 33.9307 0.281644 33.9307 0.788896L33.9322 29.263C33.9307 31.0866 33.8164 32.6659 32.4112 32.9273C31.7709 33.0588 31.4728 33.0588 31.1322 33.0588C30.9193 33.0588 30.7064 33.1455 30.7064 33.277C30.7056 33.5818 31.0037 33.6692 31.4295 33.6692ZM21.9381 30.4464C21.8522 31.9315 21.4264 32.6734 20.4888 32.8922C20.0571 33.0038 19.6133 33.0623 19.1673 33.0663C18.997 33.0663 18.8259 33.1537 18.8259 33.3293C18.8259 33.5907 19.0396 33.6781 19.508 33.6781C20.9147 33.6781 23.5757 33.6692 23.7894 33.6692H27.6098C28.0782 33.6692 28.2919 33.5907 28.2919 33.3293C28.2919 33.1545 28.1208 33.0663 27.9512 33.0663C27.6516 33.0663 27.3969 33.0222 26.8852 32.9348C25.7339 32.7167 25.3933 31.9748 25.3081 30.4456C25.2222 29.0486 25.2222 27.8249 25.2222 21.0125L25.2349 13.2775C25.2349 6.46504 25.2349 5.24211 25.3201 3.84511C25.4045 2.31663 25.7459 1.57405 26.8964 1.35591C27.4081 1.2685 27.6636 1.22518 27.9624 1.22518C28.1327 1.22518 28.3031 1.13777 28.3031 0.962957C28.3031 0.700739 28.0902 0.613337 27.6218 0.613337C26.342 0.613337 24.0508 0.597646 23.8372 0.597646C23.6235 0.597646 20.9266 0.613337 19.5207 0.613337C19.0515 0.613337 18.8378 0.700739 18.8378 0.962957C18.8378 1.13702 19.0089 1.22518 19.1785 1.22518C19.4766 1.22518 20.0309 1.26925 20.5001 1.39924C21.4376 1.61813 21.8634 2.35996 21.9493 3.84511C22.0345 5.24286 22.0345 6.46504 22.0345 13.2782L22.0226 21.0133C22.0233 27.8257 22.0233 29.0494 21.9381 30.4464ZM0.638753 33.0626C2.43916 33.7917 4.38451 34.1331 6.38737 34.1331C8.68906 34.1331 10.9526 33.7177 12.7852 32.4067C15.7263 30.2671 16.6056 27.3879 16.6139 25.1572C16.6258 21.1731 15.0884 19.0612 10.1854 14.8941L8.99236 13.9341C4.98663 10.5716 3.79283 9.08647 3.79283 6.59727C3.79283 3.40883 6.06389 1.72048 9.00357 1.67117C13.3567 1.59796 14.2367 2.71855 14.4511 3.71811C14.5654 4.253 14.8747 5.50508 14.9173 6.02951C14.9599 6.37913 15.0024 6.59727 15.2587 6.59727C15.4723 6.59727 15.5568 6.29173 15.5568 5.59248C15.5568 2.62293 15.7278 1.18184 15.7278 0.963703C15.7278 0.744815 15.6419 0.657412 15.3013 0.657412C14.9599 0.657412 14.6319 0.534148 13.8094 0.439271C12.6679 0.306295 11.4763 0.14269 9.81413 0.14269C4.40169 0.14269 1.02199 3.19144 1.02199 7.86429C1.02199 10.8338 2.04547 13.5419 6.56293 17.3407L8.48063 18.9566C12.1464 22.0577 13.3828 23.805 13.3828 26.8179C13.3828 29.6126 11.4173 32.4784 7.32568 32.518C3.98558 32.5493 1.46425 31.6723 0.98016 28.1716C0.903433 27.6364 0.860765 27.097 0.852412 26.5564C0.852412 26.2068 0.80983 26.0753 0.554336 26.0753C0.341424 26.0753 0.25626 26.2935 0.213677 26.7746C0.170348 27.4738 1.85697e-05 29.2197 1.85697e-05 31.4041C-0.000728489 32.5815 0.0179477 32.8108 0.638753 33.0626Z" fill="white"/>
</svg>
