<svg width="166" height="40" viewBox="0 0 166 40" fill="none" xmlns="http://www.w3.org/2000/svg">
<path fill-rule="evenodd" clip-rule="evenodd" d="M15.5507 0C6.96148 0 0 6.96148 0 15.5507C0 24.1371 6.96148 31.1014 15.5507 31.1014C24.1399 31.1014 31.1014 24.1371 31.1014 15.5507C31.1005 6.96242 24.1399 0 15.5507 0ZM2.06318 13.4998C2.0613 8.71929 8.09722 5.22535 15.5488 5.69567V8.09062C9.57887 7.71079 4.73618 10.5101 4.73618 14.3405C4.73807 18.1728 9.5817 21.5866 15.5535 21.9665V23.0117C8.10194 22.5405 2.06318 18.2802 2.06318 13.4998ZM15.5507 10.5157V9.82864C20.1775 10.1236 23.9307 12.7674 23.9326 15.7373C23.9326 18.7053 20.1794 20.8816 15.5526 20.5866V18.3613C18.9306 18.5753 21.6649 16.9899 21.6649 14.8231C21.6649 12.6562 18.9287 10.7306 15.5507 10.5157ZM15.5507 12.7392C12.1727 12.5252 9.43749 14.1105 9.43749 16.2764C9.43749 18.4433 12.1746 20.3755 15.5526 20.5894V21.2718C10.9257 20.9778 7.17072 18.333 7.17072 15.3641C7.16884 12.3942 10.922 10.2236 15.5488 10.5167L15.5507 12.7392ZM15.5535 25.402V23.0108C21.5235 23.3887 26.3652 20.5904 26.3643 16.7581C26.3633 12.9258 21.5206 9.51384 15.5488 9.134V8.0878C23.0004 8.56 29.0373 12.8193 29.0392 17.5998C29.0392 22.3821 23.0032 25.8751 15.5535 25.402Z" fill="white"/>
<path fill-rule="evenodd" clip-rule="evenodd" d="M45.4141 15.7389C45.4141 10.8264 48.5348 7.77456 53.5603 7.77456C54.8977 7.77456 56.2154 7.99417 57.4218 8.37118C57.2701 8.88862 56.7357 10.7265 56.5792 11.2572C55.7055 10.8811 54.7818 10.6436 53.926 10.6436C51.1531 10.6436 49.3623 12.6031 49.3623 15.6333C49.3623 18.525 51.2568 20.4685 54.0796 20.4685C55.0221 20.4685 55.9402 20.2394 56.7517 19.8813C56.8968 20.4195 57.354 22.1188 57.4784 22.5882C56.2804 23.0284 54.6546 23.3139 53.205 23.3139C48.4716 23.313 45.4141 20.3393 45.4141 15.7389ZM64.8696 10.7331H64.5068V20.3997H66.2043C69.603 20.3997 71.2534 18.7814 71.2534 15.4552C71.2534 13.3015 70.3589 10.7331 66.0959 10.7331H64.8696ZM65.979 8.19021C68.6652 8.19021 74.9528 8.19021 74.9528 15.212C74.9528 20.4835 72.0526 22.9398 65.8254 22.9398H60.5312V8.19115L65.979 8.19021ZM82.0773 10.6191H81.7163V15.5523H83.5212C85.2168 15.5523 86.231 14.6305 86.231 13.0885C86.231 11.5192 85.2348 10.6191 83.5015 10.6191H82.0773ZM83.4496 8.19021H83.5966C84.5759 8.18361 87.1792 8.17042 88.69 9.67186C89.4544 10.4344 89.8446 11.4994 89.8446 12.8463C89.8446 16.2573 87.772 17.9877 83.6909 17.9877H81.5325V22.9398H77.7407V8.19115L83.4496 8.19021ZM95.5422 15.7653C95.5422 10.8528 98.6638 7.80283 103.688 7.80283C105.025 7.80283 106.344 8.02244 107.549 8.39757C107.4 8.91501 106.864 10.7529 106.709 11.2836C105.833 10.9084 104.911 10.67 104.057 10.67C101.283 10.67 99.4895 12.6295 99.4895 15.6597C99.4895 18.5533 101.386 20.4949 104.21 20.4949C105.152 20.4949 106.069 20.2658 106.881 19.9086L107.609 22.6146C106.411 23.0548 104.784 23.3403 103.337 23.3403C98.5997 23.3394 95.5422 20.3657 95.5422 15.7653ZM112.239 19.5768C112.239 18.3544 113.782 18.1706 114.704 18.1706H115.44V19.0632C115.44 19.5702 115.303 19.935 114.994 20.2507C114.641 20.6089 114.127 20.7984 113.509 20.7984C112.762 20.7993 112.239 20.2969 112.239 19.5768ZM109.579 12.4485L109.46 12.5221L110.659 14.8774L110.818 14.7473C111.585 14.1258 112.542 13.7844 113.529 13.7794C114.775 13.7794 115.462 14.2648 115.462 15.1441V15.8633C115.462 16.0546 115.409 16.0989 114.875 16.0989C112.173 16.0989 108.951 16.7427 108.951 19.804C108.951 21.7852 110.437 23.2206 112.484 23.2206C114.056 23.2206 114.941 22.6777 115.779 21.7871C116.048 22.6466 116.696 23.1188 117.629 23.1188C118.384 23.1188 119.181 22.936 119.566 22.8474L119.701 22.8182L119.5 20.623L119.309 20.6834C119.166 20.7336 119.018 20.7662 118.867 20.7804C118.729 20.7804 118.622 20.7371 118.622 20.2149V15.1658C118.622 11.6728 115.582 11.2977 114.278 11.2977C112.291 11.2958 110.884 11.6389 109.579 12.4485ZM125.133 19.6193V15.8831C125.133 15.2921 125.175 15.0442 125.66 14.5984C126.046 14.2506 126.446 14.0876 126.915 14.0876C128.833 14.0876 129.039 16.5212 129.039 17.5655C129.039 18.5636 128.823 20.8813 126.809 20.8813C125.711 20.8813 125.133 20.4449 125.133 19.6193ZM124.919 12.9302V11.6446H121.823V27.0162H125.133V22.6532C125.781 23.0953 126.659 23.2621 127.321 23.2621C129.004 23.2621 130.388 22.5279 131.321 21.1395C132.054 20.0453 132.474 18.5947 132.474 17.1555C132.474 14.3326 131.103 11.2958 128.088 11.2958C126.78 11.2958 125.786 11.8067 124.919 12.9302ZM134.539 8.05826C134.539 9.0809 135.3 9.79722 136.386 9.79722C137.479 9.79722 138.212 9.0988 138.212 8.05826C138.212 7.01677 137.48 6.31836 136.386 6.31836C135.3 6.31836 134.539 7.03374 134.539 8.05826ZM137.855 11.6446H134.705V22.9124H138.015V11.6446H137.855ZM144.999 8.7152L141.944 9.67468V11.8698H139.96V14.229H141.9V19.9463C141.9 22.0538 143.159 23.2621 145.348 23.2621C146.389 23.2621 147.45 23.1104 147.996 22.968L148.132 22.9341L147.788 20.5005L147.58 20.5674C147.321 20.6504 146.927 20.7786 146.352 20.7786C145.82 20.7786 145.21 20.6428 145.21 19.5985V14.229H147.816V11.8698H145.21V8.65016L144.999 8.7152ZM152.793 19.5768C152.793 18.3544 154.34 18.1706 155.26 18.1706H155.996V19.0632C155.996 19.5702 155.859 19.935 155.548 20.2507C155.195 20.6089 154.681 20.7984 154.063 20.7984C153.316 20.7993 152.793 20.2969 152.793 19.5768ZM150.135 12.4485L150.015 12.5221L151.215 14.8774L151.374 14.7473C152.141 14.1258 153.098 13.7844 154.085 13.7794C155.331 13.7794 156.018 14.2648 156.018 15.1441V15.8633C156.018 16.0546 155.965 16.0989 155.431 16.0989C152.729 16.0989 149.505 16.7427 149.505 19.804C149.505 21.7852 150.993 23.2206 153.04 23.2206C154.61 23.2206 155.497 22.6777 156.335 21.7871C156.604 22.6466 157.25 23.1188 158.185 23.1188C158.938 23.1188 159.737 22.936 160.12 22.8474L160.257 22.8182L160.056 20.623L159.865 20.6834C159.722 20.7334 159.573 20.766 159.423 20.7804C159.283 20.7804 159.178 20.7371 159.178 20.2149V15.1658C159.178 11.6728 156.138 11.2977 154.834 11.2977C152.845 11.2958 151.44 11.6389 150.135 12.4485ZM165.49 7.41546H162.342V22.9124H165.65V7.41546H165.49ZM49.2049 33.2727C49.2049 33.9673 48.5809 34.1275 48.0465 34.1275H47.2887V32.4602H47.9664C48.5187 32.4611 49.2049 32.5507 49.2049 33.2727ZM51.1833 37.6752C50.6045 36.8542 49.5338 35.2604 49.2775 34.8052C49.8298 34.7157 50.6488 34.2435 50.6488 33.1925C50.6488 31.446 48.859 31.3829 47.941 31.3829H45.8995V37.6752H47.2897V35.1624H47.6987C47.842 35.1624 48.0381 35.1879 48.2435 35.5366L49.4999 37.6752H51.1833ZM54.615 34.6629H52.7884C52.7884 34.2444 53.0108 33.6384 53.7234 33.6384C54.3558 33.6384 54.6583 34.1633 54.615 34.6629ZM55.7913 34.9918C55.7913 33.8966 55.2465 32.7637 53.7771 32.7637C52.253 32.7637 51.5753 34.0747 51.5753 35.3321C51.5753 36.8109 52.5113 37.826 54.0005 37.826C54.5844 37.8197 55.1608 37.6926 55.6932 37.4527L55.3633 36.5253C55.1136 36.6591 54.6583 36.8382 54.2323 36.8382C53.4283 36.8382 52.8157 36.3839 52.8157 35.5375V35.5111H55.7658C55.7818 35.3481 55.7913 35.1445 55.7913 34.9918ZM59.4002 36.0719C59.4002 36.3019 59.338 36.4819 59.1947 36.6318C59.0345 36.8024 58.8026 36.891 58.5265 36.891C58.4473 36.8936 58.3684 36.88 58.2947 36.8508C58.2211 36.8216 58.1542 36.7776 58.0983 36.7214C58.0425 36.6653 57.9987 36.5982 57.9699 36.5244C57.9411 36.4506 57.9278 36.3717 57.9308 36.2925C57.9308 35.7232 58.5896 35.6167 59.026 35.6167H59.4011L59.4002 36.0719ZM61.0402 37.6488L60.9695 36.8382C60.9029 36.8606 60.834 36.8752 60.764 36.8816C60.6113 36.8816 60.5944 36.7411 60.5944 36.5715V34.3782C60.5944 33.0069 59.5161 32.7646 58.8479 32.7646C58.0269 32.7646 57.4482 32.9173 56.9223 33.2557L57.3587 34.1464C57.6876 33.8669 58.1043 33.7121 58.5359 33.709C59.1947 33.709 59.4096 34.0304 59.4096 34.3688V34.6798C59.4096 34.842 59.2937 34.8495 59.0976 34.8495C58.0458 34.8495 56.6904 35.0993 56.6904 36.3924C56.6904 37.203 57.2616 37.809 58.0995 37.809C58.7479 37.809 59.1146 37.5772 59.5067 37.1144C59.5793 37.4886 59.8017 37.7647 60.2475 37.7647C60.5406 37.7647 60.8526 37.6931 61.0402 37.6488ZM61.895 31.0803H63.142V37.6752H61.895V31.0803ZM66.6265 37.6752V31.3829H70.5229V32.5139H68.0177V33.8071H70.4334V34.8957H68.0177V36.5442H70.6567V37.6752H66.6265ZM72.8924 37.826C72.4032 37.8242 71.9224 37.6987 71.4946 37.4612L71.8773 36.5432C72.1799 36.7572 72.6162 36.8995 72.9914 36.8995C73.3213 36.8995 73.7218 36.7835 73.7218 36.4084C73.7218 36.0531 73.276 35.9287 73.0178 35.8307L72.6247 35.6799C72.0093 35.4376 71.6002 35.0719 71.6002 34.3773C71.6002 33.4781 72.358 32.7637 73.4721 32.7637C74.0687 32.7637 74.5041 32.9503 74.7558 33.0766L74.3712 33.9946C74.0816 33.8155 73.7494 33.7169 73.4089 33.709C72.8999 33.709 72.7501 33.9673 72.7501 34.1812C72.7501 34.4668 73.08 34.6091 73.3099 34.6893L73.7294 34.842C74.407 35.0917 74.8887 35.4565 74.8887 36.2491C74.8896 37.1766 74.1412 37.826 72.8924 37.826ZM77.4825 37.826C76.6371 37.826 76.1102 37.3726 76.1102 36.4546V33.9051H75.2987V33.0144H76.1271V32.0436L77.3571 31.643V33.0144H78.4448V33.9051H77.3571V36.3019C77.3571 36.7751 77.6154 36.8806 77.9 36.8806C78.1592 36.8806 78.3374 36.8203 78.4448 36.7836L78.5683 37.7016C78.2125 37.7853 77.848 37.8271 77.4825 37.826ZM81.9303 36.0719C81.9303 36.3019 81.8671 36.4819 81.7248 36.6318C81.5646 36.8024 81.3327 36.891 81.0565 36.891C80.9773 36.8938 80.8983 36.8802 80.8245 36.8511C80.7508 36.8219 80.6838 36.7779 80.6278 36.7218C80.5718 36.6656 80.528 36.5985 80.4991 36.5246C80.4702 36.4508 80.4569 36.3717 80.4599 36.2925C80.4599 35.7232 81.1187 35.6167 81.5551 35.6167H81.9303V36.0719ZM83.5693 37.6488L83.4977 36.8382C83.4314 36.8606 83.3628 36.8752 83.2932 36.8816C83.1414 36.8816 83.1235 36.7411 83.1235 36.5715V34.3782C83.1235 33.0069 82.0462 32.7646 81.377 32.7646C80.557 32.7646 79.9774 32.9173 79.4524 33.2557L79.8888 34.1464C80.2176 33.8669 80.6344 33.7121 81.066 33.709C81.7248 33.709 81.9378 34.0304 81.9378 34.3688V34.6798C81.9378 34.842 81.8228 34.8495 81.6268 34.8495C80.574 34.8495 79.2196 35.0993 79.2196 36.3924C79.2196 37.203 79.7907 37.809 80.6277 37.809C81.279 37.809 81.6447 37.5772 82.0368 37.1144C82.1075 37.4886 82.3308 37.7647 82.7757 37.7647C83.0698 37.7647 83.3827 37.6931 83.5693 37.6488ZM86.0378 37.826C85.1914 37.826 84.6645 37.3726 84.6645 36.4546V33.9051H83.8549V33.0144H84.6834V32.0436L85.9153 31.643V33.0144H87.001V33.9051H85.9153V36.3019C85.9153 36.7751 86.1707 36.8806 86.4563 36.8806C86.7155 36.8806 86.8927 36.8203 87.001 36.7836L87.1245 37.7016C86.7683 37.7852 86.4036 37.8269 86.0378 37.826ZM90.6458 34.6629H88.8182C88.8182 34.2444 89.0407 33.6384 89.7551 33.6384C90.3875 33.6384 90.6901 34.1633 90.6458 34.6629ZM91.8202 34.9918C91.8202 33.8966 91.2792 32.7637 89.8079 32.7637C88.2838 32.7637 87.6061 34.0747 87.6061 35.3321C87.6061 36.8109 88.5411 37.826 90.0303 37.826C90.7259 37.826 91.3574 37.6215 91.724 37.4527L91.3941 36.5253C91.1434 36.6591 90.6891 36.8382 90.2603 36.8382C89.4591 36.8382 88.8446 36.3839 88.8446 35.5375V35.5111H91.7938C91.8126 35.3481 91.8202 35.1445 91.8202 34.9918ZM97.8467 37.826C95.7514 37.826 94.726 36.4546 94.726 34.5997C94.726 32.8447 95.7166 31.2132 97.9711 31.2132C98.8947 31.2132 99.4753 31.3904 100.02 31.6242L99.5837 32.7298C99.1224 32.475 98.6045 32.3402 98.0776 32.3377C96.758 32.3377 96.1614 33.317 96.1614 34.5649C96.1614 35.9287 96.9362 36.7402 97.9343 36.7402C98.2378 36.7402 98.5837 36.694 98.7458 36.6412V35.5554H97.612V34.4235H100.073V37.4367C99.6111 37.613 98.71 37.826 97.8467 37.826ZM103.835 34.1369C103.745 34.0926 103.569 34.0116 103.399 34.0116C103.13 34.0116 102.986 34.0926 102.872 34.1992C102.703 34.35 102.694 34.546 102.694 34.8052V37.6752H101.448V34.12C101.448 33.709 101.411 33.1398 101.402 32.9173H102.524V33.6299C102.81 33.1746 103.123 32.8014 103.71 32.8014C103.888 32.8014 104.067 32.8551 104.164 32.8909L103.835 34.1369ZM107.854 35.3142C107.854 35.9824 107.65 36.8637 106.854 36.8637C106.063 36.8637 105.902 35.9466 105.902 35.2783C105.902 34.6091 106.107 33.727 106.901 33.727C107.694 33.727 107.854 34.645 107.854 35.3142ZM109.155 35.3038C109.155 33.9494 108.459 32.7467 106.9 32.7467C105.359 32.7467 104.601 33.9409 104.601 35.2868C104.601 36.6403 105.294 37.8439 106.854 37.8439C108.397 37.8448 109.155 36.6507 109.155 35.3038ZM112.837 37.6752V37.087C112.515 37.5413 112.116 37.826 111.518 37.826C110.493 37.826 110.066 37.1134 110.066 36.186V32.9164H111.312V35.9287C111.312 36.4084 111.499 36.7468 111.972 36.7468C112.073 36.7483 112.173 36.7294 112.266 36.6911C112.36 36.6529 112.444 36.5962 112.515 36.5244C112.731 36.2925 112.747 36.169 112.747 35.8486V32.9164H113.995V37.6752H112.837ZM118.29 35.4197C118.29 36.071 118.095 36.9268 117.292 36.9268C116.722 36.9268 116.525 36.6403 116.525 36.3123V34.6893C116.525 34.4131 116.552 34.2887 116.766 34.0832C116.84 34.0075 116.929 33.9472 117.027 33.9058C117.125 33.8644 117.23 33.8427 117.336 33.8419C118.13 33.8429 118.29 34.7788 118.29 35.4197ZM119.592 35.2416C119.592 34.0926 119.074 32.7637 117.826 32.7637C117.167 32.7637 116.766 33.103 116.436 33.6195V32.9164H115.278V39.4575H116.524V37.4876C116.765 37.7185 117.167 37.825 117.505 37.825C119.03 37.826 119.592 36.3123 119.592 35.2416Z" fill="white"/>
</svg>
