<svg width="254" height="42" viewBox="0 0 254 42" fill="none" xmlns="http://www.w3.org/2000/svg">
<path d="M22.4508 20.7078C22.6133 15.5281 24.6344 11.0594 28.514 7.30156C32.3937 3.52344 37.7969 1.63437 44.7234 1.63437C50.5531 1.63437 55.4484 3.47266 59.4094 7.14922C63.3703 10.8055 65.3508 15.8734 65.3508 22.3531C65.3508 27.7156 63.2992 32.2656 59.1961 36.0031C55.093 39.7406 49.8422 41.6094 43.4437 41.6094C37.3297 41.6094 32.343 39.7203 28.4836 35.9422C24.6242 32.1641 22.6133 27.6547 22.4508 22.4141C21.6992 22.4141 20.9883 22.3937 20.318 22.3531C19.5664 22.3125 18.1547 22.2922 16.0828 22.2922L14.2851 22.3227L12.7312 22.3531C11.9187 22.3531 11.5125 22.7797 11.5125 23.6328L11.543 25.7656L11.3906 31.5242L11.3601 33.2914C11.3601 35.7695 11.4211 37.3945 11.543 38.1664C11.6851 38.9383 11.8578 39.4258 12.0609 39.6289C12.2844 39.8117 13.1273 40.0555 14.5898 40.3602C15.6664 40.5836 16.3773 40.7766 16.7226 40.9391C16.8445 41.0609 16.9055 41.1625 16.9055 41.2438C16.9055 41.5078 16.6922 41.6398 16.2656 41.6398C16.1031 41.6398 15.9 41.6297 15.6562 41.6094L14.3765 41.5789C13.3406 41.5586 12.0508 41.4875 10.507 41.3656C9.5117 41.2844 8.62811 41.2438 7.85623 41.2438L1.61014 41.4266L0.208575 41.457L0.239044 40.7867C0.848419 40.4211 1.65076 40.1773 2.64608 40.0555C4.35233 39.8523 5.42889 39.5578 5.87576 39.1719C6.32264 38.7859 6.57654 37.943 6.63748 36.643L6.57654 34.3273L6.60701 32.1945L6.54608 29.1477C6.54608 28.3961 6.5867 27.2383 6.66795 25.6742L6.72889 23.3281L6.82029 10.5312L6.9117 7.54531C6.9117 5.47344 6.82029 4.32578 6.63748 4.10234C6.47498 3.87891 5.64217 3.69609 4.13904 3.55391C3.00154 3.45234 2.34139 3.38125 2.15858 3.34062C2.05701 3.1375 2.00623 2.95469 2.00623 2.79219C2.00623 2.62969 2.01639 2.43672 2.0367 2.21328C2.5242 2.17266 2.91014 2.15234 3.19451 2.15234L6.02811 2.18281C8.05936 2.18281 10.2125 2.10156 12.4875 1.93906C13.6047 1.85781 15.2906 1.78672 17.5453 1.72578C17.5859 1.90859 17.6062 2.08125 17.6062 2.24375C17.6062 2.65 17.4031 2.88359 16.9969 2.94453L16.4484 2.975C14.214 3.11719 12.843 3.43203 12.3351 3.91953C11.8273 4.38672 11.5734 5.50391 11.5734 7.27109C11.5734 11.3539 11.6344 14.8477 11.7562 17.7523C11.7765 18.0367 11.7867 18.3008 11.7867 18.5445C11.7867 18.707 11.7765 18.8594 11.7562 19.0016V19.5195C11.7562 20.068 11.7867 20.3727 11.8476 20.4336C11.9086 20.4742 12.4062 20.4945 13.3406 20.4945L13.889 20.525C16.5703 20.6469 19.4242 20.7078 22.4508 20.7078ZM43.9008 2.76172C40.9148 2.76172 38.1828 3.48281 35.7047 4.925C33.2265 6.36719 31.3172 8.77422 29.9765 12.1461C28.6562 15.4977 27.9961 18.5547 27.9961 21.3172C27.9961 24.5672 28.6765 27.7664 30.0375 30.9148C31.3984 34.043 33.257 36.4195 35.6133 38.0445C37.9898 39.6695 40.732 40.482 43.8398 40.482C48.6742 40.482 52.5437 38.9281 55.4484 35.8203C58.3531 32.7125 59.8055 27.8578 59.8055 21.2562C59.8055 15.6094 58.3328 11.1203 55.3875 7.78906C52.4422 4.4375 48.6133 2.76172 43.9008 2.76172ZM69.5555 41.457L69.5859 40.7867C70.2765 40.4008 71.0789 40.157 71.993 40.0555C73.4351 39.8727 74.3492 39.6898 74.7351 39.507C75.1211 39.3039 75.3953 39.0297 75.5578 38.6844C75.8422 38.0141 75.9844 37.3336 75.9844 36.643L75.9234 34.3273L75.9539 32.1945L75.893 29.6961C75.893 28.6602 75.9234 27.3703 75.9844 25.8266C76.0453 24.2625 76.0758 23.4297 76.0758 23.3281V15.0102C76.0758 13.6898 76.1062 12.268 76.1672 10.7445C76.2281 9.20078 76.2586 8.13437 76.2586 7.54531C76.2586 5.79844 76.218 4.78281 76.1367 4.49844C76.0555 4.21406 75.9031 4.01094 75.6797 3.88906C75.4562 3.76719 74.725 3.65547 73.4859 3.55391C72.5312 3.47266 71.8711 3.40156 71.5055 3.34062C71.4039 3.11719 71.3531 2.93437 71.3531 2.79219C71.3531 2.62969 71.3633 2.43672 71.3836 2.21328C71.8711 2.17266 72.2469 2.15234 72.5109 2.15234L75.375 2.18281C77.4062 2.18281 79.5594 2.10156 81.8344 1.93906C82.9515 1.85781 84.6375 1.78672 86.8922 1.72578C86.9328 1.90859 86.9531 2.08125 86.9531 2.24375C86.9531 2.44687 86.9023 2.60937 86.8008 2.73125C86.7195 2.83281 86.5672 2.90391 86.3437 2.94453C83.6828 3.16797 82.1086 3.50312 81.6211 3.95C81.1539 4.37656 80.9203 5.48359 80.9203 7.27109C80.9203 10.5617 80.9711 13.9539 81.0726 17.4477L81.1945 20.3117C81.2961 20.393 82.6164 20.4945 85.1555 20.6164C85.8461 20.657 86.2523 20.6773 86.3742 20.6773L90.8531 20.6164L93.8086 20.7078L101.548 20.4641C102.502 20.4437 103.081 20.4031 103.284 20.3422C103.406 16.8078 103.467 13.3852 103.467 10.0742C103.467 6.88516 103.396 5.00625 103.254 4.4375C103.173 4.09219 103.03 3.85859 102.827 3.73672C102.705 3.67578 101.649 3.51328 99.6586 3.24922C99.3133 3.20859 98.9883 3.15781 98.6836 3.09687C98.582 2.79219 98.5312 2.44687 98.5312 2.06094C99.2219 1.95937 99.6586 1.90859 99.8414 1.90859L101.852 2.03047C103.701 2.13203 105.559 2.18281 107.428 2.18281C108.627 2.18281 110.617 2.08125 113.4 1.87812C113.38 2.28437 113.329 2.65 113.248 2.975C112.476 3.27969 111.552 3.47266 110.475 3.55391C109.784 3.59453 109.205 3.70625 108.738 3.88906C108.352 4.17344 108.159 4.75234 108.159 5.62578C108.159 5.82891 108.17 6.05234 108.19 6.29609C108.21 7.02734 108.22 7.50469 108.22 7.72812V11.232L108.251 13.4258L108.19 16.2594L108.22 21.5609L108.159 26.5578C108.159 27.5531 108.19 29.107 108.251 31.2195L108.22 35.3328C108.22 36.7141 108.342 37.6992 108.586 38.2883C108.708 38.5727 108.911 38.7758 109.195 38.8977L111.663 39.4461C112.882 39.7508 113.603 40.0047 113.827 40.2078C114.07 40.3906 114.192 40.6141 114.192 40.8781L114.101 41.2438L113.948 41.2742C113.847 41.2742 113.715 41.2539 113.552 41.2133C111.338 40.807 109.012 40.6039 106.575 40.6039C104.666 40.6039 103.305 40.6344 102.492 40.6953C101.7 40.7562 100.034 40.9797 97.4953 41.3656C97.4547 41.1016 97.4344 40.9086 97.4344 40.7867C97.4344 40.6445 97.4547 40.4516 97.4953 40.2078C98.125 39.8422 99.1203 39.5883 100.481 39.4461C101.497 39.3445 102.299 39.0195 102.888 38.4711C103.274 38.1055 103.467 37.5672 103.467 36.8562L103.437 32.4687C103.498 31.1484 103.528 30.4273 103.528 30.3055C103.528 28.5789 103.498 26.0602 103.437 22.7492C103.376 22.4648 103.264 22.2922 103.102 22.2312C102.553 22.0484 99.8515 22.0891 94.9969 22.3531C94.0219 22.4141 93.2906 22.4445 92.8031 22.4445C92.3156 22.4445 91.2898 22.4242 89.7258 22.3836C88.182 22.3227 86.75 22.2922 85.4297 22.2922C84.7187 22.2922 84.1195 22.3023 83.632 22.3227C82.6976 22.343 82.1797 22.3531 82.0781 22.3531C81.6109 22.3531 81.2859 22.4445 81.1031 22.6273C80.9406 22.8102 80.8594 23.1453 80.8594 23.6328L80.8898 25.7656C80.8898 26.1109 80.839 28.0305 80.7375 31.5242C80.7172 32.2352 80.707 32.8242 80.707 33.2914C80.707 36.0742 80.8086 37.9227 81.0117 38.8367C81.1133 39.2633 81.2961 39.5578 81.5601 39.7203C81.743 39.8422 82.5351 40.0555 83.9367 40.3602C84.8711 40.5633 85.582 40.7562 86.0695 40.9391L86.2523 41.2438C86.2523 41.3453 86.2117 41.4266 86.1305 41.4875C86.0086 41.5891 85.8359 41.6398 85.6125 41.6398C85.45 41.6398 85.257 41.6297 85.0336 41.6094C84.8101 41.6094 84.3734 41.5992 83.7234 41.5789C82.6875 41.5586 81.3976 41.4875 79.8539 41.3656C78.8586 41.2844 77.975 41.2438 77.2031 41.2438C75.9031 41.2438 73.8211 41.3047 70.957 41.4266C70.4086 41.4469 69.9414 41.457 69.5555 41.457ZM118.702 21.5305C118.702 19.4586 118.945 17.6203 119.433 16.0156C119.941 14.3906 120.784 12.6336 121.962 10.7445C123.14 8.85547 124.562 7.28125 126.227 6.02187C127.893 4.74219 130.198 3.61484 133.144 2.63984C135.216 1.96953 137.836 1.63437 141.005 1.63437C143.137 1.63437 145.22 1.91875 147.251 2.4875C149.302 3.05625 151.161 3.84844 152.827 4.86406C154.492 5.87969 156.158 7.44375 157.823 9.55625C158.981 11.0187 159.855 12.593 160.444 14.2789C161.216 16.493 161.602 18.7781 161.602 21.1344C161.602 23.8156 161.337 26.0398 160.809 27.807C160.302 29.5742 159.438 31.3211 158.22 33.0477C157.265 34.3883 155.63 35.932 153.314 37.6789C151.77 38.857 149.851 39.8117 147.555 40.543C145.26 41.2539 142.782 41.6094 140.121 41.6094C137.42 41.6094 135.012 41.2945 132.9 40.6648C130.787 40.0352 129.02 39.2734 127.598 38.3797C126.197 37.4656 124.745 36.125 123.241 34.3578C121.759 32.5906 120.631 30.6406 119.859 28.5078C119.087 26.375 118.702 24.0492 118.702 21.5305ZM139.847 40.482C141.553 40.482 143.32 40.2484 145.148 39.7812C146.997 39.2937 148.632 38.5016 150.054 37.4047C151.476 36.2875 152.583 35.0281 153.375 33.6266C154.187 32.2047 154.837 30.3867 155.325 28.1727C155.812 25.9586 156.056 23.7445 156.056 21.5305C156.056 18.768 155.65 16.0359 154.837 13.3344C154.208 11.2828 153.182 9.45469 151.76 7.85C150.338 6.225 148.622 4.97578 146.611 4.10234C144.6 3.20859 142.457 2.76172 140.182 2.76172C138.334 2.76172 136.526 3.06641 134.759 3.67578C132.991 4.28516 131.539 5.06719 130.402 6.02187C129.264 6.95625 128.208 8.29687 127.233 10.0437C126.258 11.7703 125.516 13.6797 125.009 15.7719C124.501 17.8641 124.247 19.7125 124.247 21.3172C124.247 23.0031 124.501 24.9125 125.009 27.0453C125.516 29.1781 126.207 31.0266 127.08 32.5906C127.974 34.1547 129.061 35.5461 130.341 36.7648C131.641 37.9633 133.093 38.8875 134.698 39.5375C136.302 40.1672 138.019 40.482 139.847 40.482ZM165.776 41.457L165.806 40.7867C166.497 40.4008 167.299 40.157 168.213 40.0555C169.655 39.8727 170.57 39.6898 170.955 39.507C171.341 39.3039 171.616 39.0297 171.778 38.6844C172.062 38.0141 172.205 37.3336 172.205 36.643L172.144 34.3273L172.174 32.1945L172.113 29.6961C172.113 28.6602 172.144 27.3703 172.205 25.8266C172.266 24.2625 172.296 23.4297 172.296 23.3281V15.0102C172.296 13.6898 172.327 12.268 172.387 10.7445C172.448 9.20078 172.479 8.13437 172.479 7.54531C172.479 5.79844 172.438 4.78281 172.357 4.49844C172.276 4.21406 172.123 4.01094 171.9 3.88906C171.677 3.76719 170.945 3.65547 169.706 3.55391C168.752 3.47266 168.091 3.40156 167.726 3.34062C167.624 3.11719 167.573 2.93437 167.573 2.79219C167.573 2.62969 167.584 2.43672 167.604 2.21328C168.091 2.17266 168.467 2.15234 168.731 2.15234L171.595 2.18281C173.627 2.18281 175.78 2.10156 178.055 1.93906C179.172 1.85781 180.858 1.78672 183.112 1.72578C183.153 1.90859 183.173 2.08125 183.173 2.24375C183.173 2.44687 183.123 2.60937 183.021 2.73125C182.94 2.83281 182.787 2.90391 182.564 2.94453C179.903 3.16797 178.329 3.50312 177.841 3.95C177.374 4.37656 177.141 5.48359 177.141 7.27109C177.141 10.5617 177.191 13.9539 177.293 17.4477L177.415 20.3117C177.516 20.393 178.837 20.4945 181.376 20.6164C182.066 20.657 182.473 20.6773 182.595 20.6773L187.073 20.6164L190.029 20.7078L197.768 20.4641C198.723 20.4437 199.302 20.4031 199.505 20.3422C199.627 16.8078 199.687 13.3852 199.687 10.0742C199.687 6.88516 199.616 5.00625 199.474 4.4375C199.393 4.09219 199.251 3.85859 199.048 3.73672C198.926 3.67578 197.87 3.51328 195.879 3.24922C195.534 3.20859 195.209 3.15781 194.904 3.09687C194.802 2.79219 194.752 2.44687 194.752 2.06094C195.442 1.95937 195.879 1.90859 196.062 1.90859L198.073 2.03047C199.921 2.13203 201.78 2.18281 203.648 2.18281C204.847 2.18281 206.837 2.08125 209.62 1.87812C209.6 2.28437 209.549 2.65 209.468 2.975C208.696 3.27969 207.772 3.47266 206.695 3.55391C206.005 3.59453 205.426 3.70625 204.959 3.88906C204.573 4.17344 204.38 4.75234 204.38 5.62578C204.38 5.82891 204.39 6.05234 204.41 6.29609C204.43 7.02734 204.441 7.50469 204.441 7.72812V11.232L204.471 13.4258L204.41 16.2594L204.441 21.5609L204.38 26.5578C204.38 27.5531 204.41 29.107 204.471 31.2195L204.441 35.3328C204.441 36.7141 204.562 37.6992 204.806 38.2883C204.928 38.5727 205.131 38.7758 205.416 38.8977L207.884 39.4461C209.102 39.7508 209.823 40.0047 210.047 40.2078C210.291 40.3906 210.412 40.6141 210.412 40.8781L210.321 41.2438L210.169 41.2742C210.067 41.2742 209.935 41.2539 209.773 41.2133C207.559 40.807 205.233 40.6039 202.795 40.6039C200.886 40.6039 199.525 40.6344 198.712 40.6953C197.92 40.7562 196.255 40.9797 193.716 41.3656C193.675 41.1016 193.655 40.9086 193.655 40.7867C193.655 40.6445 193.675 40.4516 193.716 40.2078C194.345 39.8422 195.341 39.5883 196.702 39.4461C197.717 39.3445 198.52 39.0195 199.109 38.4711C199.495 38.1055 199.687 37.5672 199.687 36.8562L199.657 32.4687C199.718 31.1484 199.748 30.4273 199.748 30.3055C199.748 28.5789 199.718 26.0602 199.657 22.7492C199.596 22.4648 199.484 22.2922 199.322 22.2312C198.773 22.0484 196.072 22.0891 191.217 22.3531C190.242 22.4141 189.511 22.4445 189.023 22.4445C188.536 22.4445 187.51 22.4242 185.946 22.3836C184.402 22.3227 182.97 22.2922 181.65 22.2922C180.939 22.2922 180.34 22.3023 179.852 22.3227C178.918 22.343 178.4 22.3531 178.298 22.3531C177.831 22.3531 177.506 22.4445 177.323 22.6273C177.161 22.8102 177.08 23.1453 177.08 23.6328L177.11 25.7656C177.11 26.1109 177.059 28.0305 176.958 31.5242C176.937 32.2352 176.927 32.8242 176.927 33.2914C176.927 36.0742 177.029 37.9227 177.232 38.8367C177.334 39.2633 177.516 39.5578 177.78 39.7203C177.963 39.8422 178.755 40.0555 180.157 40.3602C181.091 40.5633 181.802 40.7562 182.29 40.9391L182.473 41.2438C182.473 41.3453 182.432 41.4266 182.351 41.4875C182.229 41.5891 182.056 41.6398 181.833 41.6398C181.67 41.6398 181.477 41.6297 181.254 41.6094C181.03 41.6094 180.594 41.5992 179.944 41.5789C178.908 41.5586 177.618 41.4875 176.074 41.3656C175.079 41.2844 174.195 41.2438 173.423 41.2438C172.123 41.2438 170.041 41.3047 167.177 41.4266C166.629 41.4469 166.162 41.457 165.776 41.457ZM211.723 40.025C212.007 39.8625 212.261 39.7812 212.484 39.7812H213.185C213.327 39.7812 213.571 39.7711 213.916 39.7508C215.48 39.6086 216.405 39.4664 216.689 39.3242C217.4 38.9383 218.009 38.268 218.517 37.3133C219.573 35.2414 220.762 32.3062 222.082 28.5078C222.712 26.7 223.108 25.6031 223.27 25.2172C223.778 23.9984 224.266 22.7187 224.733 21.3781L227.597 13.3648C228.044 12.1055 229.12 9.22109 230.827 4.71172C231.253 3.57422 231.771 2.05078 232.38 0.141405L233.264 0.0804677L234.33 0.110937C235.204 1.8375 235.976 3.69609 236.646 5.68672C237.012 6.74297 237.611 8.31719 238.444 10.4094L243.075 22.932L245.543 29.7266C246.843 33.5859 247.696 35.9625 248.102 36.8562C248.509 37.7297 248.884 38.3086 249.23 38.593C249.331 38.6742 249.707 38.7961 250.357 38.9586C251.027 39.1211 251.495 39.243 251.759 39.3242C252.693 39.5883 253.343 39.8117 253.709 39.9945C253.79 40.218 253.83 40.3906 253.83 40.5125C253.83 40.6141 253.8 40.7664 253.739 40.9695C253.089 40.9898 252.632 41 252.368 41C251.332 41 249.504 40.9695 246.884 40.9086L243.837 40.8172L240.15 40.8781C239.906 40.8781 239.652 40.868 239.388 40.8477C239.145 40.807 238.931 40.7867 238.748 40.7867H238.078C237.855 40.7664 237.652 40.7055 237.469 40.6039C237.469 40.3195 237.52 40.0453 237.621 39.7812C237.865 39.6594 238.088 39.5883 238.291 39.568L241.491 39.3547C242.323 39.3141 242.953 39.2023 243.38 39.0195C243.502 38.6539 243.562 38.3797 243.562 38.1969C243.562 37.8312 243.298 36.8867 242.77 35.3633C242.405 34.3477 242.08 33.3828 241.795 32.4687C241.531 31.5547 240.455 28.5484 238.566 23.45C237.733 23.3078 237.002 23.2367 236.372 23.2367L229.852 23.2977L227.932 23.2672C227.241 23.2672 226.48 23.318 225.647 23.4195C225.383 24.0289 225.21 24.4656 225.129 24.7297L222.448 33.1086C221.31 36.2977 220.741 38.0547 220.741 38.3797C220.741 38.5625 220.833 38.8672 221.016 39.2937C221.442 39.4156 222.011 39.5273 222.722 39.6289L226.866 39.9945C227.089 40.1773 227.201 40.3398 227.201 40.482C227.201 40.5836 227.17 40.7359 227.109 40.9391C226.195 40.9594 225.495 40.9695 225.007 40.9695C223.382 40.9695 221.493 40.9187 219.34 40.8172C218.345 40.7766 217.634 40.7562 217.207 40.7562C216.78 40.7562 216.039 40.7766 214.983 40.8172C214.292 40.8578 213.795 40.8781 213.49 40.8781C213.002 40.8781 212.373 40.8477 211.601 40.7867V40.6039C211.601 40.4617 211.641 40.2687 211.723 40.025ZM226.256 21.7437C228.43 21.8656 230.908 21.9266 233.691 21.9266C235.275 21.9266 236.666 21.8758 237.865 21.7742C237.662 20.982 237.428 20.2406 237.164 19.55C235.844 16.0156 235.112 14.0656 234.97 13.7L232.198 6.66172L231.893 6.11328C231.771 6.35703 231.324 7.40312 230.552 9.25156C229.252 12.4203 228.318 14.8883 227.749 16.6555C227.485 17.4477 227.211 18.2398 226.927 19.032C226.642 19.8039 226.459 20.3523 226.378 20.6773C226.317 20.982 226.216 21.2969 226.073 21.6219L226.256 21.7437Z" fill="white"/>
</svg>
