<svg width="183" height="52" viewBox="0 0 183 52" fill="none" xmlns="http://www.w3.org/2000/svg">
<path d="M12.1846 25.9936H10.6509V23.781H12.1846C12.7597 23.781 13.2709 24.2868 13.2709 24.8557C13.2709 25.4879 12.8236 25.9936 12.1846 25.9936ZM12.3763 21.5684H8.22266V31.304H10.7148V28.2063H12.3763C14.2295 28.2063 15.7631 26.6891 15.7631 24.8557C15.7631 23.0856 14.2295 21.5684 12.3763 21.5684Z" fill="white"/>
<path d="M23.8175 28.3336C23.3063 28.9026 22.5394 29.2819 21.7087 29.2819C20.1751 29.2819 18.897 28.0176 18.897 26.5003C18.897 24.9199 20.1751 23.7187 21.7087 23.7187C22.5394 23.7187 23.3063 24.098 23.8175 24.667L25.6068 23.0233C24.6482 21.9486 23.2424 21.3164 21.7087 21.3164C18.8331 21.3164 16.4688 23.6555 16.4688 26.5003C16.4688 29.3451 18.8331 31.6842 21.7087 31.6842C23.2424 31.6842 24.6482 31.052 25.6068 29.9773L23.8175 28.3336Z" fill="white"/>
<path d="M61.2617 21.1914H65.0319C67.1407 21.1914 68.5466 22.4558 68.5466 24.3523C68.5466 26.1857 67.1407 27.5132 65.0319 27.5132H62.9232V31.496H61.2617V21.1914ZM64.968 25.996C66.1822 25.996 66.8212 25.3006 66.8212 24.3523C66.8212 23.3408 66.1822 22.6454 64.968 22.6454H62.8593V25.996H64.968Z" fill="white"/>
<path d="M69.5703 27.5765C69.5703 25.3639 71.3596 23.5938 73.5961 23.5938C75.8966 23.5938 77.6859 25.3639 77.6859 27.5765C77.6859 29.7892 75.8966 31.5593 73.5961 31.5593C71.3596 31.5593 69.5703 29.7892 69.5703 27.5765ZM76.0244 27.5765C76.0244 26.1225 75.002 25.111 73.66 25.111C72.2542 25.111 71.2318 26.1857 71.2318 27.5765C71.2318 28.9673 72.2542 30.042 73.5961 30.042C75.002 30.042 76.0244 28.9673 76.0244 27.5765Z" fill="white"/>
<path d="M79.1562 27.5765C79.1562 25.3639 80.9455 23.5938 83.246 23.5938C84.7157 23.5938 85.8021 24.2892 86.505 25.3639L85.3548 26.2489C84.8435 25.5535 84.2045 25.111 83.3099 25.111C81.904 25.111 80.8816 26.1857 80.8816 27.5765C80.8816 28.9673 81.904 30.042 83.3099 30.042C84.2045 30.042 84.8435 29.5995 85.3548 28.9041L86.505 29.7892C85.8021 30.8639 84.7157 31.5593 83.246 31.5593C80.9455 31.5593 79.1562 29.8524 79.1562 27.5765Z" fill="white"/>
<path d="M87.6523 27.5765C87.6523 25.3639 89.4416 23.5938 91.7421 23.5938C93.2118 23.5938 94.2982 24.2892 95.0011 25.3639L93.8508 26.2489C93.3396 25.5535 92.7006 25.111 91.806 25.111C90.4001 25.111 89.3777 26.1857 89.3777 27.5765C89.3777 28.9673 90.4001 30.042 91.806 30.042C92.7006 30.042 93.3396 29.5995 93.8508 28.9041L95.0011 29.7892C94.2982 30.8639 93.2118 31.5593 91.7421 31.5593C89.4416 31.5593 87.6523 29.8524 87.6523 27.5765Z" fill="white"/>
<path d="M98.3242 25.174H95.832V23.7832H102.414V25.174H99.9218V31.3694H98.3242V25.174Z" fill="white"/>
<path d="M111.871 27.5765C111.871 29.8524 110.273 31.5593 108.1 31.5593C107.078 31.5593 106.119 31.18 105.544 30.4846V34.2144H103.883V23.7834H105.416V24.8581C105.992 24.0363 106.95 23.5938 108.1 23.5938C110.273 23.5937 111.871 25.3006 111.871 27.5765ZM110.145 27.5765C110.145 26.1225 109.123 25.111 107.781 25.111C106.631 25.111 105.48 25.8696 105.48 27.5765C105.48 29.2834 106.631 30.042 107.781 30.042C109.123 30.1052 110.145 29.0938 110.145 27.5765Z" fill="white"/>
<path d="M113.277 27.5765C113.277 25.3639 115.067 23.5938 117.303 23.5938C119.604 23.5938 121.393 25.3639 121.393 27.5765C121.393 29.7892 119.604 31.5593 117.303 31.5593C115.067 31.5593 113.277 29.7892 113.277 27.5765ZM119.731 27.5765C119.731 26.1225 118.709 25.111 117.367 25.111C115.961 25.111 114.939 26.1857 114.939 27.5765C114.939 28.9673 115.961 30.042 117.303 30.042C118.709 30.042 119.731 28.9673 119.731 27.5765Z" fill="white"/>
<path d="M130.018 23.5929V31.3687H128.357V26.6273L123.884 31.4952H123.309V23.7825H124.97V28.5239L129.443 23.5929H130.018ZM124.331 19.9894V19.5469H125.673V19.9894C125.673 20.8745 126.12 21.3802 126.823 21.3802C127.59 21.3802 128.037 20.8745 128.037 19.9894V19.5469H129.379V19.9894C129.379 21.5066 128.357 22.5814 126.823 22.5814C125.353 22.5181 124.331 21.5066 124.331 19.9894Z" fill="white"/>
<path d="M139.159 23.5938V31.3696H137.497V26.6282L133.024 31.496H132.449V23.7834H134.111V28.5248L138.584 23.5938H139.159Z" fill="white"/>
<path d="M141.586 23.7832H143.247V26.6913H146.57V23.7832H148.232V31.3694H146.57V28.0821H143.247V31.3694H141.586V23.7832Z" fill="white"/>
<path d="M157.18 29.0928C157.18 30.4204 156.093 31.4319 154.432 31.4319H150.598V23.8457H153.984C155.518 23.8457 156.541 24.6675 156.541 25.9319C156.541 26.5009 156.285 27.0066 155.838 27.3859C156.668 27.5756 157.18 28.2078 157.18 29.0928ZM152.195 26.817H153.921C154.687 26.817 155.007 26.5009 155.007 25.9319C155.007 25.3629 154.623 25.1101 153.921 25.1101H152.195V26.817ZM155.582 29.0296C155.582 28.3974 155.071 28.0813 154.24 28.0813H152.195V30.1043H154.24C155.135 30.1043 155.582 29.6618 155.582 29.0296Z" fill="white"/>
<path d="M166.125 28.1448H160.374C160.566 29.4091 161.588 30.1677 162.866 30.1677C163.761 30.1677 164.464 29.8517 165.103 29.2827L165.869 30.4206C165.039 31.1792 164.016 31.6218 162.802 31.6218C160.438 31.6218 158.648 29.9149 158.648 27.639C158.648 25.4264 160.374 23.6562 162.61 23.6562C164.655 23.6562 166.189 25.1735 166.189 27.1333C166.253 27.5126 166.125 27.8919 166.125 28.1448ZM160.374 26.8804H164.527C164.527 25.6792 163.633 25.0471 162.546 25.0471C161.524 24.9838 160.629 25.7425 160.374 26.8804Z" fill="white"/>
<path d="M167.594 27.5765C167.594 25.3639 169.383 23.5938 171.683 23.5938C173.153 23.5938 174.24 24.2892 174.942 25.3639L173.792 26.2489C173.281 25.5535 172.642 25.111 171.747 25.111C170.342 25.111 169.319 26.1857 169.319 27.5765C169.319 28.9673 170.342 30.042 171.747 30.042C172.642 30.042 173.281 29.5995 173.792 28.9041L174.942 29.7892C174.24 30.8639 173.153 31.5593 171.683 31.5593C169.447 31.5593 167.594 29.8524 167.594 27.5765Z" fill="white"/>
<path d="M178.332 25.174H175.84V23.7832H182.422V25.174H179.93V31.3694H178.268V25.174H178.332Z" fill="white"/>
<path d="M26.6914 3.362C13.7832 3.362 3.30328 13.7298 3.30328 26.4367C3.30328 39.1436 13.7832 49.5746 26.6914 49.5746C39.5997 49.5746 50.0157 39.2068 50.0157 26.4999C50.0157 13.793 39.5358 3.362 26.6914 3.362ZM26.6914 51.9769C12.4413 51.9769 0.875 40.5344 0.875 26.4367C0.875 12.4022 12.4413 0.896484 26.6914 0.896484C40.9416 0.896484 52.5079 12.339 52.5079 26.4367C52.444 40.5344 40.8777 51.9769 26.6914 51.9769Z" fill="white"/>
<path d="M34.36 21.5684H26.5V23.9074H29.2478V31.304H31.6761V23.9074H34.36V21.5684Z" fill="white"/>
<path d="M43.6895 21.5684L38.2578 26.9419V21.5684H35.7656V31.304H37.1715L42.6031 25.9304V31.304H45.0953V21.5684H43.6895Z" fill="white"/>
</svg>
