<svg width="544" height="36" viewBox="0 0 544 36" fill="none" xmlns="http://www.w3.org/2000/svg">
<path d="M0.64627 0.720119V36.0001H7.60147V7.37292H20.7055V0.720119H0.64627ZM108.227 36.0001L95.8282 0.720119H87.2098L74.8618 36.0001H82.3714L84.4882 29.6497H98.5498L100.667 36.0001H108.227ZM91.5442 8.73372L96.3826 23.1481H86.7058L91.5442 8.73372ZM169.108 0.720119V36.0001H176.063V7.37292H189.167V0.720119H169.108ZM276.689 36.0001L264.29 0.720119H255.672L243.324 36.0001H250.833L252.95 29.6497H267.012L269.129 36.0001H276.689ZM260.006 8.73372L264.845 23.1481H255.168L260.006 8.73372ZM337.57 0.720119V36.0001H344.525V24.4081H350.725C354.101 24.4081 356.974 23.2489 359.293 20.9809C361.611 18.7129 362.77 15.8905 362.77 12.5641C362.77 9.23772 361.611 6.41532 359.293 4.14732C356.974 1.87932 354.101 0.720119 350.725 0.720119H337.57ZM344.525 17.9065V7.22172H350.725C353.698 7.22172 355.865 9.48972 355.865 12.5641C355.865 15.5881 353.698 17.9065 350.725 17.9065H344.525ZM452.122 36.0001V0.720119H446.83L431.71 22.2913V0.720119H424.754V36.0001H430.046L445.166 14.4793V36.0001H452.122ZM536.181 14.7313H523.077V0.720119H516.122V36.0001H523.077V21.3841H536.181V36.0001H543.086V0.720119H536.181V14.7313Z" fill="white"/>
</svg>
