<svg width="294" height="72" viewBox="0 0 294 72" fill="none" xmlns="http://www.w3.org/2000/svg">
<path d="M34.1944 52.6418C35.1241 53.8651 35.956 54.7704 36.69 55.3576C37.424 55.9448 38.3048 56.3118 39.3324 56.4586V58C36.3964 57.8043 34.4146 57.7064 33.387 57.7064C32.0658 57.7064 29.35 57.8043 25.2396 58V56.4586C25.9246 56.4586 26.4629 56.3363 26.8544 56.0916C27.2948 55.798 27.515 55.4555 27.515 55.064C27.515 54.6725 27.3682 54.3055 27.0746 53.963L18.6336 41.6318C17.8017 40.4085 16.9943 39.6011 16.2114 39.2096C15.4774 38.7692 14.4498 38.5001 13.1286 38.4022V51.1738C13.1286 53.1801 13.4711 54.5747 14.1562 55.3576C14.8902 56.0916 16.1624 56.4586 17.973 56.4586V58C13.8626 57.8043 11.1468 57.7064 9.82557 57.7064C8.4065 57.7064 5.44603 57.8043 0.944166 58V56.4586C2.99937 56.4586 4.4429 56.0916 5.27477 55.3576C6.10663 54.5747 6.52257 53.1801 6.52257 51.1738V9.2624C6.52257 7.01146 6.10663 5.3722 5.27477 4.3446C4.4429 3.317 2.99937 2.8032 0.944166 2.8032V1.26179C2.51003 1.4086 4.02697 1.482 5.49497 1.482C8.57777 1.482 11.1223 1.13946 13.1286 0.454396V36.8608C14.5476 36.6651 15.722 36.347 16.6518 35.9066C17.6304 35.4173 18.5602 34.7322 19.441 33.8514L24.8726 28.1996C26.4384 26.5848 27.2214 25.2391 27.2214 24.1626C27.2214 23.3307 26.7076 22.7191 25.68 22.3276C24.7013 21.8872 23.4046 21.667 21.7898 21.667V20.199C25.2151 20.3947 27.9798 20.4926 30.084 20.4926C32.3838 20.4926 34.5124 20.3947 36.4698 20.199V21.667C34.072 21.8627 31.87 23.0127 29.8638 25.1168L20.909 34.512L34.1944 52.6418ZM75.284 50.0728C75.284 52.3237 75.7 53.963 76.5318 54.9906C77.3637 56.0182 78.8072 56.532 80.8624 56.532V58.0734C79.3455 57.9266 77.8286 57.8532 76.3116 57.8532C73.2288 57.8532 70.6843 58.1957 68.678 58.8808V50.2196C67.5036 53.2535 65.8399 55.4799 63.6868 56.899C61.5338 58.3181 59.185 59.0276 56.6404 59.0276C53.313 59.0276 50.7684 58.0979 49.0068 56.2384C48.126 55.2597 47.4899 54.0119 47.0984 52.495C46.7559 50.9781 46.5846 49.0207 46.5846 46.623V28.1996C46.5846 25.9487 46.1687 24.3094 45.3368 23.2818C44.505 22.2542 43.0614 21.7404 41.0062 21.7404V20.199C42.5232 20.3458 44.0401 20.4192 45.557 20.4192C48.6398 20.4192 51.1844 20.0767 53.1906 19.3916V48.2378C53.1906 50.0973 53.2885 51.6142 53.4842 52.7886C53.7289 53.9141 54.2427 54.8438 55.0256 55.5778C55.8575 56.3118 57.1053 56.6788 58.769 56.6788C60.6285 56.6788 62.3167 56.0916 63.8336 54.9172C65.3506 53.7428 66.525 52.1525 67.3568 50.1462C68.2376 48.091 68.678 45.8401 68.678 43.3934V28.1996C68.678 25.9487 68.2621 24.3094 67.4302 23.2818C66.5984 22.2542 65.1548 21.7404 63.0996 21.7404V20.199C64.6166 20.3458 66.1335 20.4192 67.6504 20.4192C70.7332 20.4192 73.2778 20.0767 75.284 19.3916V50.0728ZM107.437 19.1714C109.395 19.1714 110.985 19.7341 112.208 20.8596C113.481 21.9851 114.117 23.3552 114.117 24.97C114.117 26.2423 113.725 27.3433 112.942 28.273C112.208 29.1538 111.205 29.5942 109.933 29.5942C108.856 29.5942 107.927 29.2517 107.144 28.5666C106.41 27.8815 106.043 26.9518 106.043 25.7774C106.043 24.1626 106.875 22.8414 108.538 21.8138C108.196 21.3245 107.682 21.0798 106.997 21.0798C105.088 21.0798 103.351 21.8383 101.785 23.3552C100.22 24.8232 98.9962 26.6337 98.1154 28.7868C97.2346 30.9399 96.7942 32.9706 96.7942 34.879V50.4398C96.7942 52.6907 97.4304 54.2566 98.7026 55.1374C100.024 56.0182 101.981 56.4586 104.575 56.4586V58L102.813 57.9266C97.8218 57.7798 94.6412 57.7064 93.271 57.7064C91.9988 57.7064 89.1117 57.8043 84.6098 58V56.4586C86.665 56.4586 88.1086 56.0916 88.9404 55.3576C89.7723 54.5747 90.1882 53.1801 90.1882 51.1738V28.1996C90.1882 25.9487 89.7723 24.3094 88.9404 23.2818C88.1086 22.2542 86.665 21.7404 84.6098 21.7404V20.199C86.1757 20.3458 87.6926 20.4192 89.1606 20.4192C92.2434 20.4192 94.788 20.0767 96.7942 19.3916V28.5666C97.675 26.1199 99.0696 23.9424 100.978 22.034C102.935 20.1256 105.088 19.1714 107.437 19.1714ZM129.113 20.2724H139.976V21.7404H129.113V50.1462C129.113 52.3482 129.505 53.9385 130.288 54.9172C131.119 55.8959 132.294 56.3852 133.811 56.3852C135.328 56.3852 136.624 55.7735 137.701 54.5502C138.778 53.3269 139.683 51.3206 140.417 48.5314L141.885 48.8984C140.661 55.6512 137.481 59.0276 132.343 59.0276C130.679 59.0276 129.309 58.8319 128.232 58.4404C127.156 58.0489 126.202 57.4373 125.37 56.6054C124.293 55.5289 123.535 54.2077 123.094 52.6418C122.703 51.0759 122.507 48.9718 122.507 46.3294V21.7404H115.461V20.2724H122.507V9.04219C125.247 8.94433 127.449 8.6018 129.113 8.0146V20.2724ZM170.139 58.5138C167.056 58.5138 164.757 57.7553 163.24 56.2384C161.772 54.6725 161.038 52.5195 161.038 49.7792C161.038 47.5772 161.625 45.7667 162.799 44.3476C164.023 42.9285 165.442 41.8031 167.056 40.9712C168.72 40.1393 170.898 39.2585 173.589 38.3288C176.329 37.3991 178.36 36.5427 179.681 35.7598C181.002 34.9769 181.663 33.9248 181.663 32.6036V28.0528C181.663 25.2147 181.051 23.2818 179.828 22.2542C178.654 21.1777 176.99 20.6394 174.837 20.6394C171.411 20.6394 168.989 21.5202 167.57 23.2818C168.549 23.5265 169.356 24.0403 169.992 24.8232C170.677 25.6061 171.02 26.5848 171.02 27.7592C171.02 28.9825 170.629 29.9612 169.846 30.6952C169.063 31.3803 168.06 31.7228 166.836 31.7228C165.466 31.7228 164.438 31.3069 163.753 30.475C163.068 29.5942 162.726 28.5421 162.726 27.3188C162.726 26.1444 162.995 25.1657 163.533 24.3828C164.12 23.5999 164.977 22.8169 166.102 22.034C167.277 21.2021 168.769 20.5171 170.58 19.9788C172.39 19.4405 174.372 19.1714 176.525 19.1714C180.342 19.1714 183.229 20.0767 185.186 21.8872C186.41 23.0127 187.217 24.3828 187.608 25.9976C188.049 27.5635 188.269 29.6431 188.269 32.2366V52.6418C188.269 53.8651 188.44 54.7459 188.783 55.2842C189.125 55.8225 189.713 56.0916 190.544 56.0916C191.132 56.0916 191.67 55.9693 192.159 55.7246C192.697 55.431 193.26 55.0395 193.847 54.5502L194.655 55.798C193.383 56.7767 192.282 57.4862 191.352 57.9266C190.471 58.3181 189.346 58.5138 187.975 58.5138C185.627 58.5138 183.987 57.9266 183.058 56.7522C182.128 55.5778 181.663 53.9875 181.663 51.9812C180.195 54.4279 178.507 56.1405 176.598 57.1192C174.69 58.0489 172.537 58.5138 170.139 58.5138ZM173.369 55.5778C176.598 55.5778 179.363 53.7183 181.663 49.9994V35.613C181.223 36.2981 180.611 36.8608 179.828 37.3012C179.045 37.7416 177.846 38.3288 176.231 39.0628C174.372 39.8457 172.855 40.6042 171.681 41.3382C170.555 42.0233 169.576 42.9775 168.745 44.2008C167.913 45.4241 167.497 46.99 167.497 48.8984C167.497 51.1004 168.035 52.7641 169.112 53.8896C170.188 55.0151 171.607 55.5778 173.369 55.5778ZM220.275 19.1714C222.868 19.1714 225.193 19.8809 227.248 21.3C229.352 22.7191 230.991 24.7987 232.166 27.539C233.34 30.2793 233.927 33.5578 233.927 37.3746C233.927 41.1425 233.316 44.6657 232.092 47.9442C230.918 51.2227 229.058 53.8896 226.514 55.9448C224.018 58 220.886 59.0276 217.119 59.0276C215.259 59.0276 213.571 58.6606 212.054 57.9266C210.537 57.1926 209.363 56.2384 208.531 55.064V64.4592C208.531 66.4655 209.118 67.8356 210.292 68.5696C211.467 69.3525 213.228 69.744 215.577 69.744V71.2854L213.889 71.212C209.338 71.0652 206.378 70.9918 205.008 70.9918C203.833 70.9918 201.191 71.0897 197.08 71.2854V69.744C198.891 69.744 200.139 69.4015 200.824 68.7164C201.558 68.0803 201.925 66.9059 201.925 65.1932V28.1996C201.925 25.9487 201.509 24.3094 200.677 23.2818C199.845 22.2542 198.402 21.7404 196.346 21.7404V20.199C197.863 20.3458 199.38 20.4192 200.897 20.4192C203.98 20.4192 206.525 20.0767 208.531 19.3916V27.172C209.607 24.6275 211.173 22.6701 213.228 21.3C215.284 19.8809 217.632 19.1714 220.275 19.1714ZM216.311 57.3394C223.309 57.3394 226.807 51.027 226.807 38.4022C226.807 27.0497 223.969 21.3734 218.293 21.3734C216.091 21.3734 214.109 22.1808 212.348 23.7956C210.586 25.3615 209.314 27.6369 208.531 30.6218V52.6418C209.216 54.0609 210.219 55.2108 211.54 56.0916C212.861 56.9235 214.452 57.3394 216.311 57.3394ZM262.924 19.1714C265.518 19.1714 267.842 19.8809 269.897 21.3C272.001 22.7191 273.641 24.7987 274.815 27.539C275.989 30.2793 276.577 33.5578 276.577 37.3746C276.577 41.1425 275.965 44.6657 274.742 47.9442C273.567 51.2227 271.708 53.8896 269.163 55.9448C266.668 58 263.536 59.0276 259.768 59.0276C257.909 59.0276 256.22 58.6606 254.703 57.9266C253.187 57.1926 252.012 56.2384 251.18 55.064V64.4592C251.18 66.4655 251.767 67.8356 252.942 68.5696C254.116 69.3525 255.878 69.744 258.227 69.744V71.2854L256.538 71.212C251.988 71.0652 249.027 70.9918 247.657 70.9918C246.483 70.9918 243.84 71.0897 239.73 71.2854V69.744C241.54 69.744 242.788 69.4015 243.473 68.7164C244.207 68.0803 244.574 66.9059 244.574 65.1932V28.1996C244.574 25.9487 244.158 24.3094 243.326 23.2818C242.495 22.2542 241.051 21.7404 238.996 21.7404V20.199C240.513 20.3458 242.03 20.4192 243.547 20.4192C246.629 20.4192 249.174 20.0767 251.18 19.3916V27.172C252.257 24.6275 253.823 22.6701 255.878 21.3C257.933 19.8809 260.282 19.1714 262.924 19.1714ZM258.961 57.3394C265.958 57.3394 269.457 51.027 269.457 38.4022C269.457 27.0497 266.619 21.3734 260.942 21.3734C258.74 21.3734 256.759 22.1808 254.997 23.7956C253.235 25.3615 251.963 27.6369 251.18 30.6218V52.6418C251.865 54.0609 252.868 55.2108 254.19 56.0916C255.511 56.9235 257.101 57.3394 258.961 57.3394ZM289.279 49.6324C290.551 49.6324 291.652 50.0973 292.582 51.027C293.512 51.9567 293.976 53.0577 293.976 54.33C293.976 55.6023 293.512 56.7033 292.582 57.633C291.652 58.5627 290.551 59.0276 289.279 59.0276C288.007 59.0276 286.906 58.5627 285.976 57.633C285.046 56.7033 284.581 55.6023 284.581 54.33C284.581 53.0577 285.046 51.9567 285.976 51.027C286.906 50.0973 288.007 49.6324 289.279 49.6324Z" fill="white"/>
</svg>
