<svg width="231" height="90" viewBox="0 0 231 90" fill="none" xmlns="http://www.w3.org/2000/svg">
<path d="M75.0039 47.1987L76.9397 44.2242C78.663 45.4754 80.4808 46.1285 81.968 46.1285C83.2743 46.1285 83.8723 45.6564 83.8723 44.9403V44.8774C83.8723 43.8937 82.3221 43.5711 80.5673 43.036C78.3404 42.3829 75.8066 41.3442 75.8066 38.2438V38.1808C75.8066 34.9388 78.4269 33.1289 81.6375 33.1289C83.6598 33.1289 85.8632 33.8135 87.5865 34.9703L85.8632 38.0943C84.2894 37.1736 82.7077 36.607 81.5509 36.607C80.4493 36.607 79.8827 37.0792 79.8827 37.7087V37.7716C79.8827 38.6608 81.4014 39.0779 83.1247 39.6759C85.3517 40.4235 87.9406 41.4937 87.9406 44.4052V44.4682C87.9406 48.0092 85.2966 49.6145 81.8421 49.6145C79.6073 49.6067 77.1128 48.8591 75.0039 47.1987Z" fill="white"/>
<path d="M91.0605 43.6894V33.3652H95.5852V42.2572C95.5852 44.3976 96.6003 45.4993 98.3237 45.4993C100.047 45.4993 101.149 44.3976 101.149 42.2572V33.3652H105.673V49.3079H101.149V47.0495C100.11 48.3872 98.7722 49.6069 96.4823 49.6069C93.0514 49.6069 91.0605 47.3485 91.0605 43.6894Z" fill="white"/>
<path d="M109.714 33.3654H114.239V35.6553C115.34 34.1681 116.859 33.0664 119.204 33.0664C122.918 33.0664 126.459 35.9779 126.459 41.3053V41.3682C126.459 46.6956 122.981 49.6071 119.204 49.6071C116.796 49.6071 115.309 48.5054 114.239 47.2307V54.0689H109.714V33.3654ZM121.934 41.3682V41.3053C121.934 38.6613 120.148 36.9065 118.039 36.9065C115.93 36.9065 114.176 38.6613 114.176 41.3053V41.3682C114.176 44.0122 115.93 45.767 118.039 45.767C120.148 45.767 121.934 44.0437 121.934 41.3682Z" fill="white"/>
<path d="M129.016 41.4233V41.3604C129.016 36.8121 132.258 33.0664 136.9 33.0664C142.22 33.0664 144.659 37.1976 144.659 41.7223C144.659 42.0764 144.628 42.4935 144.596 42.9106H133.501C133.95 44.9644 135.374 46.0346 137.396 46.0346C138.915 46.0346 140.017 45.5546 141.26 44.3978L143.849 46.6877C142.362 48.5291 140.221 49.6622 137.333 49.6622C132.549 49.6622 129.016 46.3021 129.016 41.4233ZM140.253 40.0856C139.985 38.0632 138.797 36.694 136.893 36.694C135.02 36.694 133.8 38.0318 133.446 40.0856H140.253Z" fill="white"/>
<path d="M148.021 33.3654H152.537V36.576C153.458 34.3726 154.945 32.9484 157.621 33.0664V37.7957H157.385C154.379 37.7957 152.537 39.6134 152.537 43.4142V49.3002H148.021V33.3654Z" fill="white"/>
<path d="M160.45 33.3654H164.975V35.6238C166.014 34.2861 167.351 33.0664 169.641 33.0664C173.064 33.0664 175.055 35.3248 175.055 38.9839V49.3081H170.53V40.4161C170.53 38.2757 169.523 37.174 167.792 37.174C166.061 37.174 164.967 38.2757 164.967 40.4161V49.3081H160.442V33.3654H160.45Z" fill="white"/>
<path d="M178.206 41.4233V41.3604C178.206 36.7806 181.897 33.0664 186.862 33.0664C191.796 33.0664 195.455 36.7255 195.455 41.3053V41.3682C195.455 45.948 191.764 49.6622 186.799 49.6622C181.865 49.6622 178.206 46.0031 178.206 41.4233ZM191.001 41.4233V41.3604C191.001 39.0075 189.309 36.9616 186.807 36.9616C184.218 36.9616 182.676 38.9524 182.676 41.3053V41.3682C182.676 43.7211 184.368 45.767 186.87 45.767C189.451 45.767 191.001 43.7762 191.001 41.4233Z" fill="white"/>
<path d="M196.414 33.3652H201.198L204.771 44.0435L208.367 33.3652H213.065L206.785 49.4259H202.678L196.414 33.3652Z" fill="white"/>
<path d="M213.987 44.7284V44.6654C213.987 41.1873 216.631 39.582 220.408 39.582C222.014 39.582 223.17 39.8496 224.304 40.2352V39.9676C224.304 38.0948 223.147 37.0561 220.881 37.0561C219.157 37.0561 217.938 37.3866 216.482 37.9217L215.349 34.475C217.103 33.7039 218.827 33.1924 221.534 33.1924C224.005 33.1924 225.783 33.8455 226.916 34.9787C228.104 36.1669 228.639 37.9217 228.639 40.062V49.3082H224.264V47.5848C223.163 48.8045 221.644 49.6072 219.448 49.6072C216.458 49.6072 213.987 47.876 213.987 44.7284ZM224.367 43.6897V42.887C223.595 42.5329 222.58 42.289 221.479 42.289C219.543 42.289 218.355 43.0601 218.355 44.4923V44.5553C218.355 45.775 219.37 46.491 220.825 46.491C222.942 46.4832 224.367 45.3186 224.367 43.6897Z" fill="white"/>
<path d="M148.87 54.2886V56.5863H152.844V54.2886H153.631V59.8205H152.844V57.3103H148.87V59.8205H148.091V54.2886H148.87Z" fill="white"/>
<path d="M159.638 54.2886V54.9968H155.538V56.6257H159.221V57.3339H155.538V59.0966H159.787V59.8205H154.759V54.2886H159.638Z" fill="white"/>
<path d="M166.528 54.2886V59.0966H167.221V60.9694H166.567L166.489 59.8205H161.327L161.24 60.9694H160.587V59.0966H161.311L162.318 54.2886H166.528ZM162.153 59.0966H165.741V54.9889H162.948L162.153 59.0966Z" fill="white"/>
<path d="M171.603 54.2886C172.587 54.2886 173.272 54.8394 173.272 55.6657C173.272 56.1614 173.091 56.5155 172.76 56.7437C173.327 56.9719 173.673 57.4834 173.673 58.1365C173.673 59.0572 172.949 59.8205 171.824 59.8205H168.102V54.2886H171.603ZM168.881 56.5549H171.721C172.233 56.5549 172.5 56.1929 172.5 55.7916C172.5 55.3588 172.272 55.0047 171.532 55.0047H168.881V56.5549ZM168.881 59.0966H171.784C172.532 59.0966 172.894 58.6638 172.894 58.1444C172.894 57.5857 172.5 57.2552 171.942 57.2552H168.881V59.0966Z" fill="white"/>
<path d="M175.357 54.2886V58.7975L179.441 54.2886H180.244V59.8205H179.465V55.343L175.396 59.8205H174.586V54.2886H175.357Z" fill="white"/>
<path d="M182.107 54.2886L183.461 56.5627H185.003V54.2886H185.782V56.5627H187.332L188.686 54.2886H189.575L188.025 56.846L189.764 59.8205H188.843L187.372 57.2709H185.782V59.8205H185.003V57.2709H183.421L181.942 59.8205H181.029L182.768 56.846L181.218 54.2886H182.107Z" fill="white"/>
<path d="M191.323 54.2886V58.7975L195.407 54.2886H196.21V59.8205H195.431V55.343L191.362 59.8205H190.552V54.2886H191.323Z" fill="white"/>
<path d="M198.634 54.2886L201.003 58.9628H201.05L203.371 54.2886H204.654V59.8205H203.867V55.1542H203.718L201.396 59.8126H200.625L198.257 55.1542H198.107V59.8126H197.336V54.2886H198.634Z" fill="white"/>
<path d="M208.707 59.9543C206.968 59.9543 205.622 58.8054 205.622 57.0506C205.622 55.3037 206.96 54.147 208.707 54.147C210.446 54.147 211.791 55.2959 211.791 57.0506C211.791 58.8054 210.446 59.9543 208.707 59.9543ZM208.707 59.254C209.989 59.254 210.997 58.4435 210.997 57.0506C210.997 55.6578 209.989 54.8473 208.707 54.8473C207.416 54.8473 206.417 55.6578 206.409 57.0506C206.417 58.4513 207.416 59.254 208.707 59.254Z" fill="white"/>
<path d="M217.697 55.8308C217.24 55.217 216.564 54.8786 215.619 54.8786C214.258 54.8786 213.377 55.7364 213.377 57.0505C213.377 58.3331 214.29 59.2538 215.619 59.2538C216.587 59.2538 217.217 58.9076 217.697 58.2859L218.334 58.6558C217.752 59.482 216.871 59.9699 215.643 59.9699C213.873 59.9699 212.582 58.8604 212.582 57.0583C212.582 55.2642 213.904 54.1704 215.643 54.1704C216.823 54.1704 217.752 54.6426 218.326 55.4688L217.697 55.8308Z" fill="white"/>
<path d="M224.586 54.2886V55.0125H222.138V59.8205H221.352V55.0125H218.904V54.2886H224.586Z" fill="white"/>
<path d="M226.228 54.2886V55.6893H228.518C229.769 55.6893 230.706 56.4762 230.706 57.7431C230.706 59.01 229.769 59.8205 228.518 59.8205H225.449V54.2886H226.228ZM226.228 59.0966H228.455C229.352 59.0966 229.919 58.5929 229.919 57.7352C229.919 56.8775 229.36 56.4053 228.455 56.4053H226.228V59.0966Z" fill="white"/>
<path d="M49.1673 71.9231C49.3247 72.0805 46.5154 76.5895 42.1166 81.5863C37.7178 86.5832 33.4292 89.9747 33.2404 89.9983C32.5007 90.1085 35.8922 85.332 40.291 80.3351C44.6898 75.354 48.7424 71.4982 49.1673 71.9231Z" fill="#EB5E8C"/>
<path d="M20.965 81.0774C24.0976 78.7502 26.5069 76.6883 26.3462 76.4721C26.1856 76.2558 23.5158 77.967 20.3831 80.2941C17.2505 82.6213 14.8412 84.6831 15.0019 84.8994C15.1625 85.1157 17.8323 83.4045 20.965 81.0774Z" fill="#7F3955"/>
<path d="M49.1673 71.9231C49.3247 72.0805 46.5154 76.5895 42.1166 81.5863C37.7178 86.5832 33.4292 89.9747 33.2404 89.9983C32.5007 90.1085 35.8922 85.332 40.291 80.3351C44.6898 75.354 48.7424 71.4982 49.1673 71.9231Z" fill="#EB5E8C"/>
<path d="M20.965 81.0774C24.0976 78.7502 26.5069 76.6883 26.3462 76.4721C26.1856 76.2558 23.5158 77.967 20.3831 80.2941C17.2505 82.6213 14.8412 84.6831 15.0019 84.8994C15.1625 85.1157 17.8323 83.4045 20.965 81.0774Z" fill="#7F3955"/>
<path d="M63.4173 42.0609C65.3373 42.3442 49.6858 46.7194 32.2166 48.4663C14.7473 50.2132 -1.75403 48.6866 0.150276 48.3876C3.92741 47.8053 13.8817 43.7291 31.351 41.9822C48.8202 40.2353 60.852 41.6753 63.4173 42.0609Z" fill="#D24B7A"/>
<path d="M64.2655 43.9024C64.2576 44.6342 58.3952 45.9483 50.8882 46.8533C43.3811 47.7582 37.2039 47.8998 37.0938 47.1759C37.0938 47.1759 42.964 45.1299 50.4711 44.225C57.9703 43.3201 64.2655 43.6427 64.2655 43.9024Z" fill="#9EBB4D"/>
<path d="M53.686 47.8681C53.568 48.2852 45.8327 52.6525 35.0915 55.8788C24.3503 59.1051 13.2785 59.5615 14.7894 59.5536C15.0805 59.5536 23.5397 55.6663 34.281 52.44C45.0143 49.2137 53.8277 47.3724 53.686 47.8681Z" fill="#CF7C34"/>
<path d="M53.4532 37.4181C53.4532 37.0876 45.2143 34.0501 34.5911 32.6888C23.9679 31.3274 13.5572 32.736 14.9736 32.492C15.249 32.4448 23.8735 34.837 34.4967 36.1984C45.1198 37.5597 53.4532 37.843 53.4532 37.4181Z" fill="#CF7C34"/>
<path d="M58.4576 46.0969C58.4497 46.514 49.4082 56.3817 35.4957 66.0292C21.5833 75.6766 7.89901 81.2007 8.08787 81.0354C9.49643 79.8315 17.1373 70.7506 31.0497 61.1032C44.9622 51.4557 58.4654 45.4831 58.4576 46.0969Z" fill="#33799C"/>
<path d="M62.7239 47.1441C62.7161 47.4982 58.4983 57.1535 49.4567 66.6987C40.4152 76.2438 29.4222 82.4289 29.973 81.7128C31.2242 80.0997 34.1987 71.7034 43.2402 62.1583C52.2817 52.6131 62.7475 45.1848 62.7239 47.1441Z" fill="#9F5483"/>
<path d="M57.9423 38.1493C57.3285 37.6142 46.8234 30.0441 31.2112 23.4027C15.599 16.7612 3.07154 14.5107 1.41117 14.1015C-0.430182 13.6451 12.5301 22.2066 28.1423 28.8481C43.7544 35.4895 59.2958 39.3296 57.9423 38.1493Z" fill="#33799C"/>
<path d="M61.8097 36.3321C62.3369 36.1039 54.6488 27.9201 43.3489 20.413C32.049 12.906 20.8828 8.9085 20.8828 9.1367C20.8828 9.73474 28.0436 17.5487 39.3436 25.0558C50.6435 32.5628 60.165 37.0403 61.8097 36.3321Z" fill="#9F5483"/>
<path d="M64.9409 33.9002C64.9409 33.3572 61.51 27.4633 55.1597 21.0658C48.8094 14.6683 40.5391 10.4033 40.5391 10.7023C40.5391 11.3161 44.8277 17.6428 51.1701 24.0482C57.5126 30.4536 64.9409 34.514 64.9409 33.9002Z" fill="#D25171"/>
<path d="M65.2525 48.2852C65.4492 48.7967 64.3869 55.446 60.7829 63.5275C57.171 71.609 50.9702 78.3134 50.86 78.038C50.6318 77.4636 52.3394 70.1218 55.9513 62.0403C59.5553 53.9509 65.0243 47.7029 65.2525 48.2852Z" fill="#D25171"/>
<path d="M37.5736 13.2598C37.6995 13.1654 33.9223 9.72659 28.7839 6.06749C23.6454 2.40839 19.0105 -0.0388776 18.9476 0.000467546C18.5935 0.268015 22.5988 3.53366 27.7373 7.19276C32.8758 10.8519 37.4083 13.3857 37.5736 13.2598Z" fill="#EB5E8C"/>
<path d="M21.6505 62.0084C21.6191 62.1343 17.6531 64.8964 12.4595 67.4695C7.26595 70.0427 2.71764 71.5064 2.59961 71.4198C2.59961 71.4198 6.7702 68.9253 11.9638 66.3521C17.1573 63.779 21.7686 61.5048 21.6505 62.0084Z" fill="#CF7C34"/>
<path d="M63.4173 42.0609C65.3373 42.3442 49.6858 46.7194 32.2166 48.4663C14.7473 50.2132 -1.75403 48.6866 0.150276 48.3876C3.92741 47.8053 13.8817 43.7291 31.351 41.9822C48.8202 40.2353 60.852 41.6753 63.4173 42.0609Z" fill="#D24B7A"/>
<path d="M64.2655 43.9024C64.2576 44.6342 58.3952 45.9483 50.8882 46.8533C43.3811 47.7582 37.2039 47.8998 37.0938 47.1759C37.0938 47.1759 42.964 45.1299 50.4711 44.225C57.9703 43.3201 64.2655 43.6427 64.2655 43.9024Z" fill="#9EBB4D"/>
<path d="M53.686 47.8681C53.568 48.2852 45.8327 52.6525 35.0915 55.8788C24.3503 59.1051 13.2785 59.5615 14.7894 59.5536C15.0805 59.5536 23.5397 55.6663 34.281 52.44C45.0143 49.2137 53.8277 47.3724 53.686 47.8681Z" fill="#CF7C34"/>
<path d="M53.4532 37.4181C53.4532 37.0876 45.2143 34.0501 34.5911 32.6888C23.9679 31.3274 13.5572 32.736 14.9736 32.492C15.249 32.4448 23.8735 34.837 34.4967 36.1984C45.1198 37.5597 53.4532 37.843 53.4532 37.4181Z" fill="#CF7C34"/>
<path d="M58.4576 46.0969C58.4497 46.514 49.4082 56.3817 35.4957 66.0292C21.5833 75.6766 7.89901 81.2007 8.08787 81.0354C9.49643 79.8315 17.1373 70.7506 31.0497 61.1032C44.9622 51.4557 58.4654 45.4831 58.4576 46.0969Z" fill="#33799C"/>
<path d="M62.7239 47.1441C62.7161 47.4982 58.4983 57.1535 49.4567 66.6987C40.4152 76.2438 29.4222 82.4289 29.973 81.7128C31.2242 80.0997 34.1987 71.7034 43.2402 62.1583C52.2817 52.6131 62.7475 45.1848 62.7239 47.1441Z" fill="#9F5483"/>
<path d="M57.9423 38.1493C57.3285 37.6142 46.8234 30.0441 31.2112 23.4027C15.599 16.7612 3.07154 14.5107 1.41117 14.1015C-0.430182 13.6451 12.5301 22.2066 28.1423 28.8481C43.7544 35.4895 59.2958 39.3296 57.9423 38.1493Z" fill="#33799C"/>
<path d="M61.8097 36.3321C62.3369 36.1039 54.6488 27.9201 43.3489 20.413C32.049 12.906 20.8828 8.9085 20.8828 9.1367C20.8828 9.73474 28.0436 17.5487 39.3436 25.0558C50.6435 32.5628 60.165 37.0403 61.8097 36.3321Z" fill="#9F5483"/>
<path d="M64.9409 33.9002C64.9409 33.3572 61.51 27.4633 55.1597 21.0658C48.8094 14.6683 40.5391 10.4033 40.5391 10.7023C40.5391 11.3161 44.8277 17.6428 51.1701 24.0482C57.5126 30.4536 64.9409 34.514 64.9409 33.9002Z" fill="#D25171"/>
<path d="M65.2525 48.2852C65.4492 48.7967 64.3869 55.446 60.7829 63.5275C57.171 71.609 50.9702 78.3134 50.86 78.038C50.6318 77.4636 52.3394 70.1218 55.9513 62.0403C59.5553 53.9509 65.0243 47.7029 65.2525 48.2852Z" fill="#D25171"/>
<path d="M37.5736 13.2598C37.6995 13.1654 33.9223 9.72659 28.7839 6.06749C23.6454 2.40839 19.0105 -0.0388776 18.9476 0.000467546C18.5935 0.268015 22.5988 3.53366 27.7373 7.19276C32.8758 10.8519 37.4083 13.3857 37.5736 13.2598Z" fill="#EB5E8C"/>
<path d="M21.6505 62.0084C21.6191 62.1343 17.6531 64.8964 12.4595 67.4695C7.26595 70.0427 2.71764 71.5064 2.59961 71.4198C2.59961 71.4198 6.7702 68.9253 11.9638 66.3521C17.1573 63.779 21.7686 61.5048 21.6505 62.0084Z" fill="#CF7C34"/>
</svg>
