<svg width="114" height="62" viewBox="0 0 114 62" fill="none" xmlns="http://www.w3.org/2000/svg">
<path fill-rule="evenodd" clip-rule="evenodd" d="M0.469435 0.75397H4.14615V6.03312C5.55958 4.05335 7.25721 2.54541 9.14247 1.50862C11.1222 0.471829 13.1958 0 15.5522 0C19.6063 0 23.1885 1.50862 26.016 4.43068C28.9381 7.35342 30.4467 10.9356 30.4467 14.9883C30.4467 19.23 28.9381 22.8129 26.1099 25.8294C23.1878 28.7522 19.6994 30.2608 15.6461 30.2608C13.3835 30.2608 11.3092 29.789 9.33011 28.8467C7.44484 27.8099 5.6534 26.3958 4.14546 24.5105V39.9699H0.46875V0.75397H0.469435ZM15.2694 3.58221C12.0638 3.58221 9.33079 4.7135 7.1627 6.88159C4.99393 9.1435 3.86332 11.9717 3.86332 15.2711C3.86332 17.4392 4.33447 19.419 5.37194 21.1159C6.31423 22.9067 7.72835 24.3208 9.5198 25.3576C11.4051 26.2999 13.2903 26.8655 15.3646 26.8655C17.3444 26.8655 19.1351 26.2999 20.9266 25.3576C22.718 24.2263 24.1315 22.8122 25.1689 21.0207C26.1611 19.2327 26.6801 17.2208 26.6769 15.1759C26.6769 13.1023 26.2057 11.2171 25.1689 9.33182C24.1656 7.59098 22.7389 6.13174 21.0211 5.08946C19.2289 4.05335 17.3437 3.58221 15.2694 3.58221ZM83.4252 0.75397H87.1005V6.03312C88.6091 4.05335 90.2116 2.54541 92.1913 1.50862C94.0773 0.471829 96.1516 0 98.5087 0C102.657 0 106.143 1.50862 109.067 4.43068C111.895 7.35342 113.403 10.9356 113.403 14.9883C113.403 19.23 111.895 22.8129 109.067 25.8294C106.143 28.7522 102.75 30.2608 98.6025 30.2608C96.3406 30.2608 94.2663 29.789 92.2865 28.8467C90.4006 27.8099 88.705 26.3958 87.1012 24.5105V39.9699H83.4259V0.75397H83.4252ZM98.2245 3.58221C95.0196 3.58221 92.2859 4.7135 90.1178 6.88159C87.9497 9.1435 86.8184 11.9717 86.8184 15.2711C86.8184 17.4392 87.2902 19.419 88.327 21.1159C89.27 22.9067 90.6834 24.3208 92.4749 25.3576C94.3608 26.2999 96.2454 26.8655 98.3196 26.8655C100.299 26.8655 102.184 26.2999 103.881 25.3576C105.672 24.2263 107.086 22.8122 108.123 21.0207C109.115 19.2326 109.634 17.2208 109.631 15.1759C109.631 13.1023 109.159 11.2171 108.123 9.33182C107.12 7.59129 105.693 6.13214 103.975 5.08946C102.183 4.05335 100.299 3.58221 98.2245 3.58221Z" fill="white"/>
<path fill-rule="evenodd" clip-rule="evenodd" d="M64.1961 3.86532L61.7445 6.31624C59.86 4.43097 57.8802 3.488 55.9949 3.488C54.7691 3.488 53.7323 3.86532 52.8839 4.61929C52.0354 5.46708 51.6581 6.31624 51.6581 7.44685C51.6581 8.38914 52.0354 9.23829 52.6949 10.0861C53.3543 10.9339 54.8629 11.9713 57.1255 13.1026C59.8593 14.5161 61.7438 15.9309 62.782 17.2505C63.725 18.5708 64.1954 20.0787 64.1954 21.7757C64.1954 24.1321 63.3477 26.1119 61.7438 27.8088C60.0476 29.4106 57.9733 30.2604 55.5231 30.2604C53.8262 30.2604 52.2237 29.8831 50.7151 29.1291C49.2065 28.469 47.9814 27.4322 47.0391 26.1125L49.301 23.4733C51.1862 25.6414 53.2605 26.6782 55.3341 26.6782C56.842 26.6782 58.0685 26.2064 59.1046 25.2641C60.1414 24.3211 60.7071 23.1905 60.7071 21.9647C60.7071 20.8341 60.3297 19.8911 59.6703 19.1371C58.9156 18.2887 57.407 17.2519 54.9568 16.0261C52.4113 14.7064 50.6206 13.3868 49.6783 12.0665C48.7504 10.7765 48.2556 9.22553 48.2649 7.63654C48.2649 5.37395 49.0188 3.58318 50.5268 2.16907C52.0347 0.754946 53.9207 0.000976829 56.1826 0.000976829C58.8232 0.000292025 61.4624 1.31991 64.1961 3.86532Z" fill="white"/>
<path d="M73.1959 0.56543V39.9697H71.6017V0.56543H73.1959ZM39.7309 0.56543V39.9697H38.1367V0.56543H39.7309Z" fill="white"/>
<path fill-rule="evenodd" clip-rule="evenodd" d="M0.0931331 56.9385C0.752599 57.3145 1.79008 57.598 3.10969 57.598C5.08946 57.598 7.44587 56.4667 7.44587 53.8275C7.44587 49.8673 1.31893 49.8673 1.31893 47.228C1.31893 45.5304 2.82755 44.9661 4.24167 44.9661C5.08946 44.9661 6.03243 45.0599 6.59808 45.4373L6.88159 44.2121C5.93862 43.9286 4.90114 43.8348 4.24236 43.8348C1.88595 43.8348 0 45.1538 0 47.228C0 50.7164 6.12762 51.0937 6.12762 53.6385C6.12762 55.523 4.80801 56.3722 3.11106 56.3722C1.88595 56.3722 0.942975 56.0887 0.189006 55.6176L0.0931331 56.9385ZM22.5294 47.6053H21.3981L18.6643 55.9956L16.0244 47.6053H14.611L11.8765 55.9956L9.33182 47.6053H8.01152L11.1226 57.3138H12.5367L15.2704 48.925L17.9097 57.3138H19.3238L22.5294 47.6053ZM24.0373 57.3138H25.1686V47.6047H24.0373V57.3138ZM24.0373 44.9661H25.1686V43.3623H24.0373V44.9661ZM27.3367 57.1269C28.279 57.409 29.2219 57.598 30.0704 57.598C31.5783 57.598 33.4636 56.8434 33.4636 54.7704C33.4636 51.5642 28.7501 51.8477 28.7501 50.0569C28.7501 48.8305 29.5986 48.3593 30.8244 48.3593C31.4838 48.3593 32.333 48.5476 32.9925 48.8305L33.087 47.7937C32.2385 47.5115 31.2017 47.4163 30.6361 47.4163C29.0336 47.4163 27.5257 48.0758 27.5257 50.0563C27.5257 52.8838 32.1447 52.5065 32.1447 54.7698C32.1447 55.8997 31.2017 56.5605 30.0711 56.5605C29.1281 56.5605 28.1858 56.277 27.5257 55.8997L27.3367 57.1269ZM34.7839 57.1269C35.6317 57.409 36.5747 57.598 37.5177 57.598C39.0256 57.598 40.9109 56.8434 40.9109 54.7704C40.9109 51.5642 36.1035 51.8477 36.1035 50.0569C36.1035 48.8305 36.952 48.3593 38.2716 48.3593C38.9311 48.3593 39.7796 48.5476 40.3459 48.8305L40.5335 47.7937C39.5912 47.5115 38.6483 47.4163 38.0826 47.4163C36.4802 47.4163 34.9715 48.0758 34.9715 50.0563C34.9715 52.8838 39.5912 52.5065 39.5912 54.7698C39.5912 55.8997 38.5538 56.5605 37.4225 56.5605C36.4802 56.5605 35.631 56.277 34.8777 55.8997L34.7839 57.1269ZM46.5673 57.3138H47.8869V51.5642H49.7722C52.1286 51.5642 54.0146 50.2439 54.0146 47.7937C54.0146 45.2483 52.3176 44.0231 49.866 44.0231H46.5673V57.3138ZM47.8869 45.1537H50.0557C51.7527 45.1537 52.695 46.0967 52.695 47.7937C52.695 50.1501 50.8097 50.4336 48.8299 50.4336H47.8869V45.1537ZM55.9943 57.3138H57.2194V52.5065C57.2194 50.8089 57.6913 48.6408 59.5759 48.6408C59.9532 48.6408 60.2367 48.6408 60.5188 48.736V47.5108C60.2367 47.4157 59.9532 47.4157 59.671 47.4157C58.4459 47.4157 57.5968 48.3586 57.1256 49.4899V47.604H55.8998C55.9943 48.2634 55.9943 48.7353 55.9943 49.7721V57.3138ZM61.1797 52.5072C61.1797 55.1471 62.5931 57.598 65.7042 57.598C68.909 57.598 70.2287 55.1478 70.2287 52.5072C70.2287 49.7734 68.9084 47.4163 65.7042 47.4163C62.5931 47.4163 61.1797 49.7734 61.1797 52.5072ZM62.4979 52.5072C62.4979 50.2439 63.6292 48.3593 65.7042 48.3593C67.8723 48.3593 69.0022 50.2439 69.0022 52.5072C69.0022 54.6753 67.8723 56.5612 65.7042 56.5612C63.6299 56.5612 62.4979 54.6753 62.4979 52.5072ZM72.3968 61.3678H73.6219V55.6182C74.2813 56.9385 75.1291 57.598 76.7329 57.598C79.3722 57.598 80.6918 55.3347 80.6918 52.5072C80.6918 49.4913 79.5605 47.4163 76.7329 47.4163C74.6587 47.4163 73.904 48.8298 73.6219 49.3961H73.5267L73.6219 47.6053H72.3968V61.3678ZM79.3722 52.5072C79.3722 54.3931 78.8065 56.5612 76.5446 56.5612C74.3765 56.5612 73.6219 54.2048 73.6219 52.5072C73.6219 50.7164 74.3765 48.3593 76.5446 48.3593C78.8065 48.3593 79.3722 50.6212 79.3722 52.5072ZM89.6483 55.8066C89.0827 56.1839 87.7624 56.5612 86.9146 56.5612C84.8403 56.5612 83.7083 54.8636 83.7083 52.7893H90.4009V52.225C90.4009 49.5851 89.271 47.417 86.5366 47.417C84.085 47.417 82.3887 49.4913 82.3887 52.5079C82.3887 55.3354 83.6138 57.5987 86.8187 57.5987C87.7617 57.5987 88.7985 57.3152 89.6476 57.033V55.8066H89.6483ZM83.7083 51.7525C83.7083 50.1501 84.8396 48.3593 86.6311 48.3593C88.4225 48.3593 89.0827 50.0569 89.0827 51.7525H83.7083ZM92.6642 57.3138H93.8893V52.5065C93.8893 50.8089 94.3611 48.6408 96.2457 48.6408C96.623 48.6408 96.9052 48.6408 97.1887 48.736V47.5108C97.0004 47.4157 96.6231 47.4157 96.3409 47.4157C95.1144 47.4157 94.2666 48.3586 93.7955 49.4899V47.604H92.569C92.6642 48.2634 92.6642 48.7353 92.6642 49.7721V57.3138ZM103.6 47.6053H101.337V44.8716L100.205 45.2489V47.6053H98.2255V48.6421H100.205V54.2986C100.205 56.0894 100.205 57.598 102.373 57.598C102.939 57.598 103.6 57.4097 103.882 57.3145L103.787 56.2777C103.411 56.466 103.127 56.5612 102.657 56.5612C101.714 56.5612 101.337 55.8066 101.337 54.9574V48.6415H103.6V47.6053ZM105.673 47.6053H104.352L107.841 57.409L107.559 58.2568C107.181 59.5771 106.898 60.4249 105.861 60.4249C105.39 60.4249 105.202 60.3311 104.918 60.2365L104.824 61.2747C105.202 61.3685 105.672 61.463 106.143 61.463C107.463 61.463 108.217 60.1427 108.595 58.7293L112.554 47.6053H111.233L108.501 55.7121H108.406L105.673 47.6053Z" fill="white"/>
</svg>
