<svg width="182" height="22" viewBox="0 0 182 22" fill="none" xmlns="http://www.w3.org/2000/svg">
<path fill-rule="evenodd" clip-rule="evenodd" d="M4.03519 18.7697L2.98262 9.95229C2.80751 8.03213 2.54388 5.32474 2.36878 3.75317H2.28123C2.28123 4.88803 2.36878 6.2853 2.36878 7.33302V18.7697H0V0.348592H4.03422L4.91169 7.94402C5.19064 9.85284 5.33723 11.7785 5.35042 13.7074H5.43798C5.5265 11.7863 5.61405 9.51559 5.70161 8.03214L6.49055 0.348592H10.5257V18.7697H8.15794V10.3009C8.15794 8.11831 8.15794 6.11003 8.24549 3.75317H8.15794C7.98283 5.15044 7.5441 9.86514 7.45654 10.8247L6.49152 18.7697H4.03519V18.7697ZM12.1046 0.348592H14.9111V18.7697H12.1046V0.348592ZM23.4193 0.348592V2.79358H21.0515V18.7697H18.244V2.79358H15.8762V0.348592H23.4193ZM27.0148 15.8028C27.0148 16.7614 27.366 16.9377 27.8922 16.9377C28.4185 16.9377 28.7687 16.7614 28.7687 15.8028V13.8817C28.7687 11.2624 24.2958 8.73029 24.2958 5.76242V3.14314C24.2958 0.699122 26.2258 0 27.8922 0C29.5587 0 31.4887 0.699122 31.4887 3.14314V6.98442H28.7697V3.31743C28.7697 2.44498 28.4195 2.18258 27.8932 2.18258C27.3669 2.18258 27.0157 2.44498 27.0157 3.31743V5.58715C27.0157 6.98442 31.4897 10.9129 31.4897 12.833V16.0633C31.4897 18.5083 29.5596 19.2064 27.8932 19.2064C26.2268 19.2064 24.2968 18.5083 24.2968 16.0633V11.7853H27.0157V15.8028H27.0148V15.8028ZM39.9968 0.348592V16.0633C39.9968 18.5083 38.0668 19.2064 36.4004 19.2064C34.734 19.2064 32.8039 18.5083 32.8039 16.0633V0.348592H35.5229V15.8018C35.5229 16.7605 35.8741 16.9367 36.4004 16.9367C36.9267 16.9367 37.1903 16.7605 37.1903 15.8018V0.348592H39.9968V0.348592ZM44.0311 2.44402H44.6449C45.3473 2.44402 45.6099 2.79261 45.6099 3.84032V6.6339C45.6099 7.68161 45.3463 8.03116 44.6449 8.03116H44.0311V2.44402ZM41.3121 18.7697H45.1712C47.4514 18.7697 48.504 17.111 48.504 14.9284V11.9596C48.504 9.95229 47.6265 9.42843 45.8726 9.07887C47.4514 8.72931 48.3279 8.20546 48.4155 6.6339V3.66602C48.4155 1.74587 47.3629 0.348592 45.1702 0.348592H41.3111V18.7697H41.3121ZM44.0311 10.2137H44.5574C45.3473 10.2137 45.6975 10.5633 45.6975 11.6982V15.1889C45.6975 16.3257 45.3473 16.5862 44.5574 16.5862H44.0311V10.2137ZM49.8202 0.348592H52.6268V18.7697H49.8202V0.348592ZM56.7485 15.8028C56.7485 16.7614 57.0122 16.9377 57.626 16.9377C58.1523 16.9377 58.4159 16.7614 58.4159 15.8028V13.8817C58.4159 11.2624 54.0305 8.73029 54.0305 5.76242V3.14314C54.0305 0.699122 55.873 0 57.5385 0C59.2934 0 61.1349 0.699122 61.1349 3.14314V6.98442H58.4159V3.31743C58.4159 2.44498 58.1523 2.18258 57.626 2.18258C57.0122 2.18258 56.7485 2.44498 56.7485 3.31743V5.58715C56.7485 6.98442 61.1339 10.9129 61.1339 12.833V16.0633C61.1339 18.5083 59.2924 19.2064 57.5375 19.2064C55.8711 19.2064 54.0295 18.5083 54.0295 16.0633V11.7853H56.7485V15.8028V15.8028ZM62.5387 18.7697V0.348592H65.3442V7.42016H66.8365V0.348592H69.5545V18.7697H66.8365V9.86514H65.3442V18.7697H62.5387ZM71.0458 0.348592H73.7648V18.7697H71.0458V0.348592ZM79.4655 18.7697V0.348592H85.5182V2.79358H82.1854V7.50731H85.4307V9.95229H82.1854V16.4138H85.6058V18.7697H79.4655V18.7697ZM89.2023 15.8028C89.2023 16.7614 89.4659 16.9377 89.9922 16.9377C90.606 16.9377 90.8687 16.7614 90.8687 15.8028V13.8817C90.8687 11.2624 86.3957 8.73029 86.3957 5.76242V3.14314C86.3957 0.699122 88.3258 0 89.9922 0C91.7461 0 93.5877 0.699122 93.5877 3.14314V6.98442H90.8696V3.31743C90.8696 2.44498 90.606 2.18258 89.9932 2.18258C89.4669 2.18258 89.2032 2.44498 89.2032 3.31743V5.58715C89.2032 6.98442 93.5877 10.9129 93.5877 12.833V16.0633C93.5877 18.5083 91.7461 19.2064 89.9922 19.2064C88.3258 19.2064 86.3957 18.5083 86.3957 16.0633V11.7853H89.2023V15.8028V15.8028ZM102.007 0.348592V2.79358H99.6405V18.7697H96.9215V2.79358H94.4642V0.348592H102.007ZM104.288 11.4357L104.991 3.75317H105.166L105.692 11.4357H104.288ZM100.955 18.7697H103.411L104.025 13.7936H105.953L106.479 18.7697H109.288L107.183 0.348592H103.06L100.955 18.7697ZM115.69 0.348592V2.79358H113.322V18.7697H110.603V2.79358H108.147V0.348592H115.69ZM116.742 18.7697V0.348592H122.795V2.79358H119.461V7.50731H122.709V9.95229H119.461V16.4138H122.883V18.7697H116.742V18.7697ZM132.267 7.07157V3.31743C132.267 2.44498 132.005 2.18258 131.478 2.18258C130.865 2.18258 130.601 2.44498 130.601 3.31743V15.8028C130.601 16.7614 130.865 16.9377 131.478 16.9377C132.005 16.9377 132.267 16.7614 132.267 15.8028V11.8724H135.074V16.0633C135.074 18.5083 133.146 19.2064 131.479 19.2064C129.725 19.2064 127.883 18.5083 127.883 16.0633V3.14314C127.883 0.699122 129.726 0 131.479 0C133.146 0 135.074 0.699122 135.074 3.14314V7.07157H132.267ZM139.109 3.31743C139.109 2.44498 139.373 2.18258 139.987 2.18258C140.513 2.18258 140.775 2.44498 140.775 3.31743V15.8028C140.775 16.7614 140.513 16.9377 139.987 16.9377C139.373 16.9377 139.109 16.7614 139.109 15.8028V3.31743ZM136.39 16.0633C136.39 18.5083 138.232 19.2064 139.987 19.2064C141.653 19.2064 143.581 18.5083 143.581 16.0633V3.14314C143.581 0.699122 141.653 0 139.987 0C138.231 0 136.39 0.699122 136.39 3.14314V16.0633ZM144.986 15.89H147.617V18.7697H144.986V15.89ZM179.456 15.89H182V18.7697H179.456V15.89ZM148.67 22L149.546 15.89H152.09L150.249 22H148.67V22ZM157.441 18.7697V0.348592H160.16V16.4138H163.668V18.7697H157.441V18.7697ZM169.633 0.348592V2.79358H167.263V18.7697H164.545V2.79358H162.09V0.348592H169.633V0.348592ZM173.317 2.53117H173.931C174.632 2.53117 174.983 2.79357 174.983 3.92746V15.1889C174.983 16.4129 174.632 16.5862 173.931 16.5862H173.317V2.53117ZM170.598 18.7697H174.457C176.562 18.7697 177.702 17.1982 177.702 15.4523V4.53944C177.702 1.30916 176.562 0.348592 173.843 0.348592H170.598V18.7697Z" fill="white"/>
</svg>
