<svg width="296" height="25" viewBox="0 0 296 25" fill="none" xmlns="http://www.w3.org/2000/svg">
<path d="M65.0367 22.4565H72.0199V24.2925H62.8516V8.15321H65.0367V22.4565ZM80.4787 22.5579C81.1478 22.5579 81.7442 22.4458 82.2702 22.22C82.779 22.006 83.2347 21.6829 83.6049 21.2733C83.9687 20.8673 84.2469 20.3835 84.4378 19.8204C84.6287 19.2572 84.725 18.636 84.725 17.9613V8.15264H86.8988V17.9625C86.8988 18.8939 86.7502 19.7578 86.4539 20.553C86.1571 21.3494 85.7331 22.0381 85.1812 22.6199C84.6293 23.2027 83.9551 23.6583 83.1594 23.9884C82.3636 24.3201 81.4699 24.4851 80.4781 24.4851C79.487 24.4851 78.5932 24.3201 77.7975 23.9884C77.0017 23.6583 76.3259 23.2027 75.7701 22.6199C75.2142 22.0381 74.7885 21.3494 74.4911 20.553C74.1949 19.7578 74.0462 18.8945 74.0462 17.9625V8.15264H76.22V17.9512C76.22 18.6264 76.3158 19.2459 76.5073 19.8091C76.6987 20.3723 76.9764 20.8571 77.3407 21.2621C77.7125 21.6737 78.17 21.9988 78.6811 22.2144C79.2116 22.4436 79.8102 22.5579 80.4787 22.5579ZM94.4002 16.0026L89.0727 8.15321H91.2459C91.4036 8.15321 91.5196 8.17968 91.5951 8.23205C91.67 8.28443 91.7376 8.35989 91.7978 8.45732L96.0098 14.9219C96.0627 14.7648 96.141 14.5919 96.2463 14.4038L100.223 8.50181C100.29 8.3965 100.364 8.31258 100.442 8.24895C100.524 8.18444 100.626 8.15056 100.73 8.15321H102.813L97.4633 15.9018L102.994 24.293H100.831C100.666 24.293 100.536 24.2502 100.442 24.1635C100.351 24.0807 100.273 23.9838 100.212 23.8763L95.8864 17.107C95.8344 17.2635 95.7665 17.4143 95.6837 17.557L91.4718 23.8763C91.4042 23.9822 91.327 24.0773 91.2409 24.1635C91.1547 24.2502 91.0325 24.293 90.8748 24.293H88.8474L94.4002 16.0026ZM111.407 22.5579C112.076 22.5579 112.673 22.4458 113.199 22.22C113.708 22.006 114.163 21.6829 114.533 21.2733C114.897 20.8673 115.175 20.3835 115.366 19.8204C115.557 19.2572 115.654 18.636 115.654 17.9613V8.15264H117.827V17.9625C117.827 18.8939 117.679 19.7578 117.383 20.553C117.086 21.3494 116.662 22.0381 116.11 22.6199C115.558 23.2027 114.884 23.6583 114.088 23.9884C113.292 24.3201 112.398 24.4851 111.407 24.4851C110.416 24.4851 109.522 24.3201 108.726 23.9884C107.93 23.6583 107.255 23.2027 106.699 22.6199C106.143 22.0381 105.717 21.3494 105.42 20.553C105.124 19.7578 104.975 18.8945 104.975 17.9625V8.15264H107.149V17.9512C107.149 18.6264 107.244 19.2459 107.436 19.8091C107.627 20.3723 107.905 20.8571 108.269 21.2621C108.641 21.6737 109.099 21.9988 109.61 22.2144C110.14 22.4436 110.739 22.5579 111.407 22.5579ZM123.752 17.5564V24.2925H121.578V8.15208H126.14C127.161 8.15208 128.043 8.2557 128.787 8.46182C129.53 8.66851 130.144 8.96699 130.629 9.35726C131.1 9.73058 131.47 10.2167 131.704 10.7708C131.936 11.3227 132.053 11.9399 132.053 12.6231C132.053 13.1941 131.963 13.7274 131.783 14.2225C131.607 14.7121 131.341 15.1648 131 15.5577C130.644 15.9632 130.221 16.304 129.75 16.5652C129.257 16.8434 128.7 17.0535 128.077 17.1966C128.347 17.3531 128.588 17.584 128.798 17.8831L133.505 24.2925H131.569C131.171 24.2925 130.877 24.1387 130.69 23.8307L126.5 18.0638C126.372 17.8836 126.233 17.7547 126.083 17.6758C125.934 17.597 125.708 17.557 125.408 17.557H123.752V17.5564ZM123.752 15.9694H126.038C126.676 15.9694 127.238 15.8923 127.722 15.7385C128.206 15.5848 128.612 15.3668 128.939 15.0852C129.265 14.8037 129.511 14.468 129.676 14.0777C129.841 13.688 129.924 13.2549 129.924 12.7819C129.924 11.8206 129.607 11.0969 128.973 10.6086C128.338 10.1204 127.394 9.87594 126.14 9.87594H123.753V15.9694H123.752ZM141.852 17.8724V24.2925H139.679V17.8724L133.766 8.15264H135.68C135.876 8.15264 136.03 8.20164 136.142 8.29907C136.254 8.3965 136.352 8.51701 136.436 8.6595L140.131 14.9337C140.281 15.1967 140.406 15.4434 140.508 15.6754C140.609 15.9086 140.701 16.1372 140.783 16.3636C140.866 16.1316 140.957 15.8985 141.053 15.6653C141.151 15.4333 141.275 15.1872 141.425 14.9337L145.108 8.6595C145.175 8.53954 145.267 8.42466 145.383 8.31653C145.5 8.20784 145.652 8.15321 145.84 8.15321H147.777L141.852 17.8724ZM163.647 8.15264V9.93225H155.896V15.2942H162.172V17.0068H155.896V22.5134H163.648V24.2925H153.702V8.15264H163.647ZM174.831 10.6756C174.764 10.7877 174.692 10.8727 174.617 10.9285C174.531 10.9878 174.428 11.0175 174.324 11.013C174.195 11.013 174.048 10.9493 173.878 10.8215C173.709 10.6937 173.495 10.5529 173.236 10.3991C172.939 10.2285 172.626 10.087 172.302 9.97675C171.938 9.84891 171.496 9.78527 170.977 9.78527C170.49 9.78527 170.057 9.85116 169.681 9.98238C169.306 10.113 168.992 10.2927 168.741 10.5168C168.491 10.7421 168.3 11.0073 168.172 11.3109C168.042 11.6232 167.977 11.9584 167.98 12.2964C167.98 12.7475 168.09 13.1203 168.313 13.4177C168.536 13.7139 168.827 13.9679 169.192 14.178C169.556 14.3892 169.969 14.5705 170.43 14.7248C170.891 14.8786 171.364 15.0385 171.85 15.2035C172.334 15.3685 172.807 15.5555 173.27 15.761C173.731 15.9677 174.145 16.2285 174.509 16.5444C174.878 16.8675 175.177 17.2627 175.388 17.7057C175.61 18.163 175.721 18.7261 175.721 19.3952C175.725 20.0742 175.603 20.748 175.36 21.382C175.127 21.9889 174.768 22.5395 174.307 22.9977C173.845 23.4562 173.277 23.816 172.606 24.079C171.934 24.3426 171.17 24.4738 170.314 24.4738C169.27 24.4738 168.319 24.2846 167.461 23.905C166.601 23.5254 165.867 23.013 165.259 22.3676L165.889 21.3313C165.949 21.2491 166.022 21.1793 166.109 21.1224C166.195 21.0669 166.295 21.0381 166.397 21.0396C166.555 21.0396 166.736 21.1224 166.938 21.2925C167.14 21.462 167.395 21.6478 167.699 21.8494C168.003 22.0516 168.37 22.2375 168.802 22.407C169.235 22.5754 169.761 22.6598 170.386 22.6598C170.904 22.6598 171.365 22.5894 171.77 22.4464C172.176 22.3034 172.519 22.1023 172.801 21.8438C173.083 21.5842 173.299 21.275 173.448 20.9146C173.597 20.5547 173.672 20.1521 173.672 19.7088C173.672 19.2217 173.562 18.8213 173.34 18.5099C173.109 18.1892 172.811 17.9221 172.467 17.7265C172.077 17.5037 171.663 17.3245 171.234 17.1921L169.814 16.741C169.332 16.5877 168.859 16.4093 168.395 16.2065C167.945 16.0109 167.529 15.7448 167.163 15.4181C166.802 15.0948 166.511 14.691 166.289 14.2078C166.067 13.7246 165.957 13.1237 165.957 12.4119C165.957 11.8408 166.067 11.2889 166.289 10.7556C166.511 10.2225 166.839 9.73991 167.253 9.33699C167.672 8.92419 168.193 8.59304 168.813 8.34581C169.432 8.09802 170.143 7.97412 170.947 7.97412C171.849 7.97412 172.67 8.1166 173.414 8.40213C174.141 8.67741 174.804 9.09932 175.362 9.64166L174.831 10.6756ZM189.27 8.15264V9.98801H184.055V24.2925H181.87V9.98801H176.632V8.15264H189.27ZM203.495 24.2925H201.806C201.609 24.2925 201.453 24.244 201.333 24.146C201.212 24.0474 201.12 23.9194 201.063 23.7744L199.553 19.8772H192.311L190.8 23.7744C190.748 23.9095 190.659 24.0295 190.531 24.1353C190.403 24.2401 190.246 24.2925 190.058 24.2925H188.368L194.823 8.15208H197.04L203.495 24.2925ZM192.92 18.3004H198.945L196.411 11.7338C196.246 11.3289 196.084 10.8221 195.927 10.2138C195.852 10.4988 195.771 10.7823 195.685 11.0642C195.605 11.3238 195.529 11.5502 195.454 11.7462L192.92 18.3004ZM214.726 8.15264V9.98801H209.511V24.2925H207.325V9.98801H202.087V8.15264H214.726ZM226.968 8.15264V9.93225H219.219V15.2942H225.493V17.0068H219.219V22.5134H226.968V24.2925H217.024V8.15264H226.968ZM238.152 10.6756C238.085 10.7877 238.014 10.8727 237.939 10.9285C237.862 10.9848 237.764 11.013 237.645 11.013C237.517 11.013 237.369 10.9493 237.201 10.8215C236.994 10.6693 236.78 10.5284 236.558 10.3991C236.261 10.2284 235.948 10.0869 235.624 9.97675C235.26 9.84891 234.818 9.78527 234.3 9.78527C233.812 9.78527 233.379 9.85116 233.004 9.98238C232.629 10.1136 232.314 10.2927 232.063 10.5168C231.811 10.7421 231.622 11.0073 231.493 11.3109C231.364 11.6231 231.299 11.9584 231.302 12.2964C231.302 12.7475 231.412 13.1203 231.634 13.4177C231.857 13.7139 232.149 13.9679 232.514 14.178C232.878 14.3892 233.29 14.5705 233.752 14.7248C234.213 14.8786 234.686 15.0385 235.172 15.2035C235.657 15.3685 236.129 15.5555 236.592 15.761C237.052 15.9677 237.466 16.2285 237.83 16.5444C238.199 16.8673 238.499 17.2626 238.709 17.7057C238.931 18.163 239.041 18.7261 239.041 19.3952C239.047 20.0742 238.924 20.7482 238.68 21.382C238.448 21.989 238.089 22.5397 237.628 22.9977C237.167 23.4562 236.6 23.816 235.927 24.079C235.256 24.3426 234.491 24.4738 233.636 24.4738C232.591 24.4738 231.64 24.2846 230.78 23.905C229.921 23.5254 229.187 23.013 228.579 22.3676L229.21 21.3313C229.269 21.2491 229.343 21.1793 229.429 21.1224C229.515 21.0668 229.615 21.038 229.718 21.0396C229.875 21.0396 230.056 21.1224 230.258 21.2925C230.46 21.462 230.715 21.6478 231.02 21.8494C231.323 22.0516 231.691 22.2375 232.123 22.407C232.555 22.5754 233.082 22.6598 233.706 22.6598C234.224 22.6598 234.686 22.5894 235.092 22.4464C235.499 22.3034 235.84 22.1023 236.121 21.8438C236.403 21.5842 236.62 21.275 236.769 20.9146C236.918 20.5547 236.994 20.1521 236.994 19.7088C236.994 19.2217 236.883 18.8213 236.66 18.5099C236.429 18.189 236.132 17.9218 235.788 17.7265C235.398 17.504 234.984 17.3247 234.555 17.1921L233.135 16.741C232.653 16.5876 232.179 16.4092 231.716 16.2065C231.266 16.0108 230.85 15.7446 230.484 15.4181C230.123 15.0948 229.831 14.691 229.61 14.2078C229.388 13.7246 229.277 13.1237 229.277 12.4119C229.277 11.8408 229.388 11.2889 229.61 10.7556C229.832 10.2224 230.16 9.73976 230.574 9.33699C230.994 8.92419 231.514 8.59304 232.134 8.34581C232.755 8.09802 233.464 7.97412 234.269 7.97412C235.17 7.97412 235.993 8.1166 236.735 8.40213C237.462 8.6774 238.126 9.09931 238.684 9.64166L238.152 10.6756ZM248.12 18.2553V24.293H245.948V8.15264H250.711C251.732 8.15264 252.622 8.27091 253.375 8.50744C254.13 8.74397 254.754 9.08018 255.25 9.51551C255.746 9.95084 256.116 10.4768 256.361 11.0929C256.605 11.7079 256.725 12.395 256.725 13.1541C256.725 13.9043 256.595 14.5925 256.331 15.2153C256.073 15.8323 255.678 16.3826 255.176 16.8249C254.671 17.2748 254.04 17.6257 253.29 17.8774C252.538 18.1292 251.679 18.2547 250.71 18.2547H248.12V18.2553ZM248.12 16.5213H250.711C251.334 16.5213 251.885 16.4391 252.363 16.2741C252.839 16.1091 253.24 15.8782 253.563 15.5814C253.884 15.2866 254.135 14.9224 254.295 14.5164C254.46 14.1042 254.541 13.6497 254.541 13.1536C254.541 12.1252 254.225 11.3222 253.591 10.7438C252.956 10.1654 251.997 9.87594 250.714 9.87594H248.122V16.5213H248.12ZM261.445 22.4565H268.428V24.2925H259.26V8.15321H261.445V22.4565ZM276.887 22.5579C277.555 22.5579 278.152 22.4458 278.678 22.22C279.187 22.0066 279.643 21.6833 280.012 21.2733C280.376 20.8673 280.655 20.3835 280.845 19.8204C281.036 19.2572 281.133 18.636 281.133 17.9613V8.15264H283.306V17.9625C283.306 18.8939 283.157 19.7578 282.861 20.553C282.565 21.3494 282.141 22.0381 281.588 22.6199C281.036 23.2027 280.362 23.6583 279.566 23.9884C278.771 24.3201 277.876 24.4851 276.885 24.4851C275.893 24.4851 275 24.3201 274.204 23.9884C273.408 23.6583 272.732 23.2027 272.175 22.6199C271.621 22.0381 271.194 21.3494 270.896 20.553C270.6 19.7578 270.452 18.8945 270.452 17.9625V8.15264H272.624V17.9512C272.624 18.6264 272.721 19.2459 272.913 19.8091C273.104 20.3723 273.382 20.8571 273.745 21.2621C274.109 21.6687 274.556 21.9846 275.086 22.2144C275.62 22.4436 276.219 22.5579 276.887 22.5579ZM295.099 10.6756C295.032 10.7877 294.961 10.8727 294.885 10.9285C294.799 10.9878 294.696 11.0175 294.592 11.013C294.463 11.013 294.316 10.9493 294.146 10.8215C293.94 10.6691 293.726 10.5281 293.505 10.3991C293.208 10.2285 292.894 10.087 292.57 9.97675C292.206 9.84891 291.764 9.78527 291.246 9.78527C290.758 9.78527 290.325 9.85116 289.95 9.98238C289.575 10.1136 289.26 10.2927 289.01 10.5168C288.758 10.7421 288.569 11.0073 288.44 11.3109C288.31 11.6231 288.245 11.9583 288.248 12.2964C288.248 12.7475 288.359 13.1203 288.58 13.4177C288.803 13.7139 289.095 13.9679 289.46 14.178C289.824 14.3892 290.237 14.5705 290.699 14.7248C291.159 14.8786 291.632 15.0385 292.118 15.2035C292.599 15.3677 293.073 15.5537 293.537 15.761C293.998 15.9677 294.412 16.2285 294.776 16.5444C295.145 16.8673 295.444 17.2626 295.655 17.7057C295.877 18.163 295.987 18.7261 295.987 19.3952C295.992 20.0742 295.87 20.7482 295.626 21.382C295.394 21.989 295.035 22.5397 294.574 22.9977C294.112 23.4562 293.545 23.816 292.872 24.079C292.202 24.3426 291.436 24.4738 290.581 24.4738C289.537 24.4738 288.585 24.2846 287.726 23.905C286.867 23.5254 286.132 23.013 285.524 22.3676L286.155 21.3313C286.215 21.2491 286.288 21.1793 286.375 21.1224C286.461 21.0667 286.561 21.0379 286.663 21.0396C286.821 21.0396 287.001 21.1224 287.204 21.2925C287.406 21.462 287.66 21.6478 287.965 21.8494C288.268 22.0516 288.637 22.2375 289.068 22.407C289.501 22.5754 290.027 22.6598 290.652 22.6598C291.17 22.6598 291.632 22.5894 292.038 22.4464C292.444 22.3034 292.787 22.1023 293.068 21.8438C293.35 21.5842 293.566 21.275 293.714 20.9146C293.866 20.5536 293.94 20.1521 293.94 19.7088C293.94 19.2217 293.829 18.8213 293.607 18.5099C293.375 18.1893 293.078 17.9222 292.734 17.7265C292.372 17.5164 291.963 17.3385 291.501 17.1921L290.081 16.741C289.599 16.5876 289.125 16.4092 288.662 16.2065C288.211 16.0108 287.795 15.7447 287.429 15.4181C287.069 15.0948 286.778 14.691 286.555 14.2078C286.334 13.7246 286.223 13.1237 286.223 12.4119C286.223 11.8388 286.337 11.2714 286.56 10.7433C286.782 10.2152 287.109 9.73703 287.519 9.33699C287.939 8.92419 288.459 8.59304 289.079 8.34581C289.7 8.09802 290.41 7.97412 291.214 7.97412C292.115 7.97412 292.938 8.1166 293.681 8.40213C294.408 8.67753 295.072 9.09942 295.63 9.64166L295.099 10.6756Z" fill="white"/>
<path d="M0.00901068 0C1.17308 0.0118265 3.50121 0.0298479 3.50121 0.0298479L3.51755 14.1502C3.51755 14.1502 7.62248 9.98496 9.74731 7.97952C11.1924 8.03866 12.6397 7.96601 14.0826 8.01613C14.3658 8.14509 14.4284 8.45878 14.5528 8.70545C15.9048 11.8637 17.2707 15.0159 18.6504 18.1622C20.0769 14.7674 21.4573 11.345 22.9722 7.99079C23.7161 8.01557 24.4612 7.97671 25.2029 8.01162C25.4997 8.10567 25.5284 8.46779 25.6664 8.70263C26.9031 11.7313 28.2125 14.7302 29.4278 17.7657C29.4948 17.8558 29.6328 18.0332 29.6992 18.1199C30.647 15.4854 31.8956 12.9669 32.9656 10.3781C33.3277 9.58511 33.6087 8.75106 34.039 7.98741C35.2002 8.01331 36.3621 7.99473 37.5261 8.00149C35.1518 13.6005 32.7026 19.1697 30.2613 24.7371C29.8276 24.7326 29.394 24.7326 28.9592 24.7326C27.3576 21.0016 25.7531 17.2673 24.174 13.5245C23.8676 13.8128 23.7617 14.2279 23.599 14.6001C22.2029 17.9819 20.7572 21.3424 19.3634 24.7259C18.9022 24.7281 18.4415 24.7281 17.9803 24.718C16.0187 20.1293 14.0201 15.5564 12.0405 10.9767C11.9071 10.6745 11.7571 10.3799 11.5911 10.0942C10.574 11.3659 9.38069 12.4843 8.36023 13.7542C10.0171 17.3709 11.4486 21.0906 13.0683 24.7236C11.9026 24.7445 10.7334 24.7101 9.56766 24.7518C8.32024 21.9878 7.18208 19.1787 5.98929 16.391C5.19973 17.2712 4.26431 18.0197 3.50854 18.9224C3.46179 20.8541 3.50403 22.7875 3.49502 24.7191C2.33039 24.7405 1.16632 24.7315 0 24.7293C0.0230899 16.4867 0.00675801 8.24252 0.00901068 0ZM34.77 22.5143C34.9389 22.5143 35.0966 22.547 35.2442 22.6101C35.5342 22.7342 35.7651 22.9653 35.889 23.2554C35.9526 23.403 35.9847 23.5601 35.9847 23.7296C35.9847 23.8991 35.9526 24.0574 35.889 24.2044C35.8277 24.3483 35.7396 24.4792 35.6294 24.5902C35.5185 24.7003 35.3878 24.7884 35.2442 24.8498C35.0961 24.9134 34.9389 24.9455 34.77 24.9455C34.6005 24.9455 34.4422 24.9128 34.2952 24.8498C34.0756 24.7561 33.8884 24.6 33.7566 24.4009C33.6249 24.2018 33.5545 23.9684 33.5541 23.7296C33.5541 23.5612 33.5862 23.403 33.6498 23.2554C33.7737 22.9651 34.0049 22.7339 34.2952 22.6101C34.4422 22.547 34.6005 22.5143 34.77 22.5143ZM34.7734 22.6213C34.6174 22.6213 34.4721 22.6489 34.3375 22.7052C34.207 22.7595 34.0887 22.8394 33.9897 22.9402C33.8906 23.041 33.8128 23.1606 33.7608 23.2921C33.7056 23.4272 33.6786 23.5725 33.6786 23.7285C33.6767 24.0212 33.7895 24.303 33.9928 24.5136C34.094 24.6177 34.2153 24.7001 34.3494 24.7557C34.4836 24.8113 34.6276 24.8389 34.7728 24.8368C34.9895 24.8388 35.2017 24.7748 35.3812 24.6534C35.5608 24.532 35.6992 24.3589 35.778 24.1571C35.8338 24.0236 35.8608 23.8789 35.8608 23.7251C35.8608 23.5691 35.8327 23.4238 35.778 23.2904C35.7229 23.1558 35.6474 23.0392 35.5511 22.9406C35.4496 22.8378 35.3284 22.7565 35.1948 22.7017C35.0611 22.6468 34.9178 22.6195 34.7734 22.6213ZM34.3279 23.0116H34.8674C35.0302 23.0116 35.1484 23.0454 35.2233 23.1124C35.2982 23.1805 35.3354 23.2785 35.3354 23.4081C35.3363 23.4612 35.3262 23.514 35.3055 23.5629C35.2877 23.6054 35.2606 23.6433 35.2261 23.6739C35.1918 23.7055 35.1521 23.7308 35.109 23.7488C35.063 23.7691 35.0142 23.7824 34.9643 23.7882L35.3934 24.4471H35.2571L34.8246 23.7843H34.4512V24.4471H34.3273V23.0116H34.3279ZM34.4512 23.6773H34.7565C34.8105 23.6773 34.8646 23.675 34.9187 23.6688C34.9688 23.6647 35.0181 23.6528 35.0645 23.6333C35.1065 23.6166 35.1431 23.5888 35.1704 23.5528C35.1995 23.5089 35.2135 23.4567 35.2104 23.4041C35.2119 23.3567 35.2009 23.3096 35.1783 23.2678C35.1577 23.2318 35.1287 23.2012 35.0938 23.1789C35.0582 23.1556 35.0184 23.1395 34.9767 23.1315C34.9343 23.1225 34.891 23.1182 34.8477 23.1186H34.4512V23.6773Z" fill="white"/>
</svg>
