<svg width="231" height="37" viewBox="0 0 231 37" fill="none" xmlns="http://www.w3.org/2000/svg">
<path d="M28.7822 0.115198H0.3566V36H5.0942V4.248H24.0446V36H28.7822V0.115198ZM58.1997 27.7848H54.0165C52.8069 31.716 50.7405 33.3288 47.0109 33.3288C41.9709 33.3288 38.8965 30.0024 38.8965 24.4584L38.9469 24.156H58.5021V23.5512C58.5021 16.0416 55.2765 9.2376 46.7085 9.2376C39.5013 9.2376 34.6125 14.9328 34.6125 23.3496C34.6125 31.8168 39.1989 36.8568 46.8597 36.8568C53.0085 36.8568 56.8893 33.7824 58.1997 27.7848ZM54.0669 20.6784H38.9469C39.5013 15.7896 42.4245 12.7656 46.6077 12.7656C50.8917 12.7656 53.6637 15.7392 54.0669 20.6784ZM85.4212 26.5248H81.0868C80.4316 30.8088 77.8612 33.1776 73.9804 33.1776C69.142 33.1776 66.2188 29.3472 66.2188 22.9968C66.2188 16.7472 69.3436 12.816 74.2828 12.816C77.8108 12.816 80.0788 14.7816 80.8348 18.4608H85.27C84.5644 12.564 80.5828 9.2376 74.2324 9.2376C66.5716 9.2376 61.7332 14.6808 61.7332 23.3496C61.7332 31.2624 66.0172 36.756 74.0812 36.756C80.5324 36.756 84.6652 32.724 85.4212 26.5248ZM110.022 13.7736V9.9936H87.0899V13.7736H96.4139V36H100.698V13.7736H110.022ZM134.784 27.7848H130.601C129.391 31.716 127.325 33.3288 123.595 33.3288C118.555 33.3288 115.481 30.0024 115.481 24.4584L115.531 24.156H135.086V23.5512C135.086 16.0416 131.861 9.2376 123.293 9.2376C116.086 9.2376 111.197 14.9328 111.197 23.3496C111.197 31.8168 115.783 36.8568 123.444 36.8568C129.593 36.8568 133.474 33.7824 134.784 27.7848ZM130.651 20.6784H115.531C116.086 15.7896 119.009 12.7656 123.192 12.7656C127.476 12.7656 130.248 15.7392 130.651 20.6784ZM160.414 9.9936H142.724L142.27 25.7184C142.119 31.3632 140.204 32.8752 138.49 32.8752C137.936 32.8752 136.776 32.8248 136.222 32.5224V36C136.776 36.252 138.036 36.5544 139.296 36.5544C142.925 36.5544 146.252 33.7824 146.504 25.2648L146.856 13.7736H156.13V36H160.414V9.9936ZM187.311 36V9.9936H174.106C169.066 9.9936 165.941 12.7656 165.941 17.6544C165.941 21.9384 168.713 24.66 172.392 25.2144L163.421 36H169.116L177.331 25.3656H183.027V36H187.311ZM183.027 13.7736V21.5856H175.467C171.888 21.5856 170.326 20.3256 170.326 17.6544C170.326 15.0336 171.939 13.7736 175.467 13.7736H183.027ZM229.82 9.54C229.366 3.6936 225.536 0.266396 219.538 0.266396C209.004 0.266396 206.585 10.3968 206.585 18.9648C206.585 27.2808 208.702 36.7056 219.034 36.7056C226.292 36.7056 230.777 31.464 230.777 24.5592C230.777 17.7048 226.342 13.1184 219.689 13.1184C215.96 13.1184 212.784 14.6304 210.819 17.8056C211.071 12.9672 211.726 3.996 219.387 3.996C223.016 3.996 224.981 6.2136 225.435 9.54H229.82ZM218.933 16.848C223.419 16.848 226.241 19.9728 226.241 24.9624C226.241 29.8008 223.318 32.8752 219.034 32.8752C214.649 32.8752 211.625 29.7 211.625 24.7608C211.625 20.0232 214.599 16.848 218.933 16.848Z" fill="white"/>
</svg>
